<svg xmlns="http://www.w3.org/2000/svg" xmlns:xlink="http://www.w3.org/1999/xlink" viewBox="0 0 402.58 404.25"><defs><style>.cls-1{fill:url(#_ÂÁ_Ï_ÌÌ_È_ËÂÌÚ_31);}.cls-2{fill:url(#_ÂÁ_Ï_ÌÌ_È_ËÂÌÚ_31-2);}.cls-3{fill:url(#_ÂÁ_Ï_ÌÌ_È_ËÂÌÚ_31-3);}.cls-4{fill:url(#_ÂÁ_Ï_ÌÌ_È_ËÂÌÚ_31-4);}.cls-5{fill:url(#_ÂÁ_Ï_ÌÌ_È_ËÂÌÚ_31-5);}.cls-6{fill:url(#_ÂÁ_Ï_ÌÌ_È_ËÂÌÚ_31-6);}.cls-7{fill:url(#_ÂÁ_Ï_ÌÌ_È_ËÂÌÚ_31-7);}.cls-8{fill:url(#_ÂÁ_Ï_ÌÌ_È_ËÂÌÚ_31-8);}.cls-9{fill:url(#_ÂÁ_Ï_ÌÌ_È_ËÂÌÚ_31-9);}.cls-10{fill:url(#_ÂÁ_Ï_ÌÌ_È_ËÂÌÚ_31-10);}.cls-11{fill:url(#_ÂÁ_Ï_ÌÌ_È_ËÂÌÚ_31-11);}.cls-12{fill:url(#_ÂÁ_Ï_ÌÌ_È_ËÂÌÚ_31-12);}.cls-13{fill:url(#_ÂÁ_Ï_ÌÌ_È_ËÂÌÚ_31-13);}.cls-14{fill:url(#_ÂÁ_Ï_ÌÌ_È_ËÂÌÚ_31-14);}.cls-15{fill:url(#_ÂÁ_Ï_ÌÌ_È_ËÂÌÚ_31-15);}.cls-16{fill:url(#_ÂÁ_Ï_ÌÌ_È_ËÂÌÚ_31-16);}.cls-17{fill:url(#_ÂÁ_Ï_ÌÌ_È_ËÂÌÚ_31-17);}.cls-18{fill:url(#_ÂÁ_Ï_ÌÌ_È_ËÂÌÚ_31-18);}.cls-19{fill:url(#_ÂÁ_Ï_ÌÌ_È_ËÂÌÚ_31-19);}.cls-20{fill:url(#_ÂÁ_Ï_ÌÌ_È_ËÂÌÚ_31-20);}.cls-21{fill:url(#_ÂÁ_Ï_ÌÌ_È_ËÂÌÚ_31-21);}.cls-22{fill:url(#_ÂÁ_Ï_ÌÌ_È_ËÂÌÚ_31-22);}.cls-23{fill:url(#_ÂÁ_Ï_ÌÌ_È_ËÂÌÚ_31-23);}.cls-24{fill:url(#_ÂÁ_Ï_ÌÌ_È_ËÂÌÚ_31-24);}.cls-25{fill:url(#_ÂÁ_Ï_ÌÌ_È_ËÂÌÚ_31-25);}.cls-26{fill:url(#_ÂÁ_Ï_ÌÌ_È_ËÂÌÚ_31-26);}.cls-27{fill:url(#_ÂÁ_Ï_ÌÌ_È_ËÂÌÚ_31-27);}.cls-28{fill:url(#_ÂÁ_Ï_ÌÌ_È_ËÂÌÚ_31-28);}.cls-29{fill:url(#_ÂÁ_Ï_ÌÌ_È_ËÂÌÚ_31-29);}.cls-30{fill:url(#_ÂÁ_Ï_ÌÌ_È_ËÂÌÚ_31-30);}.cls-31{fill:url(#_ÂÁ_Ï_ÌÌ_È_ËÂÌÚ_31-31);}.cls-32{fill:url(#_ÂÁ_Ï_ÌÌ_È_ËÂÌÚ_31-32);}.cls-33{fill:url(#_ÂÁ_Ï_ÌÌ_È_ËÂÌÚ_31-33);}.cls-34{fill:url(#_ÂÁ_Ï_ÌÌ_È_ËÂÌÚ_31-34);}.cls-35{fill:url(#_ÂÁ_Ï_ÌÌ_È_ËÂÌÚ_31-35);}.cls-36{fill:url(#_ÂÁ_Ï_ÌÌ_È_ËÂÌÚ_31-36);}.cls-37{fill:url(#_ÂÁ_Ï_ÌÌ_È_ËÂÌÚ_31-37);}.cls-38{fill:url(#_ÂÁ_Ï_ÌÌ_È_ËÂÌÚ_31-38);}.cls-39{fill:url(#_ÂÁ_Ï_ÌÌ_È_ËÂÌÚ_31-39);}.cls-40{fill:url(#_ÂÁ_Ï_ÌÌ_È_ËÂÌÚ_31-40);}.cls-41{fill:url(#_ÂÁ_Ï_ÌÌ_È_ËÂÌÚ_31-41);}.cls-42{fill:url(#_ÂÁ_Ï_ÌÌ_È_ËÂÌÚ_31-42);}.cls-43{fill:url(#_ÂÁ_Ï_ÌÌ_È_ËÂÌÚ_31-43);}.cls-44{fill:url(#_ÂÁ_Ï_ÌÌ_È_ËÂÌÚ_31-44);}.cls-45{fill:url(#_ÂÁ_Ï_ÌÌ_È_ËÂÌÚ_31-45);}.cls-46{fill:url(#_ÂÁ_Ï_ÌÌ_È_ËÂÌÚ_31-46);}.cls-47{fill:url(#_ÂÁ_Ï_ÌÌ_È_ËÂÌÚ_31-47);}.cls-48{fill:url(#_ÂÁ_Ï_ÌÌ_È_ËÂÌÚ_31-48);}.cls-49{fill:url(#_ÂÁ_Ï_ÌÌ_È_ËÂÌÚ_31-49);}.cls-50{fill:url(#_ÂÁ_Ï_ÌÌ_È_ËÂÌÚ_31-50);}.cls-51{fill:url(#_ÂÁ_Ï_ÌÌ_È_ËÂÌÚ_31-51);}.cls-52{fill:url(#_ÂÁ_Ï_ÌÌ_È_ËÂÌÚ_31-52);}.cls-53{fill:url(#_ÂÁ_Ï_ÌÌ_È_ËÂÌÚ_31-53);}.cls-54{fill:url(#_ÂÁ_Ï_ÌÌ_È_ËÂÌÚ_31-54);}.cls-55{fill:url(#_ÂÁ_Ï_ÌÌ_È_ËÂÌÚ_31-55);}.cls-56{fill:url(#_ÂÁ_Ï_ÌÌ_È_ËÂÌÚ_31-56);}.cls-57{fill:url(#_ÂÁ_Ï_ÌÌ_È_ËÂÌÚ_31-57);}.cls-58{fill:url(#_ÂÁ_Ï_ÌÌ_È_ËÂÌÚ_31-58);}.cls-59{fill:url(#_ÂÁ_Ï_ÌÌ_È_ËÂÌÚ_31-59);}.cls-60{fill:url(#_ÂÁ_Ï_ÌÌ_È_ËÂÌÚ_31-60);}.cls-61{fill:url(#_ÂÁ_Ï_ÌÌ_È_ËÂÌÚ_31-61);}.cls-62{fill:url(#_ÂÁ_Ï_ÌÌ_È_ËÂÌÚ_31-62);}.cls-63{fill:url(#_ÂÁ_Ï_ÌÌ_È_ËÂÌÚ_31-63);}.cls-64{fill:url(#_ÂÁ_Ï_ÌÌ_È_ËÂÌÚ_31-64);}.cls-65{fill:url(#_ÂÁ_Ï_ÌÌ_È_ËÂÌÚ_31-65);}.cls-66{fill:url(#_ÂÁ_Ï_ÌÌ_È_ËÂÌÚ_31-66);}.cls-67{fill:url(#_ÂÁ_Ï_ÌÌ_È_ËÂÌÚ_31-67);}.cls-68{fill:url(#_ÂÁ_Ï_ÌÌ_È_ËÂÌÚ_31-68);}.cls-69{fill:url(#_ÂÁ_Ï_ÌÌ_È_ËÂÌÚ_31-69);}.cls-70{fill:url(#_ÂÁ_Ï_ÌÌ_È_ËÂÌÚ_31-70);}.cls-71{fill:url(#_ÂÁ_Ï_ÌÌ_È_ËÂÌÚ_31-71);}.cls-72{fill:url(#_ÂÁ_Ï_ÌÌ_È_ËÂÌÚ_31-72);}.cls-73{fill:url(#_ÂÁ_Ï_ÌÌ_È_ËÂÌÚ_31-73);}.cls-74{fill:url(#_ÂÁ_Ï_ÌÌ_È_ËÂÌÚ_31-74);}.cls-75{fill:url(#_ÂÁ_Ï_ÌÌ_È_ËÂÌÚ_31-75);}.cls-76{fill:url(#_ÂÁ_Ï_ÌÌ_È_ËÂÌÚ_31-76);}.cls-77{fill:url(#_ÂÁ_Ï_ÌÌ_È_ËÂÌÚ_31-77);}.cls-78{fill:url(#_ÂÁ_Ï_ÌÌ_È_ËÂÌÚ_31-78);}.cls-79{fill:url(#_ÂÁ_Ï_ÌÌ_È_ËÂÌÚ_31-79);}.cls-80{fill:url(#_ÂÁ_Ï_ÌÌ_È_ËÂÌÚ_31-80);}.cls-81{fill:url(#_ÂÁ_Ï_ÌÌ_È_ËÂÌÚ_31-81);}.cls-82{fill:url(#_ÂÁ_Ï_ÌÌ_È_ËÂÌÚ_31-82);}.cls-83{fill:url(#_ÂÁ_Ï_ÌÌ_È_ËÂÌÚ_31-83);}.cls-84{fill:url(#_ÂÁ_Ï_ÌÌ_È_ËÂÌÚ_31-84);}.cls-85{fill:url(#_ÂÁ_Ï_ÌÌ_È_ËÂÌÚ_31-85);}</style><linearGradient id="_ÂÁ_Ï_ÌÌ_È_ËÂÌÚ_31" x1="-14.14" y1="140.31" x2="360.84" y2="369.8" gradientUnits="userSpaceOnUse"><stop offset="0" stop-color="#be965d"/><stop offset="0.28" stop-color="#976f40"/><stop offset="0.43" stop-color="#c99b61"/><stop offset="0.56" stop-color="#f0be7b"/><stop offset="0.63" stop-color="#ffcb85"/><stop offset="0.71" stop-color="#eebc79"/><stop offset="0.87" stop-color="#c0935b"/><stop offset="1" stop-color="#976f40"/></linearGradient><linearGradient id="_ÂÁ_Ï_ÌÌ_È_ËÂÌÚ_31-2" x1="-83.56" y1="253.74" x2="291.42" y2="483.23" xlink:href="#_ÂÁ_Ï_ÌÌ_È_ËÂÌÚ_31"/><linearGradient id="_ÂÁ_Ï_ÌÌ_È_ËÂÌÚ_31-3" x1="-55.01" y1="207.09" x2="319.97" y2="436.58" xlink:href="#_ÂÁ_Ï_ÌÌ_È_ËÂÌÚ_31"/><linearGradient id="_ÂÁ_Ï_ÌÌ_È_ËÂÌÚ_31-4" x1="-58.81" y1="213.3" x2="316.17" y2="442.79" xlink:href="#_ÂÁ_Ï_ÌÌ_È_ËÂÌÚ_31"/><linearGradient id="_ÂÁ_Ï_ÌÌ_È_ËÂÌÚ_31-5" x1="-115.5" y1="305.94" x2="259.48" y2="535.42" xlink:href="#_ÂÁ_Ï_ÌÌ_È_ËÂÌÚ_31"/><linearGradient id="_ÂÁ_Ï_ÌÌ_È_ËÂÌÚ_31-6" x1="-101.71" y1="283.4" x2="273.27" y2="512.89" xlink:href="#_ÂÁ_Ï_ÌÌ_È_ËÂÌÚ_31"/><linearGradient id="_ÂÁ_Ï_ÌÌ_È_ËÂÌÚ_31-7" x1="-108.11" y1="293.86" x2="266.87" y2="523.35" xlink:href="#_ÂÁ_Ï_ÌÌ_È_ËÂÌÚ_31"/><linearGradient id="_ÂÁ_Ï_ÌÌ_È_ËÂÌÚ_31-8" x1="-95.85" y1="273.83" x2="279.13" y2="503.31" xlink:href="#_ÂÁ_Ï_ÌÌ_È_ËÂÌÚ_31"/><linearGradient id="_ÂÁ_Ï_ÌÌ_È_ËÂÌÚ_31-9" x1="-123.49" y1="318.99" x2="251.48" y2="548.47" xlink:href="#_ÂÁ_Ï_ÌÌ_È_ËÂÌÚ_31"/><linearGradient id="_ÂÁ_Ï_ÌÌ_È_ËÂÌÚ_31-10" x1="38.01" y1="55.1" x2="412.99" y2="284.59" xlink:href="#_ÂÁ_Ï_ÌÌ_È_ËÂÌÚ_31"/><linearGradient id="_ÂÁ_Ï_ÌÌ_È_ËÂÌÚ_31-11" x1="-24.63" y1="157.44" x2="350.36" y2="386.93" xlink:href="#_ÂÁ_Ï_ÌÌ_È_ËÂÌÚ_31"/><linearGradient id="_ÂÁ_Ï_ÌÌ_È_ËÂÌÚ_31-12" x1="-16.31" y1="143.86" x2="358.67" y2="373.34" xlink:href="#_ÂÁ_Ï_ÌÌ_È_ËÂÌÚ_31"/><linearGradient id="_ÂÁ_Ï_ÌÌ_È_ËÂÌÚ_31-13" x1="26.63" y1="73.69" x2="401.61" y2="303.18" xlink:href="#_ÂÁ_Ï_ÌÌ_È_ËÂÌÚ_31"/><linearGradient id="_ÂÁ_Ï_ÌÌ_È_ËÂÌÚ_31-14" x1="14.59" y1="93.37" x2="389.57" y2="322.86" xlink:href="#_ÂÁ_Ï_ÌÌ_È_ËÂÌÚ_31"/><linearGradient id="_ÂÁ_Ï_ÌÌ_È_ËÂÌÚ_31-15" x1="-83.41" y1="253.5" x2="291.57" y2="482.99" xlink:href="#_ÂÁ_Ï_ÌÌ_È_ËÂÌÚ_31"/><linearGradient id="_ÂÁ_Ï_ÌÌ_È_ËÂÌÚ_31-16" x1="-63" y1="220.15" x2="311.98" y2="449.64" xlink:href="#_ÂÁ_Ï_ÌÌ_È_ËÂÌÚ_31"/><linearGradient id="_ÂÁ_Ï_ÌÌ_È_ËÂÌÚ_31-17" x1="-27.79" y1="162.62" x2="347.19" y2="392.11" xlink:href="#_ÂÁ_Ï_ÌÌ_È_ËÂÌÚ_31"/><linearGradient id="_ÂÁ_Ï_ÌÌ_È_ËÂÌÚ_31-18" x1="-25.41" y1="158.73" x2="349.57" y2="388.22" xlink:href="#_ÂÁ_Ï_ÌÌ_È_ËÂÌÚ_31"/><linearGradient id="_ÂÁ_Ï_ÌÌ_È_ËÂÌÚ_31-19" x1="-44.68" y1="190.21" x2="330.3" y2="419.7" xlink:href="#_ÂÁ_Ï_ÌÌ_È_ËÂÌÚ_31"/><linearGradient id="_ÂÁ_Ï_ÌÌ_È_ËÂÌÚ_31-20" x1="-11.82" y1="136.52" x2="363.16" y2="366.01" xlink:href="#_ÂÁ_Ï_ÌÌ_È_ËÂÌÚ_31"/><linearGradient id="_ÂÁ_Ï_ÌÌ_È_ËÂÌÚ_31-21" x1="-20.88" y1="151.32" x2="354.1" y2="380.81" xlink:href="#_ÂÁ_Ï_ÌÌ_È_ËÂÌÚ_31"/><linearGradient id="_ÂÁ_Ï_ÌÌ_È_ËÂÌÚ_31-22" x1="-104.93" y1="288.46" x2="176.97" y2="460.98" xlink:href="#_ÂÁ_Ï_ÌÌ_È_ËÂÌÚ_31"/><linearGradient id="_ÂÁ_Ï_ÌÌ_È_ËÂÌÚ_31-23" x1="-108.42" y1="293.9" x2="141.64" y2="446.94" xlink:href="#_ÂÁ_Ï_ÌÌ_È_ËÂÌÚ_31"/><linearGradient id="_ÂÁ_Ï_ÌÌ_È_ËÂÌÚ_31-24" x1="-104.21" y1="287.84" x2="97.34" y2="411.19" xlink:href="#_ÂÁ_Ï_ÌÌ_È_ËÂÌÚ_31"/><linearGradient id="_ÂÁ_Ï_ÌÌ_È_ËÂÌÚ_31-25" x1="-109.41" y1="295.37" x2="93.4" y2="419.49" xlink:href="#_ÂÁ_Ï_ÌÌ_È_ËÂÌÚ_31"/><linearGradient id="_ÂÁ_Ï_ÌÌ_È_ËÂÌÚ_31-26" x1="-24.48" y1="157.18" x2="350.53" y2="386.69" xlink:href="#_ÂÁ_Ï_ÌÌ_È_ËÂÌÚ_31"/><linearGradient id="_ÂÁ_Ï_ÌÌ_È_ËÂÌÚ_31-27" x1="-39.05" y1="181.2" x2="335.79" y2="410.6" xlink:href="#_ÂÁ_Ï_ÌÌ_È_ËÂÌÚ_31"/><linearGradient id="_ÂÁ_Ï_ÌÌ_È_ËÂÌÚ_31-28" x1="29.91" y1="68.34" x2="404.89" y2="297.83" xlink:href="#_ÂÁ_Ï_ÌÌ_È_ËÂÌÚ_31"/><linearGradient id="_ÂÁ_Ï_ÌÌ_È_ËÂÌÚ_31-29" x1="6.35" y1="106.84" x2="381.33" y2="336.32" xlink:href="#_ÂÁ_Ï_ÌÌ_È_ËÂÌÚ_31"/><linearGradient id="_ÂÁ_Ï_ÌÌ_È_ËÂÌÚ_31-30" x1="-24.04" y1="156.42" x2="351.06" y2="385.99" xlink:href="#_ÂÁ_Ï_ÌÌ_È_ËÂÌÚ_31"/><linearGradient id="_ÂÁ_Ï_ÌÌ_È_ËÂÌÚ_31-31" x1="-43.95" y1="189.26" x2="330.86" y2="418.64" xlink:href="#_ÂÁ_Ï_ÌÌ_È_ËÂÌÚ_31"/><linearGradient id="_ÂÁ_Ï_ÌÌ_È_ËÂÌÚ_31-32" x1="-54.76" y1="206.68" x2="320.23" y2="436.17" xlink:href="#_ÂÁ_Ï_ÌÌ_È_ËÂÌÚ_31"/><linearGradient id="_ÂÁ_Ï_ÌÌ_È_ËÂÌÚ_31-33" x1="-10.3" y1="134.04" x2="364.68" y2="363.53" xlink:href="#_ÂÁ_Ï_ÌÌ_È_ËÂÌÚ_31"/><linearGradient id="_ÂÁ_Ï_ÌÌ_È_ËÂÌÚ_31-34" x1="-14.33" y1="140.62" x2="360.65" y2="370.11" xlink:href="#_ÂÁ_Ï_ÌÌ_È_ËÂÌÚ_31"/><linearGradient id="_ÂÁ_Ï_ÌÌ_È_ËÂÌÚ_31-35" x1="-37.44" y1="178.38" x2="337.54" y2="407.87" xlink:href="#_ÂÁ_Ï_ÌÌ_È_ËÂÌÚ_31"/><linearGradient id="_ÂÁ_Ï_ÌÌ_È_ËÂÌÚ_31-36" x1="42.86" y1="47.17" x2="417.84" y2="276.66" xlink:href="#_ÂÁ_Ï_ÌÌ_È_ËÂÌÚ_31"/><linearGradient id="_ÂÁ_Ï_ÌÌ_È_ËÂÌÚ_31-37" x1="19.35" y1="85.59" x2="394.33" y2="315.08" xlink:href="#_ÂÁ_Ï_ÌÌ_È_ËÂÌÚ_31"/><linearGradient id="_ÂÁ_Ï_ÌÌ_È_ËÂÌÚ_31-38" x1="57.07" y1="23.96" x2="432.05" y2="253.45" xlink:href="#_ÂÁ_Ï_ÌÌ_È_ËÂÌÚ_31"/><linearGradient id="_ÂÁ_Ï_ÌÌ_È_ËÂÌÚ_31-39" x1="32.26" y1="64.49" x2="407.24" y2="293.98" xlink:href="#_ÂÁ_Ï_ÌÌ_È_ËÂÌÚ_31"/><linearGradient id="_ÂÁ_Ï_ÌÌ_È_ËÂÌÚ_31-40" x1="68.43" y1="5.38" x2="443.42" y2="234.87" xlink:href="#_ÂÁ_Ï_ÌÌ_È_ËÂÌÚ_31"/><linearGradient id="_ÂÁ_Ï_ÌÌ_È_ËÂÌÚ_31-41" x1="42.6" y1="47.6" x2="417.58" y2="277.09" xlink:href="#_ÂÁ_Ï_ÌÌ_È_ËÂÌÚ_31"/><linearGradient id="_ÂÁ_Ï_ÌÌ_È_ËÂÌÚ_31-42" x1="77.53" y1="-9.48" x2="452.51" y2="220.01" xlink:href="#_ÂÁ_Ï_ÌÌ_È_ËÂÌÚ_31"/><linearGradient id="_ÂÁ_Ï_ÌÌ_È_ËÂÌÚ_31-43" x1="50.86" y1="34.1" x2="425.84" y2="263.59" xlink:href="#_ÂÁ_Ï_ÌÌ_È_ËÂÌÚ_31"/><linearGradient id="_ÂÁ_Ï_ÌÌ_È_ËÂÌÚ_31-44" x1="-30.85" y1="167.36" x2="150.25" y2="278.2" xlink:href="#_ÂÁ_Ï_ÌÌ_È_ËÂÌÚ_31"/><linearGradient id="_ÂÁ_Ï_ÌÌ_È_ËÂÌÚ_31-45" x1="130.97" y1="324.24" x2="250.6" y2="397.46" xlink:href="#_ÂÁ_Ï_ÌÌ_È_ËÂÌÚ_31"/><linearGradient id="_ÂÁ_Ï_ÌÌ_È_ËÂÌÚ_31-46" x1="84.81" y1="-21.37" x2="459.79" y2="208.12" xlink:href="#_ÂÁ_Ï_ÌÌ_È_ËÂÌÚ_31"/><linearGradient id="_ÂÁ_Ï_ÌÌ_È_ËÂÌÚ_31-47" x1="57.48" y1="23.29" x2="432.46" y2="252.78" xlink:href="#_ÂÁ_Ï_ÌÌ_È_ËÂÌÚ_31"/><linearGradient id="_ÂÁ_Ï_ÌÌ_È_ËÂÌÚ_31-48" x1="90.62" y1="-30.88" x2="465.61" y2="198.61" xlink:href="#_ÂÁ_Ï_ÌÌ_È_ËÂÌÚ_31"/><linearGradient id="_ÂÁ_Ï_ÌÌ_È_ËÂÌÚ_31-49" x1="62.76" y1="14.65" x2="437.75" y2="244.14" xlink:href="#_ÂÁ_Ï_ÌÌ_È_ËÂÌÚ_31"/><linearGradient id="_ÂÁ_Ï_ÌÌ_È_ËÂÌÚ_31-50" x1="-6.99" y1="128.62" x2="368" y2="358.11" xlink:href="#_ÂÁ_Ï_ÌÌ_È_ËÂÌÚ_31"/><linearGradient id="_ÂÁ_Ï_ÌÌ_È_ËÂÌÚ_31-51" x1="48.39" y1="38.13" x2="423.37" y2="267.62" xlink:href="#_ÂÁ_Ï_ÌÌ_È_ËÂÌÚ_31"/><linearGradient id="_ÂÁ_Ï_ÌÌ_È_ËÂÌÚ_31-52" x1="29.1" y1="69.66" x2="404.08" y2="299.15" xlink:href="#_ÂÁ_Ï_ÌÌ_È_ËÂÌÚ_31"/><linearGradient id="_ÂÁ_Ï_ÌÌ_È_ËÂÌÚ_31-53" x1="-18.4" y1="147.27" x2="356.58" y2="376.76" xlink:href="#_ÂÁ_Ï_ÌÌ_È_ËÂÌÚ_31"/><linearGradient id="_ÂÁ_Ï_ÌÌ_È_ËÂÌÚ_31-54" x1="95.28" y1="-38.48" x2="470.26" y2="191" xlink:href="#_ÂÁ_Ï_ÌÌ_È_ËÂÌÚ_31"/><linearGradient id="_ÂÁ_Ï_ÌÌ_È_ËÂÌÚ_31-55" x1="67" y1="7.73" x2="441.98" y2="237.22" xlink:href="#_ÂÁ_Ï_ÌÌ_È_ËÂÌÚ_31"/><linearGradient id="_ÂÁ_Ï_ÌÌ_È_ËÂÌÚ_31-56" x1="24.2" y1="77.66" x2="399.18" y2="307.15" xlink:href="#_ÂÁ_Ï_ÌÌ_È_ËÂÌÚ_31"/><linearGradient id="_ÂÁ_Ï_ÌÌ_È_ËÂÌÚ_31-57" x1="-23.05" y1="154.87" x2="351.93" y2="384.35" xlink:href="#_ÂÁ_Ï_ÌÌ_È_ËÂÌÚ_31"/><linearGradient id="_ÂÁ_Ï_ÌÌ_È_ËÂÌÚ_31-58" x1="-13.31" y1="138.96" x2="361.67" y2="368.44" xlink:href="#_ÂÁ_Ï_ÌÌ_È_ËÂÌÚ_31"/><linearGradient id="_ÂÁ_Ï_ÌÌ_È_ËÂÌÚ_31-59" x1="-56.55" y1="209.61" x2="318.43" y2="439.1" xlink:href="#_ÂÁ_Ï_ÌÌ_È_ËÂÌÚ_31"/><linearGradient id="_ÂÁ_Ï_ÌÌ_È_ËÂÌÚ_31-60" x1="-50.86" y1="200.3" x2="324.13" y2="429.79" xlink:href="#_ÂÁ_Ï_ÌÌ_È_ËÂÌÚ_31"/><linearGradient id="_ÂÁ_Ï_ÌÌ_È_ËÂÌÚ_31-61" x1="-21.33" y1="152.06" x2="353.65" y2="381.55" xlink:href="#_ÂÁ_Ï_ÌÌ_È_ËÂÌÚ_31"/><linearGradient id="_ÂÁ_Ï_ÌÌ_È_ËÂÌÚ_31-62" x1="-59.1" y1="214.35" x2="315.54" y2="443.63" xlink:href="#_ÂÁ_Ï_ÌÌ_È_ËÂÌÚ_31"/><linearGradient id="_ÂÁ_Ï_ÌÌ_È_ËÂÌÚ_31-63" x1="-22.93" y1="154.68" x2="352.03" y2="384.15" xlink:href="#_ÂÁ_Ï_ÌÌ_È_ËÂÌÚ_31"/><linearGradient id="_ÂÁ_Ï_ÌÌ_È_ËÂÌÚ_31-64" x1="-23.69" y1="155.92" x2="351.28" y2="385.41" xlink:href="#_ÂÁ_Ï_ÌÌ_È_ËÂÌÚ_31"/><linearGradient id="_ÂÁ_Ï_ÌÌ_È_ËÂÌÚ_31-65" x1="-56.49" y1="209.49" x2="318.5" y2="438.98" xlink:href="#_ÂÁ_Ï_ÌÌ_È_ËÂÌÚ_31"/><linearGradient id="_ÂÁ_Ï_ÌÌ_È_ËÂÌÚ_31-66" x1="-57.64" y1="211.71" x2="317.15" y2="441.08" xlink:href="#_ÂÁ_Ï_ÌÌ_È_ËÂÌÚ_31"/><linearGradient id="_ÂÁ_Ï_ÌÌ_È_ËÂÌÚ_31-67" x1="-21.88" y1="152.95" x2="353.11" y2="382.44" xlink:href="#_ÂÁ_Ï_ÌÌ_È_ËÂÌÚ_31"/><linearGradient id="_ÂÁ_Ï_ÌÌ_È_ËÂÌÚ_31-68" x1="-22.33" y1="153.69" x2="352.66" y2="383.18" xlink:href="#_ÂÁ_Ï_ÌÌ_È_ËÂÌÚ_31"/><linearGradient id="_ÂÁ_Ï_ÌÌ_È_ËÂÌÚ_31-69" x1="-56.07" y1="208.82" x2="318.91" y2="438.31" xlink:href="#_ÂÁ_Ï_ÌÌ_È_ËÂÌÚ_31"/><linearGradient id="_ÂÁ_Ï_ÌÌ_È_ËÂÌÚ_31-70" x1="288.14" y1="304.37" x2="440.64" y2="397.71" xlink:href="#_ÂÁ_Ï_ÌÌ_È_ËÂÌÚ_31"/><linearGradient id="_ÂÁ_Ï_ÌÌ_È_ËÂÌÚ_31-71" x1="53.59" y1="29.88" x2="151.33" y2="89.69" xlink:href="#_ÂÁ_Ï_ÌÌ_È_ËÂÌÚ_31"/><linearGradient id="_ÂÁ_Ï_ÌÌ_È_ËÂÌÚ_31-72" x1="49.23" y1="36.77" x2="178.67" y2="115.99" xlink:href="#_ÂÁ_Ï_ÌÌ_È_ËÂÌÚ_31"/><linearGradient id="_ÂÁ_Ï_ÌÌ_È_ËÂÌÚ_31-73" x1="309.42" y1="281.32" x2="379.33" y2="324.09" xlink:href="#_ÂÁ_Ï_ÌÌ_È_ËÂÌÚ_31"/><linearGradient id="_ÂÁ_Ï_ÌÌ_È_ËÂÌÚ_31-74" x1="1.05" y1="115.65" x2="375.96" y2="345.09" xlink:href="#_ÂÁ_Ï_ÌÌ_È_ËÂÌÚ_31"/><linearGradient id="_ÂÁ_Ï_ÌÌ_È_ËÂÌÚ_31-75" x1="57.16" y1="23.83" x2="432.04" y2="253.26" xlink:href="#_ÂÁ_Ï_ÌÌ_È_ËÂÌÚ_31"/><linearGradient id="_ÂÁ_Ï_ÌÌ_È_ËÂÌÚ_31-76" x1="54.11" y1="28.79" x2="429.17" y2="258.32" xlink:href="#_ÂÁ_Ï_ÌÌ_È_ËÂÌÚ_31"/><linearGradient id="_ÂÁ_Ï_ÌÌ_È_ËÂÌÚ_31-77" x1="12.45" y1="96.87" x2="387.43" y2="326.35" xlink:href="#_ÂÁ_Ï_ÌÌ_È_ËÂÌÚ_31"/><linearGradient id="_ÂÁ_Ï_ÌÌ_È_ËÂÌÚ_31-78" x1="10.98" y1="99.36" x2="385.92" y2="328.82" xlink:href="#_ÂÁ_Ï_ÌÌ_È_ËÂÌÚ_31"/><linearGradient id="_ÂÁ_Ï_ÌÌ_È_ËÂÌÚ_31-79" x1="63.14" y1="14.03" x2="438.12" y2="243.52" xlink:href="#_ÂÁ_Ï_ÌÌ_È_ËÂÌÚ_31"/><linearGradient id="_ÂÁ_Ï_ÌÌ_È_ËÂÌÚ_31-80" x1="62.3" y1="15.4" x2="437.28" y2="244.88" xlink:href="#_ÂÁ_Ï_ÌÌ_È_ËÂÌÚ_31"/><linearGradient id="_ÂÁ_Ï_ÌÌ_È_ËÂÌÚ_31-81" x1="14.09" y1="94.17" x2="389.08" y2="323.66" xlink:href="#_ÂÁ_Ï_ÌÌ_È_ËÂÌÚ_31"/><linearGradient id="_ÂÁ_Ï_ÌÌ_È_ËÂÌÚ_31-82" x1="12.76" y1="96.95" x2="345.95" y2="300.86" xlink:href="#_ÂÁ_Ï_ÌÌ_È_ËÂÌÚ_31"/><linearGradient id="_ÂÁ_Ï_ÌÌ_È_ËÂÌÚ_31-83" x1="64.2" y1="12.3" x2="439.17" y2="241.78" xlink:href="#_ÂÁ_Ï_ÌÌ_È_ËÂÌÚ_31"/><linearGradient id="_ÂÁ_Ï_ÌÌ_È_ËÂÌÚ_31-84" x1="63.66" y1="13.17" x2="438.72" y2="242.71" xlink:href="#_ÂÁ_Ï_ÌÌ_È_ËÂÌÚ_31"/><linearGradient id="_ÂÁ_Ï_ÌÌ_È_ËÂÌÚ_31-85" x1="14.51" y1="93.46" x2="389.51" y2="322.96" xlink:href="#_ÂÁ_Ï_ÌÌ_È_ËÂÌÚ_31"/></defs><title>Asset 1</title><g id="Layer_2" data-name="Layer 2"><g id="ornametn"><path class="cls-1" d="M269.91,397.4l-.4,0c-1.28-4-2.64-7.9-4-11.82A44.1,44.1,0,0,0,290,374.81c9.05-8.15,13.79-19.8,21.29-29.2l-.63-1.52c-11.95-1.34-23.54-6.23-35.7-5.59a44.08,44.08,0,0,0-25,9.73c-1.78-3.76-3.6-7.51-5.5-11.22l.3-.26-1-1.18q-2.58-5-5.32-10l.33-.32-1.1-1.1c-1.42-2.57-2.87-5.11-4.35-7.65a81.83,81.83,0,0,1,25.86-18.17A73,73,0,0,1,272,294.18l-.38-1.69a40.58,40.58,0,0,1-1.68-4.95c-.45-2.05-.48-4.1.64-5.47L269,280.52v0h0l-1-2.27a12.19,12.19,0,0,1-15.47-2.64c-.26-.33-.51-.67-.74-1a13.35,13.35,0,0,1-.7-1.2,12.24,12.24,0,0,1,3.38-14.95l-1.55-1.95a0,0,0,0,0,0,0h0l-.54-2.17c-1.5.57-3.17,0-4.73-.91-.34-.22-.66-.44-1-.69l-1,1.34c2.72,2.09,4.59,4.82,1.68,7.92-2.47,2.65-5.11,1.54-7.35-.49a34.74,34.74,0,0,1-3.67-4.29c.15-.15.29-.3.43-.46l-1.1-1-1,1c-.6.61-1.2,1.23-1.81,1.83-.19.18-.38.38-.57.55s-.6.55-.9.82a81.77,81.77,0,0,1-25.46,15.76c-1.78-2.35-3.6-4.66-5.42-7a70.77,70.77,0,0,0,22.16-14l-1.08-1.17a71.77,71.77,0,0,1-22.09,14q-3.54-4.41-7.2-8.73l1.08-.51-.92-1.3-1.2.57c-2.7-3.16-5.47-6.28-8.27-9.36a44,44,0,0,0,19.5-21.32c4.41-10.56,4.52-22.3,7.67-33.22L209,192.43c-10.92,3.15-22.66,3.26-33.22,7.67a43.92,43.92,0,0,0-21.32,19.5c-3.09-2.8-6.2-5.57-9.36-8.27.19-.41.37-.8.57-1.2l-1.3-.93-.51,1.09q-4.32-3.66-8.73-7.2a71.77,71.77,0,0,1,14-22.09l-1.17-1.08a70.77,70.77,0,0,0-14,22.16c-2.31-1.82-4.62-3.64-7-5.42a81.77,81.77,0,0,1,15.76-25.46c.27-.3.54-.61.82-.9s.37-.38.55-.57c.6-.61,1.22-1.21,1.83-1.81l1-1-1-1.11-.46.44a34.74,34.74,0,0,1-4.29-3.67c-2-2.24-3.14-4.88-.49-7.35,3.09-2.91,5.83-1,7.92,1.67l1.34-1c-.25-.32-.47-.65-.69-1-1-1.56-1.48-3.23-.91-4.74l-2.18-.53v0h0l-2-1.55a12.24,12.24,0,0,1-14.95,3.38c-.41-.22-.8-.44-1.2-.7s-.68-.48-1-.74a12.19,12.19,0,0,1-2.64-15.47l-2.27-1s0,0,0,0h0l0,0L120.51,132c-1.37,1.12-3.42,1.09-5.47.64a40.58,40.58,0,0,1-5-1.68l-1.7-.38a73,73,0,0,1-4.17,12.87,81.83,81.83,0,0,1-18.17,25.86c-2.54-1.48-5.08-2.93-7.65-4.35l-1.1-1.1-.32.32q-5-2.73-10-5.31l-1.18-1.05-.26.3c-3.71-1.9-7.46-3.72-11.22-5.5a44.15,44.15,0,0,0,9.73-25c.64-12.17-4.25-23.75-5.59-35.7L57,91.27c-9.4,7.5-21,12.24-29.2,21.29A44.1,44.1,0,0,0,17,137.11c-3.92-1.4-7.86-2.76-11.82-4,0-.13,0-.27,0-.4l-1.57-.09c-1.2-.39-2.41-.76-3.61-1.13v5.1a5.69,5.69,0,0,1,.42,4.07l1.88.44A5.1,5.1,0,0,1,9,137.82a5.51,5.51,0,0,1,3.36,6.94l1.64.1a5.46,5.46,0,0,1,6.8-2.82,5.38,5.38,0,0,1,3.27,3.43,8,8,0,0,1-.08,3.65c-.05.13-.08.26-.14.38a5.32,5.32,0,0,1-1.76,2.06l2,1.76c2.45-1.43,5-2.7,7.53-4,.94-.47,1.87-1,2.8-1.45.31,1,.63,2,1,3,.88,2.68,1.79,5.39,2.52,8.14l2.65.16a5.24,5.24,0,0,1,.21-2.7,3,3,0,0,1,.17-.37,8.06,8.06,0,0,1,2.52-2.64,5.37,5.37,0,0,1,4.74-.11,5.45,5.45,0,0,1,2.81,6.8l1.24,1.09a5.5,5.5,0,0,1,7.28-2.53,5.1,5.1,0,0,1,2.44,7l1.64,1a5.26,5.26,0,1,1,9.32,4.86l1.66,1a5.26,5.26,0,1,1,9.11,5.26L85.23,179a5.12,5.12,0,0,1,7.4-1.92,5.06,5.06,0,0,1,2.43,3.22,8.15,8.15,0,0,1-.18,2.79,6,6,0,0,1-3.56,3.68l.91,2.51c3.07-1.15,6.27-2,9.45-2.91,1-.29,2.06-.6,3.1-.9.11,1,.21,2.06.34,3.1.4,3.31.84,6.64,1,10l2.58.25a5.22,5.22,0,0,1,.6-3.56,5.09,5.09,0,0,1,.34-.47,8.29,8.29,0,0,1,2.85-2,5.42,5.42,0,0,1,4.71.76,5,5,0,0,1,1.09,7.48l1.37,1.07a.4.4,0,0,0,.1-.12,5.49,5.49,0,0,1,7.56-.89,5.09,5.09,0,0,1,.79,7.58l1.52,1.22a5.48,5.48,0,0,1,7.58-1,5.59,5.59,0,0,1,1.09,7.23l-.3.41,1.36,1.07a5,5,0,0,1,7.44-.61,5.14,5.14,0,0,1,.53,7.47l1.42,1.31a5,5,0,0,1,7.43-.31,5.16,5.16,0,0,1,1.77,3.87c0,.1,0,.19,0,.28s0,.22,0,.33a7.92,7.92,0,0,1-.49,1.59,6,6,0,0,1-4.1,3.2l1.47,2.44c2.8-.39,5.64-.59,8.48-.8l3.26-.29c-.1,1.09-.2,2.17-.29,3.26-.21,2.84-.41,5.68-.8,8.47l2.44,1.48a6,6,0,0,1,3.2-4.1,7.92,7.92,0,0,1,1.59-.49l.33,0,.28,0a5.16,5.16,0,0,1,3.87,1.77,5,5,0,0,1-.32,7.43l1.32,1.42a5.14,5.14,0,0,1,7.47.53,5,5,0,0,1-.61,7.44l1.07,1.36.41-.3a5.59,5.59,0,0,1,7.23,1.09,5.49,5.49,0,0,1-1,7.58l1.22,1.52a5.09,5.09,0,0,1,7.58.79,5.49,5.49,0,0,1-.89,7.56l-.13.1,1.08,1.37a5,5,0,0,1,7.48,1.09,5.45,5.45,0,0,1,.76,4.71,8.38,8.38,0,0,1-2,2.85,5.09,5.09,0,0,1-.47.34,5.22,5.22,0,0,1-3.56.6l.25,2.58c3.32.12,6.65.56,10,1,1,.13,2.07.23,3.1.34-.3,1-.61,2.06-.9,3.1-.89,3.18-1.77,6.38-2.91,9.45l2.51.91a6,6,0,0,1,3.68-3.56,7.9,7.9,0,0,1,2.79-.18,5.06,5.06,0,0,1,3.22,2.43,5.13,5.13,0,0,1-1.92,7.4l1.14,1.56a5.26,5.26,0,1,1,5.26,9.11l1,1.66A5.26,5.26,0,1,1,235.8,339l1,1.64a5.1,5.1,0,0,1,7,2.44,5.51,5.51,0,0,1-2.53,7.28l1.09,1.23a5.47,5.47,0,0,1,6.8,2.82,5.37,5.37,0,0,1-.11,4.74,8.06,8.06,0,0,1-2.64,2.52,3,3,0,0,1-.37.17,5.24,5.24,0,0,1-2.7.21l.16,2.65c2.75.73,5.46,1.64,8.14,2.52,1,.33,2,.65,3,1-.49.93-1,1.86-1.45,2.8-1.27,2.52-2.54,5.08-4,7.53l1.76,2a5.32,5.32,0,0,1,2.06-1.76c.12-.06.25-.09.38-.14a8,8,0,0,1,3.65-.08,5.38,5.38,0,0,1,3.43,3.27,5.46,5.46,0,0,1-2.82,6.8l.1,1.64a5.51,5.51,0,0,1,6.94,3.36,5.1,5.1,0,0,1-3.24,6.69l.44,1.88a5.41,5.41,0,0,1,5.94,2.09h3.75q-.79-2.64-1.65-5.28Zm-125.62-230-.06.06a1.37,1.37,0,0,0-.15-.21ZM35.11,144.06q-8-3.3-16.2-6.25a41.59,41.59,0,0,1,14.68-27.66c6.7-5.62,14.6-9.54,21.65-14.7Zm17.38,7.66q-7.86-3.69-15.87-7L56.75,96.07c1.34,8.64,4.16,17,4.92,25.71A41.59,41.59,0,0,1,52.49,151.72Zm78.91,11.84c2.7-3.1,5.61-1.78,8,.51a37.07,37.07,0,0,1,3.69,4.46c-.26.27-.53.52-.78.79-1.58,1.64-3.07,3.36-4.5,5.14a41.09,41.09,0,0,1-4.76-3C130.46,169.37,128.71,166.64,131.4,163.56Zm.9,9.69a40.52,40.52,0,0,1,3.73,3.51,76.85,76.85,0,0,0-4.5,6.75,35.17,35.17,0,0,1-4.88-2.32c-3-1.87-5-4.53-2.15-8.06C126.81,170.26,129.74,171.31,132.3,173.25Zm-6.55-19.16c2.44,2,3.58,5.26,2,8.2a6.46,6.46,0,0,1-8.41,2.83c-.21-.12-.43-.24-.65-.38l-.11-.08a6.38,6.38,0,0,1-1.76-8.43A6.5,6.5,0,0,1,125.75,154.09Zm-16.34-20.73a34.76,34.76,0,0,1,5.37.95c3.46,1.07,6.21,3.17,3.84,7.39-1.5,2.68-4.27,2.44-6.92,1.4a37.7,37.7,0,0,1-4.69-2.49C107.93,138.24,108.73,135.81,109.41,133.36Zm-3,8.71.18.11-.2-.05S106.41,142.09,106.41,142.07ZM105.2,145c.08-.16.15-.33.22-.5s.25-.59.37-.89a42.92,42.92,0,0,1,4.68,1.37c3.63,1.43,6.67,3.85,4.08,8.12-1.73,2.86-4.44,2.54-7,1.26a34.61,34.61,0,0,1-5.18-3.6C103.37,148.85,104.34,146.94,105.2,145Zm4.69,11.94,0,0h0Zm-8.82,16.39c-2.82,3.19-5.83,1.81-8.34-.57a38.94,38.94,0,0,1-3.57-4.31,81.85,81.85,0,0,0,5.57-6.25,37,37,0,0,1,4.63,2.93C102.06,167.29,103.86,170.11,101.07,173.3Zm2.32-6.23,0,0h0Zm-3.22-3.52A37.86,37.86,0,0,1,96.39,160a80.68,80.68,0,0,0,4.52-6.73,33,33,0,0,1,4.9,2.3c3,1.85,5,4.47,2.15,8C105.67,166.49,102.74,165.46,100.17,163.55Zm8.68,17.5c-.26-.13-.5-.28-.75-.43a7.79,7.79,0,0,1-.65-.48,7.45,7.45,0,0,1-1.49-9.37,7.55,7.55,0,0,1,10.32-2.5c2.81,2.29,4.1,6.11,2.3,9.49A7.48,7.48,0,0,1,108.85,181.05Zm13.2,11c-3.77-1.46-6.93-4-4.26-8.39,1.79-3,4.6-2.65,7.29-1.34a35.31,35.31,0,0,1,5.12,3.52,79.24,79.24,0,0,0-3.65,7.53A40.58,40.58,0,0,1,122.05,192.07ZM168.46,233q-6.12-6.12-12.51-12a41.69,41.69,0,0,1,24.1-20,100.39,100.39,0,0,1,14.16-3c1.71-.29,8.93-2.42,11.64-2.42Q187.15,214.25,168.46,233Zm13.13,13.67q-5.85-6.36-12-12.5L207,196.73c0,2.71-2.13,9.93-2.42,11.64a100.39,100.39,0,0,1-3,14.16A41.65,41.65,0,0,1,181.59,246.62Zm61,59.57a37.86,37.86,0,0,1-3.52-3.78c-1.91-2.57-2.94-5.5-.05-7.79,3.52-2.8,6.15-.8,8,2.15a33,33,0,0,1,2.3,4.9A76,76,0,0,0,242.55,306.19Zm3.12-13.5h0v0Zm14.78,3.5a1.46,1.46,0,0,0-.05-.2l.11.17Zm.43-12.23c4.22-2.37,6.32.38,7.38,3.84a33.72,33.72,0,0,1,1,5.37c-2.45.68-4.88,1.48-7.26,2.4a39.14,39.14,0,0,1-2.48-4.69C258.44,288.23,258.2,285.46,260.88,284Zm-3.25,8.15a42.67,42.67,0,0,1,1.36,4.68l-.88.37-.5.22c-2,.86-3.88,1.83-5.76,2.86a34.61,34.61,0,0,1-3.6-5.18c-1.28-2.59-1.6-5.3,1.26-7C253.78,285.44,256.2,288.48,257.63,292.11Zm-9.14-15.28a6.5,6.5,0,0,1-2.15,8.92,6.37,6.37,0,0,1-8.42-1.76l-.08-.12c-.14-.21-.26-.43-.38-.64a6.45,6.45,0,0,1,2.83-8.41C243.23,273.25,246.51,274.39,248.49,276.83Zm-13.28-18.54.15.21a1.37,1.37,0,0,0-.21-.15Zm-2,1.94.79-.78a37.86,37.86,0,0,1,4.46,3.69c2.29,2.43,3.61,5.34.51,8s-5.81.94-7.92-1.69a39.77,39.77,0,0,1-3-4.76C229.9,263.3,231.62,261.81,233.26,260.23Zm2.27,39,0,0h0S235.53,299.2,235.53,299.22Zm-9.71-32.67a40.52,40.52,0,0,1,3.51,3.73c1.94,2.56,3,5.49.11,7.8-3.52,2.85-6.18.81-8.05-2.15a35.17,35.17,0,0,1-2.32-4.88A79.15,79.15,0,0,0,225.82,266.55Zm-6.92,18.24c-4.43,2.67-6.93-.49-8.39-4.26a40.58,40.58,0,0,1-1.32-4.5,79.24,79.24,0,0,0,7.53-3.65,34.77,34.77,0,0,1,3.52,5.12C221.55,280.19,221.87,283,218.9,284.79Zm3.54,10.33a5.47,5.47,0,0,1-.48-.65c-.15-.24-.3-.48-.43-.74a7.49,7.49,0,0,1,3.29-9.74c3.38-1.79,7.2-.5,9.49,2.31a7.55,7.55,0,0,1-2.5,10.32A7.44,7.44,0,0,1,222.44,295.12Zm7.41,14.73c-2.39-2.51-3.76-5.53-.57-8.34s6-1,8.2,1.71a38.17,38.17,0,0,1,2.93,4.63,80,80,0,0,0-6.25,5.57A38.94,38.94,0,0,1,229.85,309.85Zm21,40.24a41.59,41.59,0,0,1,29.94-9.18c8.71.76,17.07,3.58,25.7,4.91Q282.22,355.9,257.9,366,254.54,358,250.86,350.09Zm13.91,33.58q-3-8.16-6.25-16.2l48.61-20.13c-5.16,7.05-9.08,15-14.7,21.65A41.59,41.59,0,0,1,264.77,383.67Z"/><path class="cls-2" d="M159.93,402.27a4.75,4.75,0,0,0-2.17,2h1.93a3,3,0,0,1,1.2-.69,3.1,3.1,0,0,1,3,.69h2A4.78,4.78,0,0,0,159.93,402.27Z"/><path class="cls-3" d="M0,238.32v4.88a4.88,4.88,0,0,0,.31-.55A4.66,4.66,0,0,0,0,238.32Z"/><path class="cls-4" d="M214.72,384.73a.73.73,0,0,0-.51-.46c-9.86-1.82-19.28-6.84-29.45-6.83a30.16,30.16,0,0,0-19.34,7.26A12,12,0,0,0,164,379a39.92,39.92,0,0,1,6.73-4.35l-.69-1.41a38.59,38.59,0,0,0-6.51,4.09c-.51-.45-1.05-1-1.63-1.56-.33-.4-.67-.75-1-1.09s-.51-.58-.76-.88c-1.9-2.47-3-5.31-.21-7.57,2.4-1.95,4.4-1.52,6-.08L167,365c-2.13-2.26-4.85-3.3-8.17-.88a5.63,5.63,0,0,0-2.46,3.58,15.93,15.93,0,0,1-3.86.19,10,10,0,0,0,1.09-4.93,30.47,30.47,0,0,0,17-12.17c5.63-8.37,6.67-19,10.58-28.1a.78.78,0,0,0-.67-1.16c-9.42.12-18.9-2.57-28.32-1.26a30.35,30.35,0,0,0-19.51,11.31,9.94,9.94,0,0,0-5-.91,20,20,0,0,1,.94-2.24l-1.31-.82a28.77,28.77,0,0,0-1.36,3.28,18.4,18.4,0,0,0-4.31,1.53,13.86,13.86,0,0,0,3.6-8.23l1.19-1a12.54,12.54,0,0,1-1.09-1.52c-.33-.56-.63-1.13-.91-1.72-.11-.25-.24-.52-.37-.79-.36-.8-.66-1.57-.93-2.26a38.59,38.59,0,0,0,6-4.24l-1-1.23a38.53,38.53,0,0,1-6.38,4.4A13,13,0,0,0,117,312.3a30.15,30.15,0,0,0,14.2-15.22c3.85-9.31,2.83-19.92,4.89-29.62a.79.79,0,0,0-.95-.95c-9.7,2.06-20.31,1-29.62,4.89a30.15,30.15,0,0,0-15.22,14.2,13,13,0,0,0-3.52-4.75,38.53,38.53,0,0,1,4.4-6.38l-1.23-1a38.59,38.59,0,0,0-4.24,6c-.69-.27-1.46-.57-2.26-.93-.27-.13-.54-.26-.8-.37-.58-.28-1.15-.58-1.71-.91a12.54,12.54,0,0,1-1.52-1.09l-1,1.19A13.74,13.74,0,0,0,70.2,281a17.92,17.92,0,0,0,1.52-4.31A28.18,28.18,0,0,0,75,275.29L74.19,274a20,20,0,0,1-2.24.94,10.05,10.05,0,0,0-.91-5,30.35,30.35,0,0,0,11.31-19.51c1.31-9.42-1.38-18.9-1.26-28.32a.79.79,0,0,0-1.16-.68c-9.13,3.92-19.73,5-28.1,10.59a30.39,30.39,0,0,0-12.17,17,10,10,0,0,0-4.93,1.09,15,15,0,0,1,.19-3.86,5.63,5.63,0,0,0,3.58-2.46c2.42-3.32,1.38-6-.88-8.17l-1.16,1.1c1.44,1.6,1.87,3.61-.08,6-2.26,2.76-5.1,1.69-7.57-.21-.3-.25-.6-.5-.88-.76a13.28,13.28,0,0,0-1.09-1c-.58-.58-1.11-1.12-1.57-1.63a38,38,0,0,0,4.1-6.51L28,231.89a39.64,39.64,0,0,1-4.34,6.73,12,12,0,0,0-5.73-1.46,30.16,30.16,0,0,0,7.26-19.34c0-10.17-5-19.59-6.83-29.45a.73.73,0,0,0-.46-.51.76.76,0,0,0-.69,0c-5.35,3.68-11.52,6.29-17.16,9.62v1.9c1.25-.75,2.51-1.47,3.8-2.14q2,6.45,3.91,12.91l-2.95,7.14c-1.39-1.81-2.29-7-2.83-8.71l-1.93-6v5.06q1.91,6,3.82,12c-1,2.3-1.91,4.61-2.87,6.92A6.08,6.08,0,0,1,0,225.15v5.68H.05a19.84,19.84,0,0,1,1.94,1c6.55,4,5.53,10.86,2.52,17.3A66.73,66.73,0,0,1,0,257v17.87c2.51-1.16,5-2.36,7.43-3.64.75,5.17,1.79,10.3,3,15.4a.65.65,0,0,0,.41.51.7.7,0,0,0,.54,0c8.49-2.51,16.34,2.37,18,11.06a.62.62,0,0,0,.52.55.77.77,0,0,0,.43,0c5.07-1.25,10.09-2.64,15-4.32-.06,5.21.17,10.4.56,15.6a.71.71,0,0,0,.59.72.32.32,0,0,0,.13,0h.12a.53.53,0,0,0,.13,0,13.83,13.83,0,0,1,15.93,13.7.7.7,0,0,0,.08.33.64.64,0,0,0,.69.44c5.25-.43,10.45-1,15.63-1.91-.88,5.18-1.48,10.38-1.91,15.63a.64.64,0,0,0,.44.69.7.7,0,0,0,.33.08,13.83,13.83,0,0,1,13.7,15.93.53.53,0,0,0,0,.13,0,0,0,0,0,0,0,.14.14,0,0,0,0,.09.34.34,0,0,0,0,.14.71.71,0,0,0,.72.59c5.2.39,10.39.62,15.6.55-1.69,4.95-3.07,10-4.32,15.05a.69.69,0,0,0,0,.43.62.62,0,0,0,.55.52c8.69,1.67,13.56,9.52,11.06,18a.7.7,0,0,0,0,.54.65.65,0,0,0,.51.41c5.1,1.21,10.23,2.25,15.4,3-1.56,3-3,6-4.39,9.1h16.14a79.08,79.08,0,0,1,10.24-6.18c6.44-3,13.29-4,17.3,2.52a19.84,19.84,0,0,1,1.05,1.94c.19.54.37,1.12.53,1.72h2.86c-.08-.37-.16-.75-.28-1.14l3.29,1.14h3.74c-2.35-.68-4.74-1.54-5.82-2.62l6.92-2.87,17.2,5.49H204c3.85-6.06,6.6-12.94,10.65-18.83A.76.76,0,0,0,214.72,384.73Zm-3.53.57c-2.58,1.08-5.18,2.14-7.77,3.23q1.31-2.46,2.63-4.92A18.91,18.91,0,0,1,211.19,385.3Zm-11.61-3.41,2.45.78c.5.16,1.4.36,2.45.59-1.11,2.06-2.21,4.14-3.31,6.2l-7.15,3c1.83-3.43,3.65-6.85,5.49-10.26A1,1,0,0,0,199.58,381.89Zm-43.24-12.67a9,9,0,0,0,1.17,3.3,13.51,13.51,0,0,0-8.87.11,18.41,18.41,0,0,0,3-3.27A22.79,22.79,0,0,0,156.34,369.22Zm-2.94-7.87a14.35,14.35,0,0,0-2.29-5.22c-.25-.36-.51-.7-.77-1q5.64,1.17,11.27,2.31A29.58,29.58,0,0,1,153.4,361.35Zm9.87-5.17,0,0c-4.94-1-9.86-2-14.79-3a10.71,10.71,0,0,0-9.62-2.07l5.41-3.61,24.16,3.39A29.56,29.56,0,0,1,163.27,356.18Zm6.13-6.76-12.46-1.74c-2.36-.34-8.2-.18-10.4-1.75,2.06-1.39,4.13-2.76,6.19-4.14L172.31,344A34.08,34.08,0,0,1,169.4,349.42Zm3.53-6.88-10.07-1.15c-1.62-.18-6.2,0-8.09-1l6.42-4.29q6.72.64,13.43,1.32C174.11,339.17,173.56,340.87,172.93,342.54Zm3.11-10c-.34,1.15-.66,2.29-1,3.44a.7.7,0,0,0-.3-.09l-11.53-1.13c2.15-1.45,4.3-2.87,6.44-4.31l6.92.68C176.33,331.74,176.14,332.23,176,332.57Zm1.12-2.9-5.49-.53,7.07-4.73A19.28,19.28,0,0,1,177.16,329.67Zm.67-6.63c-2.37,1.57-4.71,3.14-7.07,4.72l1.62-5.33A20.33,20.33,0,0,1,177.83,323Zm-12.11-1,2.87.32c.47.05,1.25.07,2.18.08-.68,2.23-1.35,4.47-2,6.7l-6.43,4.3c1.13-3.72,2.26-7.46,3.39-11.17A1,1,0,0,0,165.72,322Zm-6.87-.52c1.79.05,3.57.19,5.34.36q-2,6.47-3.91,12.92l-6.44,4.29c-.16-2.28,2-7.14,2.5-8.85C157.19,327.31,158,324.39,158.85,321.49Zm-1.6,0q-2.73,9.48-5.45,18.95l-6.16,4.13c-.6-2.81,2-8.86,2.61-11.3q1.45-5.6,2.9-11.18A33,33,0,0,1,157.25,321.47Zm-7.79,1q-3.08,11.81-6.13,23.63l-5.55,3.71A10.66,10.66,0,0,0,139.7,340c1-4.91,1.89-9.83,2.85-14.73a.81.81,0,0,0,0-.15A28.51,28.51,0,0,1,149.46,322.45Zm-8.67,3.75q-1.09,5.67-2.18,11.32a16.65,16.65,0,0,0-1.15-1.78,13.86,13.86,0,0,0-3.49-3.42A30,30,0,0,1,140.79,326.2Zm-26-14.52c-3-.44-6,.5-8.88,2.22a13.65,13.65,0,0,0,2.92-8.58l14.9.08A30.23,30.23,0,0,1,114.74,311.68Zm10.34-7.8-.08,0-16.45-.09A11.68,11.68,0,0,0,106.1,299c7.68-.45,15.34-.87,23-1.31A29.35,29.35,0,0,1,125.08,303.88Zm6.42-13.21a34,34,0,0,1-1.69,5.37l-12.65.73c-2.37.14-8,1.41-10.49.31l5.26-5.26,19.65-1.64C131.55,290.34,131.53,290.51,131.5,290.67Zm.37-2.06-9.93.83c-1.74.14-6.1,1.23-8.16.53l5.35-5.35,13.38-1.32h.05C132.39,285.07,132.17,286.84,131.87,288.61Zm1.58-13.43-5.4.53,5.91-5.92A30.52,30.52,0,0,1,133.45,275.18Zm-6-6.06a30.39,30.39,0,0,1,5.39-.5l-5.92,5.91C127.05,272.73,127.23,270.93,127.4,269.12Zm5.81,7.62c-.11.67-.19,1.22-.22,1.53l-.3,3.5-.18,0-11.66,1.16q2.73-2.75,5.48-5.48Zm-12.4-6.85,3.49-.3c.32,0,.87-.11,1.54-.22l-.69,6.88-5.48,5.48c.39-3.88.77-7.78,1.16-11.66A.9.9,0,0,0,120.81,269.89Zm-6.84.82c1.76-.3,3.54-.52,5.32-.69,0,0,0,0,0,.05-.45,4.46-.88,8.92-1.33,13.38l-5.34,5.35c-.7-2.06.39-6.42.53-8.16C113.42,277.33,113.69,274,114,270.71Zm-8.16,14.71q.36-6.33.73-12.65a34,34,0,0,1,5.37-1.69l.49-.08q-.83,9.83-1.64,19.65c-1.76,1.75-3.51,3.51-5.26,5.26C104.4,293.44,105.67,287.79,105.81,285.42Zm-.87-11.95q-.66,11.5-1.31,23A11.68,11.68,0,0,0,98.81,294c0-5.49-.07-11-.09-16.45a.31.31,0,0,0,0-.08A29.1,29.1,0,0,1,104.94,273.47Zm-14,14.36a30.31,30.31,0,0,1,6.28-8.93q0,7.46.08,14.9a13.65,13.65,0,0,0-8.58,2.92C90.4,293.82,91.34,290.8,90.9,287.83ZM70.26,268.61a13.86,13.86,0,0,0-3.42-3.49A16.65,16.65,0,0,0,65.06,264l11.32-2.19A29.83,29.83,0,0,1,70.26,268.61ZM77.43,260a.81.81,0,0,0-.15,0c-4.91,1-9.82,1.9-14.73,2.85a10.66,10.66,0,0,0-9.76,1.92c1.23-1.86,2.47-3.7,3.71-5.55l23.63-6.13A28.51,28.51,0,0,1,77.43,260Zm3.68-14.71a33,33,0,0,1-.6,6.1l-11.18,2.89c-2.44.63-8.49,3.22-11.3,2.62l4.13-6.16Zm0-1.6c-2.9.83-5.82,1.66-8.72,2.51-1.71.48-6.57,2.66-8.86,2.5q2.16-3.21,4.3-6.44l12.92-3.91C80.9,240.16,81,241.94,81.09,243.73ZM80.24,234c.12,1,.22,1.91.33,2.87a1,1,0,0,0-.23,0l-11.18,3.38,4.31-6.42c2.23-.69,4.47-1.36,6.7-2C80.18,232.74,80.2,233.51,80.24,234Zm-.09-3.79-5.33,1.62c1.58-2.36,3.15-4.7,4.72-7.07A20.33,20.33,0,0,1,80.15,230.2Zm-2-6.36c-1.57,2.36-3.15,4.71-4.73,7.07q-.25-2.76-.54-5.49A19.43,19.43,0,0,1,78.17,223.84ZM70,226.54c.34-.1.83-.29,1.41-.53.23,2.31.45,4.61.68,6.92-1.44,2.14-2.86,4.29-4.31,6.44q-.56-5.76-1.13-11.53a.82.82,0,0,0-.09-.3ZM65.12,228q.67,6.71,1.32,13.42c-1.43,2.15-2.85,4.29-4.29,6.43-.93-1.89-.78-6.47-1-8.09-.39-3.36-.77-6.71-1.15-10.07C61.71,229,63.41,228.47,65.12,228Zm-6.56,2.31q1.11,9.78,2.23,19.58L56.65,256c-1.57-2.2-1.42-8-1.75-10.4l-1.74-12.46A34,34,0,0,1,58.56,230.27Zm-6.82,3.9,3.39,24.16c-1.2,1.79-2.41,3.6-3.61,5.41a10.71,10.71,0,0,0-2.07-9.62c-1-4.93-2-9.85-3-14.79a0,0,0,0,0,0,0A29.23,29.23,0,0,1,51.74,234.17ZM45.18,241q1.14,5.64,2.3,11.27c-.33-.26-.67-.52-1-.77a14.35,14.35,0,0,0-5.22-2.29A29.58,29.58,0,0,1,45.18,241Zm-15.12,4.1a9,9,0,0,0,3.3,1.17,22.1,22.1,0,0,0-.14,4.74,18.41,18.41,0,0,0-3.27,3A13.51,13.51,0,0,0,30.06,245.07Zm-14.52-7.59c-2.88.79-5.31,2.9-7.36,5.68.77-3.32.76-6.53-.61-9.27q6.93-2.82,13.86-5.65A30,30,0,0,1,15.54,237.48Zm4.37-36.93c.26.81.51,1.63.78,2.45a.72.72,0,0,0-.27.07c-3.41,1.84-6.83,3.66-10.26,5.49q1.48-3.57,3-7.15c2.06-1.1,4.14-2.2,6.2-3.31C19.55,199.15,19.74,200.05,19.91,200.55Zm-2.63-9.16A19.26,19.26,0,0,1,19,196.53l-4.92,2.63C15.13,196.57,16.2,194,17.28,191.39Zm-1.52-.63c-1.07,2.59-2.15,5.18-3.22,7.78l-1.62-5.34A19.33,19.33,0,0,1,15.76,190.76Zm-10.49,6a.78.78,0,0,0-.13-.24l2.28-1.18c.47-.24,1.24-.74,2.15-1.32.67,2.24,1.36,4.49,2,6.73q-1.48,3.57-3,7.15Q7,202.36,5.27,196.8Zm4,14,11.89-6.37c.53,1.71,1,3.43,1.42,5.16q-4.07,2.1-8.11,4.18c-1.58.82-5.9,3.86-8.16,4.16C7.26,215.58,8.24,213.19,9.23,210.82Zm-3.9,9.4q8.76-4.53,17.54-9c0,.2.09.39.13.58a32.54,32.54,0,0,1,.51,5.5q-5.25,2.55-10.48,5.06c-2.22,1.08-7.72,4.82-10.57,4.82C3.42,224.83,4.38,222.53,5.33,220.22Zm1.45,12.33a12.1,12.1,0,0,0-4.13-3.5Q13,224,23.47,219a29.17,29.17,0,0,1-1.34,7.35.65.65,0,0,0-.19,0Zm3.89,34.09c1.88-3.67,3.76-7.37,5.63-11a1,1,0,0,0,.08-.28A4.77,4.77,0,0,0,22,253a4.77,4.77,0,1,0-7,1.6.79.79,0,0,0-.14.17L9.19,265.89c-2.46-1.24-4.94-2.44-7.43-3.62a82.25,82.25,0,0,1,4-11.86c3.53-7.79,9.16-14,18.22-8.35,7.13,4.45,5.23,11.79,1.41,18.37A87.44,87.44,0,0,1,18,270.52C15.57,269.2,13.13,267.9,10.67,266.64Zm8.57-18.71c3.72,1.88.89,7.45-2.87,5.77C12.82,251.65,15.51,246,19.24,247.93Zm11.22,29.86q3.26-5.31,6.5-10.62A.56.56,0,0,0,37,267a4.74,4.74,0,1,0-1.34-.81.41.41,0,0,0-.16.18c-2.17,3.52-4.32,7-6.49,10.57-2.35-1.44-4.73-2.83-7.13-4.2a84.77,84.77,0,0,1,4.59-11c4.13-7.72,10.31-13.93,19-7.44,6.52,4.86,4.58,11.62.59,17.68a83,83,0,0,1-8.65,10.25C35.12,280.74,32.8,279.24,30.46,277.79Zm10-17.94c3.39,2.34.14,7.62-3.41,5.46S36.87,257.87,40.51,259.85Zm15.36,35.62q-3.25-2.54-6.6-5l7.39-10.16a.94.94,0,0,0,.06-.15,4.78,4.78,0,1,0-1.25-.91.82.82,0,0,0-.26.23l-7.27,10c-2.23-1.63-4.49-3.2-6.78-4.76a83,83,0,0,1,5.73-11c4.72-7.19,11.29-12.58,19.26-5.56,6.4,5.63,3.42,12.59-1.42,18.5A86.66,86.66,0,0,1,55.87,295.47ZM56,274.35a3.25,3.25,0,0,1,4.67-1c3.42,2.44-.29,7.35-3.77,5.19A3.3,3.3,0,0,1,56,274.35Zm11,30.27,8.08-9.46a.75.75,0,0,0,.14-.24,4.8,4.8,0,1,0-1.18-1,.57.57,0,0,0-.13.1l-8.16,9.55q-3.15-2.69-6.38-5.26a86.7,86.7,0,0,1,6.52-10.59c4.92-6.45,11.42-11.16,18.66-5s3.68,13.44-1.93,19.33a87,87,0,0,1-9.44,8.08C71.19,308.26,69.13,306.42,67,304.62Zm12.72-16.25c3,2.82-.89,7.65-4.09,5S76.47,285.85,79.76,288.37ZM89.39,326c-1.89-2-3.79-4-5.73-6l8.85-8.85a.85.85,0,0,0,.14-.21,4.77,4.77,0,1,0-1.1-1.11,1.37,1.37,0,0,0-.21.15l-8.85,8.85c-2-1.94-3.94-3.84-5.95-5.74a86.93,86.93,0,0,1,7.66-10.43c5.35-5.81,12-9.65,18.73-3.1s2.71,13.38-3.11,18.73A86.43,86.43,0,0,1,89.39,326Zm8.28-21.13c2.94,2.94-1.48,7.31-4.55,4.55C90.36,306.39,94.73,302,97.67,304.91ZM99,336.79l9.55-8.16a.34.34,0,0,0,.09-.13,4.74,4.74,0,1,0-1-1.18.6.6,0,0,0-.24.14L98,335.54q-2.71-3.14-5.49-6.18a87,87,0,0,1,8.08-9.44c5.89-5.61,13.08-9.25,19.33-1.93s1.46,13.74-5,18.66a86.7,86.7,0,0,1-10.59,6.52Q101.72,339.94,99,336.79Zm15.17-14c2.52,3.29-2.31,7.26-5,4.09S111.39,319.85,114.21,322.82Zm-1.14,31.82q5-3.64,10-7.27a.82.82,0,0,0,.23-.26,4.74,4.74,0,0,0,6.21.43,4.76,4.76,0,1,0-7.12-1.68.94.94,0,0,0-.15.06l-10.16,7.39q-2.45-3.35-5-6.6a85.66,85.66,0,0,1,8.8-8.86c5.91-4.84,12.87-7.82,18.5-1.42,7,8,1.63,14.54-5.57,19.26a84.13,84.13,0,0,1-11,5.73C116.26,359.13,114.7,356.87,113.07,354.64Zm16.16-12.75a3.25,3.25,0,0,1-1,4.67,3.29,3.29,0,0,1-4.19-.91C121.88,342.18,126.79,338.47,129.23,341.89Zm.63,38.78c-1.37-2.4-2.76-4.78-4.2-7.13l10.57-6.49a.41.41,0,0,0,.18-.16,4.78,4.78,0,1,0-.81-1.34.56.56,0,0,0-.19.07l-10.62,6.5c-1.45-2.34-3-4.67-4.46-7a83,83,0,0,1,10.25-8.65c6.06-4,12.82-5.93,17.68.59,6.49,8.68.28,14.86-7.44,19A84.77,84.77,0,0,1,129.86,380.67Zm12.87-18.6c2,3.64-3.3,6.95-5.46,3.4S140.39,358.68,142.73,362.07Zm9.44,34.79a82.25,82.25,0,0,1-11.86,4c-1.18-2.49-2.38-5-3.62-7.44l11.11-5.65a.79.79,0,0,0,.17-.14,4.77,4.77,0,1,0-.71-1.39.75.75,0,0,0-.27.08q-5.53,2.81-11.05,5.63-1.89-3.69-3.89-7.31a87.32,87.32,0,0,1,10.1-7.37c6.58-3.82,13.92-5.72,18.37,1.41C166.19,387.7,160,393.33,152.17,396.86Zm2.48-13.52c1.88,3.73-3.72,6.42-5.77,2.87C147.2,382.45,152.77,379.62,154.65,383.34Zm14,11.67c-2.74-1.37-5.95-1.39-9.27-.61,2.78-2,4.89-4.48,5.68-7.37a30.32,30.32,0,0,1,9.24-5.89Q171.51,388.07,168.69,395Zm4.84,4.92a12.1,12.1,0,0,0-3.5-4.13q3.08-7.57,6.17-15.16a.42.42,0,0,0,0-.19,28.89,28.89,0,0,1,7.36-1.34C180.23,386,176.89,393,173.53,399.93Zm8.83-2.68-6.92,2.87c0-2.85,3.74-8.35,4.82-10.57q2.52-5.24,5.06-10.48a32.54,32.54,0,0,1,5.5.51l.58.13Zm6.43-9.1c1.38-2.7,2.78-5.4,4.17-8.11,1.74.4,3.46.89,5.17,1.42l-6.37,11.89-7.13,3C184.93,394.05,188,389.73,188.79,388.15Zm13.86,15.28L194,400.65c-1.69-.54-6.9-1.44-8.71-2.83l7.14-2.95,12.91,3.91C204.47,400.36,203.59,401.92,202.65,403.43Zm4.55-8.27L206,397.44a.78.78,0,0,0-.24-.13l-11.14-3.38,7.15-3,6.73,2C207.94,393.92,207.44,394.69,207.2,395.16Zm2.18-3.5L204,390l7.78-3.22A19.33,19.33,0,0,1,209.38,391.66Z"/><path class="cls-5" d="M49.67,399.66c-5.12-7-12.85-.23-17.83,4.59h2.22c4.4-4.14,10.66-9,14.33-3.62a5.54,5.54,0,0,1,1.09,3.62h1.7A6.91,6.91,0,0,0,49.67,399.66Z"/><path class="cls-6" d="M90.85,404.25h9.82A55.51,55.51,0,0,0,90.85,404.25Z"/><path class="cls-7" d="M2.92,352.91A8,8,0,0,0,0,351.52v1.74a6.39,6.39,0,0,1,2,.93c4.63,3.18,1.63,8.3-1.95,12.47V369C4.5,364.06,9.16,357.45,2.92,352.91Z"/><path class="cls-8" d="M123.67,398.31a65.13,65.13,0,0,1-8.45-1.21c-3.31-.69-6.58-1.29-9.79-1.69a9,9,0,0,0,1.72-.8,9.4,9.4,0,0,0,3.14-12.6c-3-4.21-8.56-5.74-13-2.73a8.12,8.12,0,0,0-1.15.94l-2.21-.62c-2.2,6.8-5.16,12.88-10.38,17.17a28.43,28.43,0,0,1-9.73,5,9,9,0,0,0-3.76-2.19c9.56-4.56,13.71-12.86,17.51-22.87A50.33,50.33,0,0,1,90,371.26a.78.78,0,0,0-.86-1.13,53.31,53.31,0,0,1-5.91.61c-10.57.53-19.77,1.87-27,9.49a8,8,0,0,0-1-4.2,29.58,29.58,0,0,1,5.24-5.84l-1.56-1.75a30.06,30.06,0,0,1-6.51,4.22,8.12,8.12,0,0,0-4-1.65c8.56-5.95,11.36-14.73,13.53-25.09A52.74,52.74,0,0,1,63.53,340a.79.79,0,0,0-1-.95,52.74,52.74,0,0,1-5.92,1.59c-10.36,2.17-19.15,5-25.09,13.53a8.21,8.21,0,0,0-1.65-4,29.82,29.82,0,0,1,4.22-6.51l-1.75-1.56a29.58,29.58,0,0,1-5.84,5.24,8,8,0,0,0-4.2-1c7.62-7.25,9-16.45,9.49-27a53.13,53.13,0,0,1,.61-5.9.78.78,0,0,0-1.13-.86A52.38,52.38,0,0,1,25.91,315C15.9,318.81,7.6,323,3,332.52a9.05,9.05,0,0,0-2.19-3.77,28.47,28.47,0,0,1,5-9.72c4.29-5.22,10.37-8.18,17.17-10.38l-.62-2.21a7.42,7.42,0,0,0,.93-1.15c3-4.44,1.49-10-2.72-13A9.4,9.4,0,0,0,8,295.43a9,9,0,0,0-.8,1.72c-.4-3.21-1-6.48-1.69-9.79a65.13,65.13,0,0,1-1.21-8.45.78.78,0,0,0-1.16-.68c-1,.64-2.06,1.22-3.11,1.79v2.86c.67-.35,1.35-.69,2-1.06A70.77,70.77,0,0,0,3.24,289c2.38,10.66,4.19,20.85-.35,29.82A27.36,27.36,0,0,1,0,323.22v10.59a6.38,6.38,0,0,1,0,3.77v7.52a14.31,14.31,0,0,1,6.51,2.8c11.57,8.37,3.37,21.31-4.22,28.89-.75-.64-1.53-1.24-2.29-1.87v4.32c4.21,3.57,8.27,7.3,12.14,11.2q6.63,6.58,12.61,13.81H29c-1.07-1.33-2.14-2.66-3.24-4,7.58-7.59,20.52-15.79,28.89-4.23a13.56,13.56,0,0,1,2.91,8.19H62l.37-.34c2.56-2,6.39-2.42,8.88.34h6.14a28.81,28.81,0,0,1,6.31-4.56c9-4.54,19.16-2.73,29.82-.35a70.77,70.77,0,0,0,7.2,1.23c-.68,1.2-1.31,2.44-1.91,3.68h2.83c.83-1.62,1.7-3.22,2.67-4.78A.78.78,0,0,0,123.67,398.31ZM9.32,298.73a6.72,6.72,0,0,1,9.39-3.3c3.72,2.64,3.42,7.11,1.22,9.88-2,2.25-5.08,3.33-8.2,1.4a.13.13,0,0,1-.06,0,6.66,6.66,0,0,1-1.56-1.33l0,0s0-.05-.06-.07A6.33,6.33,0,0,1,9.32,298.73ZM26,351.34c3.54,3,2.62,7.39,0,9.87-2.35,2-5.67,2.67-8.5.31h0l0,0c-2.84-2.4-2.68-5.82-1.08-8.5C18.34,350,22.48,348.32,26,351.34Zm-7.12,12.87s0,0,0,0v0ZM9.41,345.36q3.94-5.46,7.9-10.89l0-.1a5.44,5.44,0,1,0-1.26-.91.68.68,0,0,0-.2.18L8.07,344.39a14.35,14.35,0,0,0-7.39-2.58A9.88,9.88,0,0,0,2.15,340a9,9,0,0,0,1.3-4.52c4-10.8,12.6-15.09,22.85-19q2.26-.87,4.45-1.92c-.21,1.59-.38,3.18-.46,4.78-.55,11.2-1.9,20.55-11.28,27.88a10.59,10.59,0,0,0-4.74,4.62A14.32,14.32,0,0,0,9.41,345.36Zm7.32-16.48A3,3,0,0,1,21,328c3,2.12.12,6.25-2.91,5.05-.18-.08-.36-.18-.54-.28l-.32-.31A2.94,2.94,0,0,1,16.73,328.88Zm-2.22,31.6,0,0v0Zm0,27.6q-1.73-1.74-3.49-3.43c1.59-2.08,3.19-4.15,5-6.09,2.71-3,7.31-6.78,11.07-3s-.06,8.36-3,11.07c-1.94,1.77-4,3.37-6.09,5Q16.24,389.8,14.5,388.08ZM23.78,398c-1.56-1.79-3.16-3.54-4.78-5.27,5.26-3.95,16-11.35,9.14-18.25s-14.3,3.88-18.25,9.14c-1.73-1.62-3.48-3.22-5.27-4.78,6.17-8.52,17.83-19,28-8.86S32.3,391.79,23.78,398Zm14.59-14.21s0,0,0,0,0,0,0,0ZM35.74,368l9.45-9.45a1.53,1.53,0,0,0,.11-.16l.11.07a5.43,5.43,0,0,0,7.14-.75,5.45,5.45,0,1,0-8.45-.55.76.76,0,0,1,.08.11,1.53,1.53,0,0,0-.16.11l-9.45,9.45a14.26,14.26,0,0,0-7.22-3.78,10.49,10.49,0,0,0,3.91-5.5c5.79-10.41,14.9-13.14,25.79-15.43,1.54-.32,3.06-.72,4.58-1.18-.46,1.52-.86,3-1.18,4.58-2.29,10.89-5,20-15.43,25.79a10.49,10.49,0,0,0-5.5,3.91A14.34,14.34,0,0,0,35.74,368Zm14.19-15.36c2.53,2.53-.88,6.21-3.63,4.58a5.12,5.12,0,0,1-.54-.41,5.12,5.12,0,0,1-.41-.54C43.72,353.52,47.4,350.12,49.93,352.65ZM42.08,388.1s0,0,0,0l0,0Zm7.5-1.86c-2.67,1.6-6.09,1.76-8.49-1.08l0,0h0c-2.36-2.83-1.68-6.15.31-8.5,2.48-2.64,6.88-3.56,9.87,0S52.6,384.24,49.58,386.24Zm13,14.19a9.48,9.48,0,0,0-1.8,1.47,14.35,14.35,0,0,0-2.58-7.39l10.75-7.82a.68.68,0,0,0,.18-.2,5.47,5.47,0,1,0-.91-1.27l-.1,0q-5.44,3.94-10.89,7.9a14.32,14.32,0,0,0-6.5-4.86,10.59,10.59,0,0,0,4.62-4.74c7.33-9.38,16.68-10.73,27.87-11.29,1.61-.07,3.2-.24,4.79-.46-.7,1.47-1.34,2.95-1.92,4.46-3.9,10.25-8.19,18.82-19,22.85A9,9,0,0,0,62.57,400.43Zm12.05-18.85a2.93,2.93,0,0,1-4.47,3.76l-.3-.31a4.63,4.63,0,0,1-.28-.54C68.37,381.46,72.49,378.61,74.62,381.58Zm22.74,11s0,0-.07-.06l0,0a6.7,6.7,0,0,1-1.34-1.56l0-.06c-1.94-3.12-.85-6.22,1.4-8.2,2.77-2.21,7.24-2.5,9.88,1.22a6.72,6.72,0,0,1-3.3,9.39A6.33,6.33,0,0,1,97.36,392.57Z"/><path class="cls-9" d="M9,393.55a.78.78,0,0,0-.74-.21C5.44,394,2.65,394.46,0,395v2.21c2-.28,4.12-.49,6.22-.85-.47,2.68-.68,5.37-1.11,7.89H7.22c.73-3.12,1.17-6.5,2-10A.8.8,0,0,0,9,393.55Z"/><path class="cls-10" d="M158.4,152.42c.48,1.09.86,2.14,1.18,3-2.2,1.33-4.35,2.73-6.4,4.25a39.39,39.39,0,0,1-3.3-3.77l-1.34,1,.36.49a41.15,41.15,0,0,1,2.28,3.85c-1.84,1.45-3.63,3-5.32,4.57l1,1.11,1.05-1,.27-.24a73,73,0,0,1,19.49-12.24c18.78-8,39.82-7.81,59.86-8.35a248.47,248.47,0,0,0,28.08-1.94c2.26-.32,3.26-.56,3.66.06.62.4.38,1.4.06,3.66A248.47,248.47,0,0,0,257.42,175c-.54,20-.33,41.08-8.35,59.86a73.24,73.24,0,0,1-12.24,19.49l-.24.27q-.47.53-1,1.05l1.1,1c1.62-1.7,3.13-3.48,4.58-5.32a41.15,41.15,0,0,1,3.85,2.28l.48.36,1-1.34a39.39,39.39,0,0,1-3.77-3.3c1.52-2.05,2.92-4.2,4.25-6.4.9.32,1.95.7,3,1.18a11.19,11.19,0,0,1,4.79,3.53l1.39-1.23-.12-.13a5.37,5.37,0,0,0,6.23-2.86c2-3.5.76-6.06-1.64-7.93,2.58.25,4.91-.54,6.16-3.52,1.61-3.84,0-6.23-2.64-7.74,2.71.08,5.09-.83,6.11-3.86,1.38-4.09-.38-6.38-3.21-7.62a5.46,5.46,0,0,0,5.32-4.78c.67-3.6-.89-5.59-3.31-6.65a5.38,5.38,0,0,0,4.5-5.09c.39-3.42-1.12-5.26-3.4-6.22a5.3,5.3,0,0,0,3.78-4.9c.39-3.38-1.1-5.24-3.36-6.18a5.36,5.36,0,0,0,4-5c.39-3.39-1.11-5.23-3.36-6.19a5.32,5.32,0,0,0,4-5c.37-3.14-.9-5-2.89-6a5.3,5.3,0,0,0,3.82-4.91c.52-4.43-2.19-6.24-5.62-6.84a13.16,13.16,0,0,0,3.05-2.74c4.26-4.94,4.3-11.63,6-18.67a.79.79,0,0,0-.2-.74.82.82,0,0,0-.74-.21c-7,1.72-13.74,1.76-18.67,6a13.16,13.16,0,0,0-2.74,3.05c-.61-3.43-2.41-6.14-6.84-5.62A5.3,5.3,0,0,0,245.7,130c-1-2-2.83-3.26-6-2.9a5.34,5.34,0,0,0-5,4c-1-2.25-2.8-3.75-6.19-3.36a5.36,5.36,0,0,0-5,4c-.94-2.26-2.8-3.75-6.18-3.36a5.3,5.3,0,0,0-4.9,3.78c-1-2.28-2.8-3.79-6.22-3.4a5.38,5.38,0,0,0-5.09,4.5c-1.06-2.42-3.05-4-6.65-3.31a5.46,5.46,0,0,0-4.78,5.32c-1.24-2.83-3.53-4.59-7.62-3.21-3,1-3.94,3.4-3.86,6.11-1.52-2.68-3.9-4.25-7.74-2.64-3,1.25-3.77,3.58-3.52,6.16-1.87-2.4-4.43-3.64-7.93-1.64a5.37,5.37,0,0,0-2.86,6.23l-.13-.12-1.23,1.39A11.19,11.19,0,0,1,158.4,152.42ZM260,242.52c-1.74,2.68-4.3,2.35-6.75,1.11a33.1,33.1,0,0,1-4.57-3.26c1.25-2.26,2.42-4.58,3.45-7a39.24,39.24,0,0,1,4,1.25C259.59,236.07,262.59,238.46,260,242.52ZM264.07,232c-1.43,2.29-3.89,2.21-6.31,1.35a33.32,33.32,0,0,1-4.71-2.35c.87-2.18,1.66-4.38,2.33-6.65.09-.27.15-.55.23-.83,1,.11,2.15.28,3.35.53C263.1,225,267.12,227.12,264.07,232ZM267.78,220c-1.13,2.81-3.86,3-6.6,2.31a38.08,38.08,0,0,1-4.79-1.75q1-3.79,1.68-7.63a34.34,34.34,0,0,1,4.61.2C266.4,213.71,269.66,215.39,267.78,220Zm1.94-11.51c-.9,2.72-3.46,3.09-6.14,2.66a34.55,34.55,0,0,1-4.95-1.45c.42-2.59.76-5.19,1.05-7.8a33,33,0,0,1,4.7-.05C268.09,202.23,271.33,203.75,269.72,208.53Zm1.2-11.42c-.74,2.58-3,3.17-5.49,3a31.1,31.1,0,0,1-5.43-1.2c.25-2.62.45-5.25.62-7.88.72-.1,1.54-.19,2.38-.25C267.44,190.52,272.59,191.34,270.92,197.11Zm.39-11.11c-.75,2.57-3,3.17-5.5,3a29.09,29.09,0,0,1-5-1.08c.15-2.67.27-5.35.39-8,.67-.09,1.42-.18,2.2-.23C267.83,179.4,273,180.23,271.31,186Zm-10.06-7.67h0ZM272,174.84c-.75,2.57-3,3.17-5.5,3a29.56,29.56,0,0,1-5.15-1.12c.12-2.66.22-5.31.35-8,.72-.08,1.53-.18,2.38-.25C268.48,168.23,273.63,169.07,272,174.84Zm.66-11.17c-.75,2.58-3,3.17-5.5,3a30.37,30.37,0,0,1-5.31-1.16c.14-2.65.32-5.29.51-7.92.73-.1,1.53-.18,2.38-.25C269.13,157.08,274.28,157.91,272.62,163.67Zm.93-10.89c-.75,2.58-3,3.17-5.5,3a31.27,31.27,0,0,1-5.48-1.21c.23-2.64.53-5.27.87-7.9.67-.08,1.42-.16,2.19-.21C270.07,146.19,275.22,147,273.55,152.78ZM257.69,136c0-.48,0-1,0-1.46a15.43,15.43,0,0,1,3.66-4.72c4.14-3.21,9.8-3,15.42-4-1,5.62-.81,11.28-4,15.42a15.41,15.41,0,0,1-4.71,3.66c-.49,0-1,0-1.47,0-1,0-2,.09-2.92.2.29-2.08.62-4.16,1-6.22a.82.82,0,0,0-.21-.74.8.8,0,0,0-.74-.21c-2.06.39-4.14.72-6.22,1C257.6,138,257.67,137,257.69,136Zm-7.89-7c5.76-1.67,6.59,3.48,6.32,7.92-.05.77-.13,1.52-.22,2.19-2.62.34-5.25.64-7.89.87a31.27,31.27,0,0,1-1.21-5.48C246.63,132,247.22,129.78,249.8,129Zm-10.89.93c5.76-1.66,6.59,3.48,6.33,7.92-.07.85-.15,1.65-.25,2.37-2.63.2-5.27.38-7.92.52a29.49,29.49,0,0,1-1.16-5.31C235.74,133,236.33,130.71,238.91,130Zm-11.17.66c5.77-1.67,6.6,3.48,6.34,7.92-.07.85-.17,1.66-.25,2.38-2.66.13-5.31.23-8,.35a29.56,29.56,0,0,1-1.12-5.15C224.57,133.63,225.17,131.37,227.74,130.62Zm-3.49,10.7h0Zm-7.67-10c5.77-1.66,6.6,3.48,6.33,7.92-.06.78-.14,1.53-.23,2.2-2.68.12-5.36.24-8,.38a29,29,0,0,1-1.08-5C213.41,134.29,214,132,216.58,131.27Zm-11.11.39c5.77-1.67,6.59,3.47,6.33,7.92-.06.84-.15,1.66-.25,2.38-2.63.17-5.26.37-7.88.62a31.1,31.1,0,0,1-1.2-5.43C202.3,134.68,202.89,132.4,205.47,131.66Zm-11.42,1.2c4.78-1.61,6.3,1.63,6.64,5.34a33,33,0,0,1-.05,4.7c-2.61.29-5.21.63-7.8,1a33.67,33.67,0,0,1-1.45-4.95C191,136.32,191.33,133.76,194.05,132.86Zm-11.52,1.94c4.66-1.89,6.34,1.38,6.88,5.1a36,36,0,0,1,.2,4.61c-2.56.47-5.1,1-7.63,1.68a36.57,36.57,0,0,1-1.75-4.79C179.59,138.66,179.73,135.93,182.53,134.8Zm-11.92,3.71c4.85-3,7,1,7.95,5.11a33.39,33.39,0,0,1,.52,3.35c-.27.08-.55.14-.82.23-2.27.67-4.47,1.46-6.65,2.32a32.64,32.64,0,0,1-2.35-4.7C168.4,142.4,168.32,139.94,170.61,138.51Zm-10.55,4.11c4.05-2.63,6.44.37,7.88,3.89a39.24,39.24,0,0,1,1.25,4c-2.4,1-4.72,2.2-7,3.45a32.28,32.28,0,0,1-3.26-4.57C157.71,146.92,157.38,144.36,160.06,142.62Z"/><path class="cls-11" d="M142.36,260.22c.51.52.49,2.34.27,4.44l2.21.32c.56-.08,1.19-.15,1.85-.21l-.88-1.46-.79.09c.23-1.94.51-3.88.9-5.79a.79.79,0,0,0-.95-.95c-1.91.39-3.85.67-5.79.9l.09-.8-1.46-.87c-.06.66-.13,1.29-.21,1.85l.32,2.21C140,259.73,141.84,259.71,142.36,260.22Z"/><path class="cls-12" d="M158.52,244.06c-1,5.63-.82,11.28-4,15.43l1.2,1c4.1-4.92,4.15-11.54,5.85-18.48a.78.78,0,0,0-.21-.74.76.76,0,0,0-.74-.21c-6.94,1.7-13.56,1.75-18.48,5.85l1,1.2C147.24,244.88,152.89,245,158.52,244.06Z"/><path class="cls-13" d="M223.2,254.18a72,72,0,0,0,19.19-29.84c7.82-23.5,4.77-49,9.8-73a.83.83,0,0,0-.21-.74.8.8,0,0,0-.74-.21c-24,5-49.5,2-73,9.8a71.81,71.81,0,0,0-29.84,19.19l-.34.36-.17.18,1.17,1.08a69.54,69.54,0,0,1,36.06-20c10.72-2.31,21.72-2.76,32.64-3.28,5-.24,10.1-.48,15.14-.91,1.93-.17,10.48-2.09,13.4-1.69L231,170.38l1.17,1.17,15.28-15.27c.4,2.92-1.52,11.47-1.69,13.4-.44,5-.67,10.09-.91,15.14-.52,10.92-1,21.92-3.28,32.64a69.54,69.54,0,0,1-20,36.06l1.08,1.17.18-.17Z"/><path class="cls-14" d="M208.5,247.65l.17-.17c.54-.53,1.09-1.06,1.61-1.61a58.72,58.72,0,0,0,13.16-21.36c5.94-17,4.64-35.54,8.76-53L231,170.38c-17.42,4.12-35.94,2.82-53,8.76a58.72,58.72,0,0,0-21.36,13.16c-.55.52-1.08,1.07-1.61,1.61-.06.06-.12.11-.17.17s-.38.36-.55.55a57.82,57.82,0,0,0-10,14.57l1.3.93a59.16,59.16,0,0,1,11.75-16.25,55.09,55.09,0,0,1,24.25-13.46c8.09-2.11,16.45-2.77,24.76-3.47,4.21-.36,8.44-.7,12.64-1.26,1.33-.17,5.94-1.4,8-1.35L209,192.43l1.18,1.18q9-9,18.09-18.09c0,2.08-1.19,6.69-1.36,8-.55,4.2-.89,8.43-1.25,12.64-.7,8.31-1.36,16.67-3.47,24.76a55.09,55.09,0,0,1-13.46,24.25,59.16,59.16,0,0,1-16.25,11.75l.92,1.3a57.7,57.7,0,0,0,14.58-10C208.14,248,208.32,247.83,208.5,247.65Z"/><path class="cls-15" d="M31.42,306.26a64.7,64.7,0,0,0,7-2.18,69.92,69.92,0,0,0,.06,7.24c.65,10.22.92,20-3.92,27.92a27.61,27.61,0,0,1-2.14,2.89l1.75,1.56a26.54,26.54,0,0,1,2.52-2.56c7-6,16.65-7.32,26.85-8.29a70.89,70.89,0,0,0,7.28-1,71.09,71.09,0,0,0-1.05,7.27c-1,10.21-2.28,19.83-8.29,26.86a26.54,26.54,0,0,1-2.56,2.52l1.56,1.75a27.61,27.61,0,0,1,2.89-2.14c7.92-4.84,17.7-4.57,27.91-3.92a70.14,70.14,0,0,0,7.25.06,64,64,0,0,0-2.18,7c-.74,2.89-1.51,5.72-2.39,8.44l2.21.62c1.08-3,2-6.2,2.91-9.46a68.18,68.18,0,0,1,2.75-8.09c.2-.48,0-1.2-.67-1.15a69.07,69.07,0,0,1-8.75.13c-3.35-.16-6.63-.26-9.82-.15.29-.17.6-.35.89-.55a9.33,9.33,0,0,0,1.85-13.32l0,0a.38.38,0,0,0-.09-.13,9.37,9.37,0,0,0-12.94-.86A8.38,8.38,0,0,0,71,348c.6-3.18,1-6.48,1.39-9.85a68.83,68.83,0,0,1,1.48-8.43.74.74,0,0,0-.21-.73.76.76,0,0,0-.74-.21,66.48,66.48,0,0,1-8.42,1.47c-3.37.37-6.67.8-9.85,1.4A8.38,8.38,0,0,0,56,330.35a9.37,9.37,0,0,0-.86-12.94.38.38,0,0,0-.13-.09l0,0a9.32,9.32,0,0,0-13.32,1.85c-.21.29-.38.6-.55.89.1-3.19,0-6.47-.15-9.82a69.07,69.07,0,0,1,.13-8.75c0-.64-.67-.87-1.16-.68a65.75,65.75,0,0,1-8.08,2.76c-3.26.89-6.44,1.83-9.46,2.91l.62,2.21C25.7,307.77,28.53,307,31.42,306.26Zm39.67,46.36a8.15,8.15,0,0,1,4-4.53,7,7,0,0,1,7.37,1.79,6.8,6.8,0,0,1-1.77,9.74,6.22,6.22,0,0,1-8.25-1.13c-.16-.19-.31-.37-.44-.56l0,0A6.46,6.46,0,0,1,71.09,352.62ZM43,321.9a6.8,6.8,0,0,1,9.74-1.77,7,7,0,0,1,1.79,7.37,8.18,8.18,0,0,1-4.53,4,6.42,6.42,0,0,1-5.29-.88l0,0c-.19-.13-.37-.28-.56-.44A6.21,6.21,0,0,1,43,321.9Z"/><path class="cls-16" d="M228.56,399.5c2.41.22,4.57-.75,5.84-4,1.34-3.44-.36-5.82-3-7.49a14.32,14.32,0,0,0,2.71-.84l-.57-1.42c-.33.13-.65.26-1,.36l-.05,0a16.73,16.73,0,0,1-3.49.63l-.62-.27a28.84,28.84,0,0,0-4-1.32,2.53,2.53,0,0,1,.13-.22l-.93-.53-.27.49-.07,0-1.33-.51c-1.4,3.83-4.26,7.92-6,11.51-1.34,2.81-2.69,5.64-4.21,8.37h4.55c-.45-.33-.89-.66-1.26-1,1.27-2.25,2.45-4.56,3.6-6.88a38.06,38.06,0,0,1,4.56,1.39c2.69,1.14,4.93,2.93,4.1,5.94,0,.18-.11.35-.17.51h2.72A5.14,5.14,0,0,0,228.56,399.5Zm-6-13.26,0,0-.42.73ZM219.4,395h0Zm6.36,2.09a28.39,28.39,0,0,1-5.65-3.53c1.16-2.35,2.33-4.69,3.57-7a38.72,38.72,0,0,1,4.07,1.21l.33.14a.64.64,0,0,0,.68.41l.19,0c2.28,1.15,4,2.86,3.24,5.55C231.09,397.81,228.48,398.1,225.76,397.08Z"/><path class="cls-17" d="M31.45,176.2s0,0,0,.05a17,17,0,0,1-2,2.91l-.63.25A29.65,29.65,0,0,0,25,181.28,1.83,1.83,0,0,1,25,181l-1,.29.15.53-.06,0-1.3.58c1.72,3.7,2.59,8.61,3.92,12.36a101.75,101.75,0,0,1,4.07,13.35,37.06,37.06,0,0,1-1.27,20.26c-.13.34-.26.7-.41,1l-.15.4c-.29.67-.6,1.34-.94,2l1.42.69a33.23,33.23,0,0,1,5,2.41,10.32,10.32,0,0,1,2.06,1.7l1.16-1.1c2.76.49,5.33-.1,6.77-3.19a7.06,7.06,0,0,0,.75-3.3c6.42-5.55,14.15-8.26,22.32-10.4,3.43-.9,6.88-1.67,10.3-2.62,2.79-.78,7.22-3.55,8.5-1,1,2,.45,5.79.76,8.12.56,4.24,1.31,8.45,1.8,12.71.84,7.29.77,14.4-1.54,21.37a7.16,7.16,0,0,0-2.21,1.41c-2.86,2.6-2.47,5.4-.84,7.94-2.68-1.21-5.45-1.19-7.59,1.87a5.79,5.79,0,0,0-1.2,4.71,10.22,10.22,0,0,1-1.25.73l.82,1.31c.34-.18.69-.37,1-.58a9.36,9.36,0,0,0,2.41,2.65l1-1.19c-1.91-1.66-2.79-3.84-.62-6.59s5.07-1.79,7.56.07a37.26,37.26,0,0,1,3.79,3.54l-.2.25,1.23,1c.54-.64,1.11-1.27,1.69-1.86a37.58,37.58,0,0,1,21.35-10.35c5.23-.8,10.51-.91,15.77-1.19,1.19-.06,4.88-.8,7.95-1.12l-.32-2.21c-2.6.28-5.21.46-7.82.64a31.38,31.38,0,0,1-1.25-5.59c-.17-2.49.43-4.75,3-5.49,5.75-1.67,6.6,3.47,6.33,7.91,0,.22,0,.45-.06.68l1.46.87c.09-.81.14-1.65.16-2.49,0-.49,0-1,0-1.47a15.24,15.24,0,0,1,3.65-4.71l-1-1.2-.18.16a12.72,12.72,0,0,0-2.74,3c-.6-3.43-2.41-6.13-6.84-5.63a5.35,5.35,0,0,0-4.9,3.79c-1-2.12-2.83-3.48-6.09-3.11a7.53,7.53,0,0,0-.85.15c4.28-4,5.77-11.11-.07-15.89s-12.55-2-15.68,2.89a8,8,0,0,0-.15-1.63,5.3,5.3,0,0,0-4.13-4.59c2-1.13,3.25-3.06,2.65-6.31-.71-3.88-3.57-5-6.83-4.85,6.4-6.27,4.43-14.13,4.8-22.76a.79.79,0,0,0-1.16-.67c-6.56,3.06-13.1,4.43-17.09,9.56a13.24,13.24,0,0,0-2.11,3.55c-1.33-3.44-3.77-5.85-8.27-4.09a5.24,5.24,0,0,0-3.61,4.54c-1.46-2-3.67-3-7-1.74-.12.05-.21.12-.33.17,3.41-4.78,3.46-12-3.2-15.61s-12.65.47-14.78,5.91A8.28,8.28,0,0,0,43,192a5.29,5.29,0,0,0-4.9-3.52c1.86-1.54,2.7-3.76,1.29-7-1.48-3.38-4.37-3.86-7.39-3.2a14.45,14.45,0,0,0,1.32-2.51l-1.41-.6A10.45,10.45,0,0,1,31.45,176.2Zm-7,7.17h0c.07.27.15.53.22.81C24.64,183.91,24.55,183.64,24.47,183.37Zm103.71,75.06a.09.09,0,0,0,0,.05h0A.11.11,0,0,1,128.18,258.43ZM91,249.54a43.42,43.42,0,0,1,4.53.32A10.2,10.2,0,0,1,98.75,251a7.87,7.87,0,0,0-2.21.83c-3.32,1.81-3.6,4.65-2.64,7.52A7.45,7.45,0,0,0,89.21,257,39.12,39.12,0,0,0,91,249.54Zm-.75-22.16h.16l-.15.06S90.2,227.4,90.2,227.38Zm1.53,44.1s-.11.09-.16.15a35.91,35.91,0,0,1-4-3.25c-2.24-2.3-3.56-5.09-.63-7.75s5.53-1,7.59,1.52a35.44,35.44,0,0,1,2.9,4.48A38.54,38.54,0,0,0,91.73,271.48Zm17-10.28-.12,0a36.59,36.59,0,0,1-2-4.65c-.79-2.65-.76-5.32,1.94-6.59,4-1.92,6,.35,6.87,3.46a33.64,33.64,0,0,1,.77,6.16A60,60,0,0,0,108.78,261.2ZM120.56,248c5.75-1.66,6.58,3.46,6.33,7.89-.08,1-.18,1.91-.29,2.72-2.59.17-5.18.38-7.74.68a33.56,33.56,0,0,1-1.31-5.79C117.38,251,118,248.72,120.56,248Zm-2.9-15.4c7.73,6.33-1.93,18.46-9.77,12.15a7.18,7.18,0,0,1-.7-.62C100.67,237.67,110.18,226.44,117.66,232.58Zm-12.4,25.8c.44,1.28.78,2.55,1,3.63a38.75,38.75,0,0,0-7.07,3.41,30.29,30.29,0,0,1-3.11-4.63c-1.18-2.45-1.44-5,1.28-6.68C101.61,251.53,103.93,254.76,105.26,258.38ZM102.47,245c-.67,2.61-2.92,3.27-5.42,3.16A33.8,33.8,0,0,1,91.22,247a65.55,65.55,0,0,0,.1-7.68c1-.15,2.15-.34,3.44-.46C99.09,238.59,103.9,239.4,102.47,245Zm-.7-14.86c1.59,4.79-1.66,6.3-5.38,6.64a38,38,0,0,1-5.23-.12c-.19-2.55-.46-5.11-.76-7.67a36.7,36.7,0,0,1,5.25-1.52C98.31,227.08,100.86,227.45,101.77,230.17Zm-1.46-10.9c1.59,4.78-1.67,6.29-5.39,6.63a35.52,35.52,0,0,1-4.91-.09c-.31-2.59-.61-5.18-.83-7.77a33,33,0,0,1,4.9-1.43l.09,0h0C96.85,216.17,99.4,216.54,100.31,219.27ZM84.37,201.62c3.44-3.85,8.91-4.78,14.17-6.78.15,6.06,1.67,11.9-1.47,16.77A15.84,15.84,0,0,1,95,214.06a16.76,16.76,0,0,1-1.33,1.07.48.48,0,0,0-.09.11,27.93,27.93,0,0,0-4.52,1.19c-.14-2-.23-3.93-.22-5.9a.79.79,0,0,0-1.15-.68c-1.8.75-3.62,1.42-5.47,2a27.11,27.11,0,0,0-.61-4.27,3,3,0,0,0-.09-.43A14.82,14.82,0,0,1,84.37,201.62ZM71.6,215c0-.07,0-.12,0-.17s.06.1.08.15Zm1-11.68c4.36-2.47,6.42.35,7.37,3.89l0,.11a31.05,31.05,0,0,1,.72,5c-2.47.79-5,1.51-7.48,2.21A35.73,35.73,0,0,1,71,209.75C70.18,207.24,70.16,204.71,72.57,203.36ZM28.41,191.8h0s0,0,0,0ZM41.67,232c-1.69,2.77-4.67,2.26-7.43,1a42.44,42.44,0,0,1-4-2.3.83.83,0,0,0,0-.12,37.7,37.7,0,0,0,2.35-7.18A29.5,29.5,0,0,1,39.47,225C42.15,226.29,43.83,228.4,41.67,232Zm3-4.71a7.9,7.9,0,0,0-4.07-3.44c3.1-.2,5.69-1.54,6.07-5.39a7.45,7.45,0,0,0-.09-2.3,9.24,9.24,0,0,1,2,2.12,33.15,33.15,0,0,1,2.36,4.57A39.85,39.85,0,0,0,44.68,227.24Zm8.43-5.65a39.4,39.4,0,0,1-2.92-4.26c-1.4-2.66-1.91-5.52,1.06-7.29,3.77-2.25,6,.1,7.35,3.22a.3.3,0,0,0,0,.08,0,0,0,0,0,0,0,39.47,39.47,0,0,1,1.52,5.2A64.58,64.58,0,0,0,53.11,221.59Zm8.82-15.42c4.38-2.47,6.44.39,7.38,4a31.67,31.67,0,0,1,.75,5.34c-2.47.7-4.93,1.42-7.34,2.23a35.45,35.45,0,0,1-2.38-5.12C59.55,210.05,59.53,207.53,61.93,206.17Zm-5.66-14.59c8.84,4.71,1.5,18.56-7.31,13.76a6.78,6.78,0,0,1-.78-.48C40.62,199.71,47.7,187,56.27,191.58ZM44.08,219.25c-.66,2.46-2.73,3.16-5.07,3.11h-.27s0,0-.06,0a29.71,29.71,0,0,1-5.61-1.15,39.06,39.06,0,0,0,.43-7.82c.65-.1,1.38-.21,2.14-.28C40.16,212.68,45.69,213.29,44.08,219.25Zm-2.37-7.46h0Zm1.66-7.59c1.55,4.57-1.46,6.19-5,6.64a35.56,35.56,0,0,1-5,.06v0a57.42,57.42,0,0,0-1.4-7.62,40,40,0,0,1,5-1.62C39.66,201.08,42.39,201.33,43.37,204.2Zm-3.15-11.83c2.32,4.11-.21,6.22-3.53,7.32a32.28,32.28,0,0,1-5.45,1c-.7-2.49-1.5-5-2.32-7.41a39.19,39.19,0,0,1,4.2-2.24C35.83,190,38.68,189.65,40.22,192.37ZM36.66,182c2,3.57.37,5.62-2.27,6.82a28.17,28.17,0,0,1-6.49,1.5c-.84-2.48-1.67-5-2.41-7.46a38.1,38.1,0,0,1,3.73-2l.33-.13a.65.65,0,0,0,.77-.2.81.81,0,0,0,.12-.14C32.87,179.53,35.28,179.53,36.66,182Z"/><path class="cls-18" d="M18.21,180.6l-.51-1.33a.14.14,0,0,0,0-.07l.49-.27-.53-.93-.22.13a28.84,28.84,0,0,0-1.32-4l-.27-.62a16.73,16.73,0,0,1,.63-3.49l0-.05c.1-.34.23-.66.36-1l-1.42-.57a14.32,14.32,0,0,0-.84,2.71c-1.67-2.61-4.05-4.31-7.49-3-3.26,1.27-4.23,3.43-4,5.84A5.33,5.33,0,0,0,0,172.58v2.48c2.32,0,3.8,1.94,4.78,4.27a38.06,38.06,0,0,1,1.39,4.56C4.09,184.92,2,186,0,187.1v2.77c2.21-1.16,4.46-2.23,6.7-3.3C10.29,184.86,14.38,182,18.21,180.6ZM7.59,183.18v0s0,0,0,0Zm8.73-3.2,0,0-.75.39ZM5.5,176.82c-1-2.72-.73-5.33,3.22-6.43,2.69-.74,4.4,1,5.55,3.24a1.23,1.23,0,0,0,0,.19.64.64,0,0,0,.41.68c.05.11.1.22.14.33A38.72,38.72,0,0,1,16,178.9c-2.29,1.24-4.63,2.41-7,3.57A28.39,28.39,0,0,1,5.5,176.82Z"/><path class="cls-19" d="M149.77,263.14c-.48,0-1,0-1.46,0-.84,0-1.68.07-2.5.16l.88,1.46.68-.06c4.44-.27,9.58.58,7.91,6.33-.74,2.58-3,3.18-5.49,3a31.38,31.38,0,0,1-5.59-1.25c.18-2.61.36-5.22.64-7.82l-2.21-.32c-.32,3.06-1.06,6.76-1.12,7.95-.28,5.26-.39,10.54-1.19,15.77A37.58,37.58,0,0,1,130,309.73c-.6.58-1.22,1.15-1.86,1.69l1,1.23.25-.2a36.16,36.16,0,0,1,3.53,3.79c1.87,2.49,2.9,5.35.08,7.56s-4.93,1.29-6.59-.62l-1.19,1a9.36,9.36,0,0,0,2.65,2.41c-.21.32-.4.67-.58,1l1.31.82a10.22,10.22,0,0,1,.73-1.25,5.79,5.79,0,0,0,4.71-1.2c3.06-2.14,3.08-4.91,1.87-7.59,2.54,1.63,5.34,2,7.94-.85a7,7,0,0,0,1.41-2.2c7-2.31,14.08-2.38,21.37-1.54,4.26.49,8.47,1.24,12.71,1.8,2.33.31,6.12-.23,8.12.76,2.59,1.28-.18,5.71-1,8.5-.95,3.42-1.72,6.87-2.62,10.3-2.14,8.17-4.85,15.89-10.4,22.32a7.06,7.06,0,0,0-3.3.75c-3.09,1.44-3.68,4-3.19,6.77l-1.1,1.16a10.32,10.32,0,0,1,1.7,2.06,33.23,33.23,0,0,1,2.41,5l.69,1.41q1-.5,2-.93l.4-.15c.34-.15.7-.28,1-.41a37,37,0,0,1,20.26-1.27,100.25,100.25,0,0,1,13.35,4.07c3.75,1.33,8.66,2.2,12.36,3.92l.58-1.3,0-.06.53.15.29-1-.25-.06a29.13,29.13,0,0,0,1.87-3.75c.09-.21.17-.41.25-.62a17,17,0,0,1,2.91-2l0,0a10.45,10.45,0,0,1,1-.44l-.6-1.41a14.1,14.1,0,0,0-2.51,1.32c.66-3,.18-5.91-3.2-7.39-3.2-1.41-5.42-.57-7,1.29a5.26,5.26,0,0,0-3.51-4.9,9,9,0,0,0-1.75-.55c5.43-2.12,9.46-8.13,5.91-14.77s-10.83-6.62-15.61-3.2c.05-.12.12-.21.17-.33,1.3-3.36.29-5.57-1.74-7a5.24,5.24,0,0,0,4.54-3.61c1.76-4.5-.66-6.94-4.09-8.27a13.24,13.24,0,0,0,3.55-2.11c5.12-4,6.5-10.53,9.56-17.1a.78.78,0,0,0-.67-1.15c-8.63.37-16.49-1.6-22.76,4.8.1-3.26-1-6.12-4.85-6.83-3.25-.6-5.18.62-6.31,2.65a5.3,5.3,0,0,0-4.59-4.13,8,8,0,0,0-1.63-.15c4.92-3.13,7.68-9.86,2.89-15.68s-11.88-4.35-15.89-.08a7,7,0,0,0,.15-.84c.37-3.26-1-5.11-3.11-6.09a5.34,5.34,0,0,0,3.78-4.9c.51-4.43-2.19-6.24-5.62-6.84a12.91,12.91,0,0,0,3.05-2.74l.16-.18-1.2-1A15.17,15.17,0,0,1,149.77,263.14Zm37.79,67.77.15.08h-.17Zm-.44,1.61a31.67,31.67,0,0,1,5.34.75c3.56.94,6.42,3,3.95,7.38-1.36,2.4-3.88,2.38-6.4,1.59a36.55,36.55,0,0,1-5.12-2.38C185.7,337.45,186.42,335,187.12,332.52ZM184,342.41a39.47,39.47,0,0,1,5.2,1.52h0l.08,0c3.11,1.35,5.47,3.58,3.22,7.35-1.77,3-4.63,2.46-7.29,1.06a39.4,39.4,0,0,1-4.26-2.92A64.58,64.58,0,0,0,184,342.41Zm-4.23,9.26a33.15,33.15,0,0,1,4.57,2.36,9.24,9.24,0,0,1,2.12,2,7.45,7.45,0,0,0-2.3-.09c-3.85.38-5.19,3-5.39,6.07a7.9,7.9,0,0,0-3.44-4.07A39.85,39.85,0,0,0,179.78,351.67ZM172,372.28l-.11,0a42.44,42.44,0,0,1-2.3-4c-1.26-2.76-1.76-5.74,1-7.43,3.55-2.16,5.66-.48,6.92,2.2a29.5,29.5,0,0,1,1.67,6.82A38,38,0,0,0,172,372.28Zm17.45-5.34c-.07.76-.18,1.49-.28,2.14a39.06,39.06,0,0,0-7.82.43,29.71,29.71,0,0,1-1.15-5.61s0,0,0-.06a2.44,2.44,0,0,1,0-.27c-.05-2.34.65-4.41,3.11-5.07C189.29,356.89,189.9,362.42,189.48,366.94Zm1.31-6.07v0h0A0,0,0,0,1,190.79,360.87Zm10.15,4.82a38.36,38.36,0,0,1-1.63,5,57,57,0,0,0-7.61-1.4h0a37.18,37.18,0,0,1,0-5c.46-3.57,2.08-6.58,6.65-5C201.25,360.19,201.5,362.92,200.94,365.69Zm9.84,8.48h0l0,0S210.79,374.17,210.78,374.17Zm8.43,3.94-.81-.25.81.22Zm-5.41-9.92c1.2-2.64,3.25-4.28,6.82-2.27,2.43,1.38,2.43,3.79,1.63,6.22l-.15.12a.66.66,0,0,0-.19.77c0,.11-.08.22-.13.33a38.1,38.1,0,0,1-2,3.73c-2.5-.74-5-1.57-7.46-2.41A28.17,28.17,0,0,1,213.8,368.19Zm-3.59-5.83c2.72,1.54,2.4,4.39,1.3,7.1a39.19,39.19,0,0,1-2.24,4.2c-2.45-.82-4.92-1.62-7.41-2.32a32.28,32.28,0,0,1,1-5.45C204,362.57,206.1,360,210.21,362.36Zm.79-16.05c4.59,8.57-8.13,15.65-13.28,8.09a6.78,6.78,0,0,1-.48-.78C192.43,344.81,206.29,337.47,211,346.31ZM199.22,330c-1.36,2.41-3.88,2.39-6.39,1.6a35.73,35.73,0,0,1-4.84-2.23c.7-2.51,1.42-5,2.21-7.48a30,30,0,0,1,5,.72l.11,0C198.87,323.59,201.69,325.65,199.22,330Zm-11.88-21a.48.48,0,0,0,.11-.09,16.76,16.76,0,0,1,1.07-1.33,15.84,15.84,0,0,1,2.45-2.08c4.87-3.14,10.71-1.62,16.77-1.47-2,5.26-2.93,10.73-6.78,14.17a14.82,14.82,0,0,1-5.56,2.86A3.29,3.29,0,0,0,195,321a26.14,26.14,0,0,0-4.27-.61c.61-1.85,1.27-3.67,2-5.47a.78.78,0,0,0-.67-1.15c-2,0-3.94-.08-5.9-.22A27.93,27.93,0,0,0,187.34,309Zm-10.66-1.36c.34-3.71,1.85-7,6.63-5.38,2.73.91,3.1,3.46,2.68,6.13h0l0,.1a33.41,33.41,0,0,1-1.42,4.9c-2.59-.22-5.18-.52-7.77-.83A35.64,35.64,0,0,1,176.68,307.65ZM144.1,274.39h0Zm-3.53,21.89c1.08.26,2.35.6,3.63,1,3.62,1.33,6.85,3.65,4.27,7.86-1.67,2.72-4.23,2.46-6.69,1.28a30.67,30.67,0,0,1-4.62-3.11A38.75,38.75,0,0,0,140.57,296.28ZM142,315.67c-2.66,2.93-5.45,1.61-7.75-.63a36.83,36.83,0,0,1-3.25-4c.06-.05.1-.11.15-.16a38.54,38.54,0,0,0,4.85-5.67,35.44,35.44,0,0,1,4.48,2.9C142.93,310.14,144.58,312.77,142,315.67Zm3.63-2.3a7.53,7.53,0,0,0-2.32-4.69c2.87.95,5.71.68,7.52-2.64a7.87,7.87,0,0,0,.83-2.21,10.2,10.2,0,0,1,1.11,3.27,40.75,40.75,0,0,1,.31,4.53A39.19,39.19,0,0,0,145.58,313.37Zm7-19.39c-1.27,2.7-3.94,2.73-6.6,1.94a36.41,36.41,0,0,1-4.64-2,1,1,0,0,0,0-.12,58.27,58.27,0,0,0,1.59-7.46,33.64,33.64,0,0,1,6.16.77C152.23,288,154.5,289.94,152.58,294Zm22.55,18.39.06-.15s0,.1,0,.16Zm-2.72-11.56c2.71.91,3.09,3.46,2.67,6.12a35.39,35.39,0,0,1-1.53,5.25c-2.55-.3-5.11-.57-7.66-.76a38,38,0,0,1-.12-5.23C166.11,302.47,167.62,299.22,172.41,300.81ZM170,284.92c6.14,7.48-5.09,17-11.53,10.47a8.57,8.57,0,0,1-.62-.7C151.54,286.85,163.67,277.19,170,284.92Zm-12.45,15.19c5.62-1.44,6.44,3.38,6.13,7.71-.12,1.29-.31,2.49-.46,3.44a61.47,61.47,0,0,0-7.68.1,33.8,33.8,0,0,1-1.15-5.83C154.28,303,154.94,300.78,157.55,300.11Zm-3-18.09c-.75,2.58-3,3.18-5.5,3a33.56,33.56,0,0,1-5.79-1.31c.3-2.56.51-5.15.68-7.74.81-.11,1.73-.22,2.72-.29C151.14,275.44,156.26,276.27,154.6,282Z"/><path class="cls-20" d="M104.34,211.18a.62.62,0,0,0,0,.6.78.78,0,0,0,.2.31,12.58,12.58,0,0,1,4,8.06.86.86,0,0,0,.11.33.79.79,0,0,0,.93.6c11.35-2.22,21,5.75,21,17.3a.69.69,0,0,0,.57.71.58.58,0,0,0,.4.09,12.85,12.85,0,0,1,8.89,2.35.64.64,0,0,0,.56.12.61.61,0,0,0,.37-.11,33.44,33.44,0,0,1,13.32-4.33l-1.47-2.44a5.22,5.22,0,0,1-4.49-1.26,5.44,5.44,0,0,1,0-7.7l-1.42-1.31a5.35,5.35,0,0,1-7.63.82,5.49,5.49,0,0,1-.34-7.68L138,216.57l0,0-.14.15a5.51,5.51,0,0,1-7.56.57,5,5,0,0,1-.65-7.42l-1.52-1.22a5.47,5.47,0,0,1-7.43,1,5.57,5.57,0,0,1-1.31-7.16l.29-.44L118.25,201a5.46,5.46,0,0,1-7.44,1.34,6.26,6.26,0,0,1-2.15-3.55l-2.58-.25A32.38,32.38,0,0,1,104.34,211.18Z"/><path class="cls-21" d="M160.93,261.55a.61.61,0,0,0,.12.56A12.85,12.85,0,0,1,163.4,271a.54.54,0,0,0,.09.39.69.69,0,0,0,.71.58c11.55,0,19.52,9.66,17.3,21a.79.79,0,0,0,.6.93.71.71,0,0,0,.33.1,12.64,12.64,0,0,1,8.06,4,.78.78,0,0,0,.31.2.62.62,0,0,0,.6,0A32.38,32.38,0,0,1,204,296.5l-.25-2.58a6.26,6.26,0,0,1-3.55-2.15,5.46,5.46,0,0,1,1.34-7.44L200.47,283l-.43.29a5.58,5.58,0,0,1-7.16-1.31,5.47,5.47,0,0,1,1-7.43L192.69,273a5,5,0,0,1-7.42-.66,5.48,5.48,0,0,1,.57-7.55l.15-.14,0,0-1.07-1.36a5.49,5.49,0,0,1-7.68-.34,5.35,5.35,0,0,1,.82-7.63l-1.32-1.42a5.44,5.44,0,0,1-7.7-.05,5.25,5.25,0,0,1-1.25-4.49l-2.44-1.48A33.65,33.65,0,0,1,161,261.18.61.61,0,0,0,160.93,261.55Z"/><path class="cls-22" d="M18.85,364.21l0,0v0S18.84,364.21,18.85,364.21Z"/><path class="cls-23" d="M38.37,383.75h0s0,0,0,0S38.36,383.75,38.37,383.75Z"/><path class="cls-24" d="M14.51,360.48l0,0v0Z"/><path class="cls-25" d="M42.08,388.1h0l0,0S42.09,388.1,42.08,388.1Z"/><path class="cls-26" d="M90.2,227.38s0,0,0,.07l.15-.06Z"/><path class="cls-27" d="M175.13,312.37h.07c0-.06,0-.11,0-.16Z"/><path class="cls-28" d="M121.75,130.14a4.15,4.15,0,0,1-1.24,1.83l1.55,1.64,2.27,1c3.62-6.12,11.2-7.39,17.12-4,4.71,3.69,6.9,10.07,3.91,15.65a12.58,12.58,0,0,1-1.23,1.87l2,1.55,0,0,2.18.53a4.34,4.34,0,0,1,1.22-1.68c2.11-1.85,3.9-1.86,5.37-.91l1.23-1.39c-1.93-1.76-4.35-2.41-7.34-.43l-.19.16a15.21,15.21,0,0,0-5-18.3s0,0,0,0a.32.32,0,0,0-.12-.11c-6.19-3.58-14-2.88-18.86,2.34a.14.14,0,0,1,0-.07c.73-3.38-.58-5.37-2.76-6.53l-1.08,1.57C122.11,125.87,122.69,127.53,121.75,130.14Z"/><path class="cls-29" d="M254,253.08a4.3,4.3,0,0,1-1.69,1.22l.54,2.17,0,0,1.55,1.95a12.58,12.58,0,0,1,1.87-1.23c5.58-3,12-.8,15.65,3.91,3.4,5.92,2.13,13.5-4,17.12l1,2.27,1.65,1.55a4.15,4.15,0,0,1,1.83-1.24c2.61-.94,4.27-.36,5.29,1l1.57-1.08c-1.16-2.18-3.15-3.49-6.53-2.76l-.07,0c5.22-4.83,5.92-12.68,2.34-18.86a.32.32,0,0,0-.11-.12s0,0,0,0a15.21,15.21,0,0,0-18.3-5c.06-.07.11-.12.16-.19,2-3,1.33-5.41-.43-7.34L255,247.71C255.9,249.18,255.89,251,254,253.08Z"/><path class="cls-30" d="M71.6,215l.07,0c0-.05-.06-.1-.08-.15S71.6,215,71.6,215Z"/><path class="cls-31" d="M187.56,330.91l0,.07h.17Z"/><path class="cls-32" d="M262,402.16l-.44-1.88a5.37,5.37,0,0,1-7.07-3.12,5.54,5.54,0,0,1,3.37-6.93l-.1-1.64-.41.16a5.52,5.52,0,0,1-7-3.2,5.86,5.86,0,0,1,.68-5.05l-1.76-2a33,33,0,0,1-9.09,10.69.79.79,0,0,0-.28.39.73.73,0,0,0-.12.64,12.64,12.64,0,0,1-1.2,8.9.71.71,0,0,0-.09.42.82.82,0,0,0,.5.91,18.41,18.41,0,0,1,5.85,3.79h14A5.65,5.65,0,0,1,262,402.16Z"/><path class="cls-33" d="M39,173a.83.83,0,0,0,.07.48.75.75,0,0,0,.37.53,12.7,12.7,0,0,1,5.45,7.14.71.71,0,0,0,.23.37.84.84,0,0,0,1,.29c10.66-4.45,21.67,1.67,23.95,12.93a.64.64,0,0,0,.75.54.65.65,0,0,0,.39,0,12.54,12.54,0,0,1,9,.53,1.37,1.37,0,0,0,1.1-.15,32.13,32.13,0,0,1,10.93-6.35l-.91-2.51A5.2,5.2,0,0,1,85.23,179l-1.56-1.14a5.27,5.27,0,1,1-9.11-5.26l-1.66-1a5,5,0,0,1-7.27,2.52,5.11,5.11,0,0,1-2-7.38l-1.64-1a5.36,5.36,0,0,1-7.21,2.79,5.54,5.54,0,0,1-2.51-7.28L51,160.18c0,.14-.11.27-.17.4a5.52,5.52,0,0,1-7.19,2.67,5.85,5.85,0,0,1-3.09-4.05L37.88,159A33.15,33.15,0,0,1,39,173Zm46.3,14.08,0,0-.06,0S85.31,187.11,85.31,187.1Z"/><path class="cls-34" d="M3,164.1a.71.71,0,0,0,.42-.09,12.64,12.64,0,0,1,8.9-1.2.73.73,0,0,0,.64-.12.79.79,0,0,0,.39-.28,33,33,0,0,1,10.69-9.09l-2-1.76a5.86,5.86,0,0,1-5,.68,5.52,5.52,0,0,1-3.2-7c.05-.14.1-.27.16-.41l-1.64-.1a5.54,5.54,0,0,1-6.93,3.37,5.37,5.37,0,0,1-3.12-7.07l-1.88-.44A6.18,6.18,0,0,1,0,141.73v18a19.16,19.16,0,0,1,2.12,3.84A.82.82,0,0,0,3,164.1Z"/><path class="cls-35" d="M206.71,321.9a.75.75,0,0,0,0,.48,12.54,12.54,0,0,1,.53,9,.65.65,0,0,0,0,.39.64.64,0,0,0,.54.75c11.26,2.28,17.37,13.29,12.93,23.95a.83.83,0,0,0,.29,1,.72.72,0,0,0,.36.23,12.65,12.65,0,0,1,7.15,5.45.7.7,0,0,0,.53.36.76.76,0,0,0,.48.08,33.15,33.15,0,0,1,14,1.13l-.16-2.65a5.83,5.83,0,0,1-4-3.09,5.52,5.52,0,0,1,2.67-7.19l.4-.18-1.09-1.23a5.54,5.54,0,0,1-7.28-2.51,5.36,5.36,0,0,1,2.79-7.21l-1-1.64a5.11,5.11,0,0,1-7.38-2.05,5,5,0,0,1,2.52-7.27l-1-1.66a5.27,5.27,0,1,1-5.26-9.11l-1.14-1.56a5.2,5.2,0,0,1-7.77-6.09l-2.51-.91a32.13,32.13,0,0,1-6.35,10.93A.74.74,0,0,0,206.71,321.9Zm8.75-4.67s0,0,0,0,0,0,0,0A.42.42,0,0,1,215.46,317.23Z"/><path class="cls-36" d="M158.22,105.79h0l-.11-.07-.1-.07h0l0,0c-5-2.87-11.3-1.79-14.37,3.33a10.32,10.32,0,0,0,3,13.7h0l.11.07.11.07h0a10.33,10.33,0,0,0,13.81-2.48C164.21,115.56,162.78,109.28,158.22,105.79Z"/><path class="cls-37" d="M297,244.6h0a.36.36,0,0,0-.07-.1l-.07-.11v0h0c-3.49-4.55-9.77-6-14.55-2.43a10.32,10.32,0,0,0-2.48,13.8s0,0,0,0h0l.07.11.07.11h0a10.32,10.32,0,0,0,13.7,3c5.12-3.07,6.2-9.41,3.33-14.37Z"/><path class="cls-38" d="M172.23,84.85l0,0s0,0,0,0l-.11-.06a.81.81,0,0,0-.1-.09h0c-4-2.3-9-1.44-11.49,2.66a8.24,8.24,0,0,0,2.39,11h0l.12.07.1.07v0h0a8.24,8.24,0,0,0,11-2C177,92.65,175.86,87.63,172.23,84.85Z"/><path class="cls-39" d="M317.9,230.6h0a.81.81,0,0,0-.09-.1l-.06-.11s0,0,0,0l0,0c-2.78-3.63-7.8-4.78-11.64-1.93a8.26,8.26,0,0,0-2,11h0a.36.36,0,0,0,.07.1l.07.11h0v0a8.25,8.25,0,0,0,11,2.39c4.1-2.45,5-7.53,2.66-11.49Z"/><path class="cls-40" d="M183.42,68.08h0l-.12-.07-.09-.07h0a6.55,6.55,0,0,0-7.27,10.9h0l.12.07.09.07,0,0h0a6.55,6.55,0,0,0,7.28-10.9Z"/><path class="cls-41" d="M334.66,219.41v0a.86.86,0,0,1-.07-.1l-.07-.11h0a6.55,6.55,0,0,0-10.9,7.28h0a.86.86,0,0,0,.07.1l.07.12h0a6.55,6.55,0,0,0,10.9-7.28Z"/><path class="cls-42" d="M192.51,54.79a.47.47,0,0,0-.13-.11h0l-.12-.06a.29.29,0,0,0-.1-.08h0a.46.46,0,0,0-.16-.07,5.23,5.23,0,0,0-5.66,8.79h0l.1.08.12.07h0a5.23,5.23,0,0,0,6-8.6Z"/><path class="cls-43" d="M348.08,210.46s0,0,0,0h0a.36.36,0,0,0-.08-.09.45.45,0,0,0-.06-.12h0v0a.36.36,0,0,0-.11-.13,5.23,5.23,0,0,0-8.6,6h0a.75.75,0,0,1,.07.12l.08.1v0h0a5.23,5.23,0,0,0,8.79-5.66A.46.46,0,0,0,348.08,210.46Z"/><path class="cls-44" d="M41.71,211.79h0Z"/><path class="cls-45" d="M190.79,360.87a0,0,0,0,0,0,0h0Z"/><path class="cls-46" d="M199.55,44h0l-.12-.07-.1-.08h0a4.19,4.19,0,0,0-4.66,7h0l.1.07.12.07h0a4.2,4.2,0,0,0,4.67-7Z"/><path class="cls-47" d="M358.8,203.28h0l-.08-.1-.07-.12h0v0a4.2,4.2,0,0,0-7,4.67h0l.08.12a.31.31,0,0,0,.07.09v0h0a4.19,4.19,0,0,0,7-4.66Z"/><path class="cls-48" d="M205.28,35.36h0l-.1-.07-.11-.08h0a3.35,3.35,0,0,0-3.74,5.57l0,0h0l.1.07.11.07h0a3.37,3.37,0,0,0,4.52-.8A3.42,3.42,0,0,0,205.28,35.36Z"/><path class="cls-49" d="M367.37,197.54h0l-.08-.11-.07-.1h0v0a3.43,3.43,0,0,0-4.78-.8,3.38,3.38,0,0,0-.8,4.53h0l.07.11.07.1h0a3.35,3.35,0,0,0,5.57-3.73Z"/><path class="cls-50" d="M349.68,402.24c2.35-2.86,1.71-5.49-.11-7.73,3.19,1.45,6.43,1.35,8.44-2.95a5.38,5.38,0,0,0-1.12-6.4c2.84.82,5.55.24,7.21-3.5a5.34,5.34,0,0,0-1.12-6.32c2.68.5,5.15-.33,6.55-3.91a5.29,5.29,0,0,0-1.22-6.1c2.4.22,4.55-.76,5.82-4a5.29,5.29,0,0,0-1.19-6.08c2.5.31,4.76-.62,6.07-4a5.31,5.31,0,0,0-1.19-6.08c2.49.31,4.76-.61,6.07-4a5.25,5.25,0,0,0-.86-5.7c2.42.24,4.61-.72,5.89-4,1.34-3.45-.36-5.83-3-7.5a12.8,12.8,0,0,0,3.71-1.31c5.88-2.92,8.51-9.17,12.82-15.05a.7.7,0,0,0,0-.69.68.68,0,0,0-.51-.45c-7.21-1.11-13.48-3.67-19.71-1.58a12.65,12.65,0,0,0-3.55,1.7c.67-3,.19-5.92-3.19-7.41s-5.45-.55-7,1.33a5.23,5.23,0,0,0-3.42-4.63c-3.31-1.46-5.56-.51-7.11,1.47a5.29,5.29,0,0,0-3.45-5.14c-3.31-1.45-5.57-.51-7.12,1.47a5.29,5.29,0,0,0-3.45-5.14c-3.2-1.4-5.41-.57-7,1.28a5.28,5.28,0,0,0-3.45-5.17c-3.52-1.54-5.85-.38-7.39,1.86a5.36,5.36,0,0,0-3.68-5.26c-3.82-1.47-6.14,0-7.57,2.63a5.39,5.39,0,0,0-3.74-5.32c-4.46-1.62-6.82.6-8,3.88-.3-2.87-1.7-5.18-5.39-5.54s-5.61,1.62-6.43,4.39c-.78-3-2.65-5.13-6.66-4.64a5.4,5.4,0,0,0-5.09,4.67,5.39,5.39,0,0,0-.29-.59l-1.57,1.08a8.32,8.32,0,0,1,1.37,3.82,36.45,36.45,0,0,1,.1,5.36c-2.54.38-5.06.86-7.55,1.48l.38,1.69a72.93,72.93,0,0,1,20.54-1.72c19.77,1.14,38.31,9.35,56.58,16.28,4.87,1.84,9.74,3.62,14.69,5.19,2.52.8,5.06,1.56,7.61,2.25,2.17.57,3.91.45,4.29,1.85.72,1.26-.59,2.41-1.72,4.35-1.32,2.29-2.58,4.62-3.79,7-2.39,4.61-4.58,9.32-6.72,14.06-8,17.82-15.33,36.73-28.5,51.52a72.87,72.87,0,0,1-10,9.32h4.39l-.38-.7c2-1.61,4-3.31,5.87-5.13.63.49,1.35,1.07,2.09,1.71a14.78,14.78,0,0,1,3.39,4.12h2c-.1-.19-.2-.38-.31-.57a9.07,9.07,0,0,0,1.29.57h3.77A6.48,6.48,0,0,0,349.68,402.24ZM290.26,287.41c-.07,1-.17,1.9-.27,2.69-2.61,0-5.21.23-7.77.52a30.48,30.48,0,0,1-1.29-5.61c-.19-2.49.38-4.76,2.95-5.52C289.65,277.77,290.5,283,290.26,287.41Zm11.4-1.61a32.79,32.79,0,0,1-1.19,4.85c-.32,0-.63-.09-1-.12-2.31-.25-4.62-.35-6.92-.39a34.4,34.4,0,0,1-.27-4.28c.11-3.91,1.43-7.59,6.43-6.09C301.51,280.59,302,283.13,301.66,285.8ZM313,287.57a33.5,33.5,0,0,1-1.85,4.83c-2.54-.53-5.1-1-7.68-1.36a34.29,34.29,0,0,1,.34-5c.65-3.66,2.43-6.79,7-4.8C313.45,282.41,313.63,285,313,287.57ZM324,290.51a32.87,32.87,0,0,1-2.09,4.61c-2.52-.72-5.05-1.4-7.6-2a33.16,33.16,0,0,1,.7-5c.94-3.57,3-6.44,7.38-4C324.85,285.47,324.83,288,324,290.51Zm53.65,19.29c.09-.21.16-.42.25-.63a17.68,17.68,0,0,1,2.91-2l0,0c.31-.17.64-.29,1-.43,5.43-2.15,11,.44,17,1.78-3.27,5.16-5.39,10.94-10.75,13.27-.32.12-.64.26-1,.36l-.05,0a17.67,17.67,0,0,1-3.49.63c-.21-.09-.41-.19-.62-.27a26.93,26.93,0,0,0-3.61-1.22c1.08-1.84,2.19-3.65,3.36-5.44a.79.79,0,0,0-.47-1.14q-3.14-.66-6.22-1.47A26.41,26.41,0,0,0,377.69,309.8Zm.7,10.47c-.11.22-.23.44-.35.66H378Zm-1.14,2c-.34.6-.7,1.19-1.06,1.76l1-1.78Zm-42.91-27.49a39.8,39.8,0,0,1-1.95,3.63q-3.75-1.29-7.51-2.45a27.5,27.5,0,0,1,1.47-6.36c1.2-2.63,3.26-4.27,6.83-2.26C336,289,335.55,292,334.34,294.82Zm10,7.9h0Zm.37-4a38.75,38.75,0,0,1-1.85,3.45c-2.52-.91-5-1.83-7.57-2.71a28.11,28.11,0,0,1,1.44-5.92c1.19-2.64,3.24-4.28,6.82-2.26C346.42,292.88,346,295.92,344.75,298.72Zm10.17,7.84-.07,0a1,1,0,0,0,.1-.17Zm.4-4.17a34.74,34.74,0,0,1-2,3.6c-2.49-.89-5-1.81-7.47-2.72a27.87,27.87,0,0,1,1.44-6.06c1.2-2.64,3.26-4.28,6.83-2.26C357,296.55,356.53,299.58,355.32,302.39Zm8.62,7.26q-3.76-1.23-7.51-2.55a28.83,28.83,0,0,1,1.46-6.23c1.21-2.63,3.26-4.27,6.83-2.26,2.84,1.61,2.38,4.64,1.16,7.44A38,38,0,0,1,363.94,309.65Zm9.82,4.34-2-.54c.66.14,1.33.31,2,.49A.13.13,0,0,0,373.76,314Zm.69-1.19c-2.55-.69-5.1-1.41-7.62-2.21a28.17,28.17,0,0,1,1.48-6.41c1.2-2.63,3.26-4.28,6.83-2.27,2.42,1.38,2.43,3.79,1.62,6.23l-.14.11a.64.64,0,0,0-.18.78c-.05.1-.09.22-.14.33A37.15,37.15,0,0,1,374.45,312.8Zm.84,1.6s0,0,0,0l.71.22C375.79,314.51,375.54,314.46,375.29,314.4Zm3.24,8.25a36.26,36.26,0,0,1,3.74,1.12l.33.14a.65.65,0,0,0,.68.42l.18,0c2.29,1.15,4,2.86,3.25,5.55-1.1,3.94-3.72,4.24-6.43,3.22a28.09,28.09,0,0,1-5.58-3.48C375.92,327.25,377.21,324.94,378.53,322.65Zm-5.21,9.66a36.27,36.27,0,0,1,3.92,1.17c2.84,1.12,5.31,2.94,4.44,6.08-1.1,3.95-3.71,4.24-6.43,3.23a28.33,28.33,0,0,1-5.43-3.37Q371.53,335.83,373.32,332.31Zm-4.19,8.56.16.12-.19-.05Zm-.7,1.5a36.39,36.39,0,0,1,3.93,1.17c2.84,1.13,5.31,2.94,4.44,6.08-1.1,3.95-3.71,4.25-6.43,3.23a28.13,28.13,0,0,1-5.3-3.27C366.18,347.18,367.3,344.77,368.43,342.37Zm-4,8.67h0Zm-.66,1.43a38.44,38.44,0,0,1,3.75,1.13c2.84,1.13,5.31,2.95,4.44,6.09-1.1,3.95-3.71,4.24-6.42,3.22a28,28,0,0,1-5.2-3.17C361.46,357.33,362.6,354.9,363.73,352.47Zm-4.8,10.07a40.08,40.08,0,0,1,3.95,1.18c2.84,1.13,5.31,2.94,4.44,6.08-1.1,3.95-3.72,4.25-6.43,3.23a27.8,27.8,0,0,1-5.54-3.45Q357.19,366.1,358.93,362.54Zm-5,9.73a33.78,33.78,0,0,1,4.74,1.78c2.33,1.22,4.14,3,3.39,5.67-1.37,4.84-4.84,4.26-8,2.4a33,33,0,0,1-4.06-3.06C351.32,376.83,352.63,374.56,353.9,372.27Zm-5.71,9.57a33.42,33.42,0,0,1,4.72,2.11c2.29,1.39,4,3.32,2.91,6-1.81,4.63-5.28,3.68-8.33,1.55a35.53,35.53,0,0,1-3.78-3.3C345.28,386.15,346.77,384,348.19,381.84Zm.17,17.68c-2.47,4.6-6,2.93-8.85.24a34,34,0,0,1-2.84-3.21c1.6-1.66,3.16-3.36,4.62-5.17.21-.25.39-.51.59-.76a33.61,33.61,0,0,1,4.27,2.59C348.26,394.88,349.72,397,348.36,399.52Z"/><path class="cls-51" d="M7.65,67.57c14.79-13.17,33.7-20.48,51.52-28.5,4.74-2.14,9.45-4.33,14.06-6.72,2.35-1.21,4.68-2.47,7-3.79,1.94-1.13,3.09-2.44,4.35-1.72,1.4.38,1.28,2.12,1.85,4.29.69,2.55,1.45,5.09,2.25,7.61,1.57,4.94,3.35,9.82,5.19,14.69C100.77,71.7,109,90.24,110.12,110a72.56,72.56,0,0,1-1.73,20.54l1.7.38c.62-2.49,1.1-5,1.48-7.55a36.45,36.45,0,0,1,5.36.1,8.32,8.32,0,0,1,3.82,1.37l1.08-1.57a5.39,5.39,0,0,0-.59-.29,5.4,5.4,0,0,0,4.67-5.09c.49-4-1.68-5.88-4.64-6.67,2.77-.81,4.76-2.65,4.39-6.42s-2.67-5.09-5.54-5.39c3.28-1.23,5.5-3.59,3.88-8.06a5.39,5.39,0,0,0-5.32-3.73c2.59-1.43,4.1-3.75,2.63-7.57a5.36,5.36,0,0,0-5.26-3.68c2.24-1.54,3.4-3.87,1.86-7.39a5.3,5.3,0,0,0-5.17-3.46c1.85-1.54,2.68-3.75,1.28-7a5.29,5.29,0,0,0-5.14-3.45c2-1.55,2.92-3.81,1.47-7.12a5.32,5.32,0,0,0-5.14-3.46c2-1.54,2.93-3.79,1.47-7.1A5.23,5.23,0,0,0,102,34c1.89-1.55,2.76-3.77,1.34-7C101.89,23.65,99,23.16,96,23.84a12.78,12.78,0,0,0,1.7-3.55c2.09-6.23-.47-12.5-1.58-19.71a.68.68,0,0,0-.45-.51.7.7,0,0,0-.69,0c-5.88,4.31-12.13,6.94-15,12.82a12.8,12.8,0,0,0-1.31,3.71c-1.67-2.62-4-4.32-7.5-3-3.28,1.28-4.24,3.47-4,5.89a5.25,5.25,0,0,0-5.7-.86c-3.37,1.31-4.29,3.58-4,6.07a5.31,5.31,0,0,0-6.08-1.19c-3.37,1.31-4.3,3.57-4,6.07a5.29,5.29,0,0,0-6.08-1.19c-3.25,1.27-4.23,3.42-4,5.82a5.29,5.29,0,0,0-6.1-1.22c-3.58,1.4-4.41,3.87-3.91,6.55a5.34,5.34,0,0,0-6.32-1.12c-3.74,1.66-4.32,4.37-3.5,7.21A5.38,5.38,0,0,0,11,44.57c-4.3,2-4.4,5.25-2.95,8.44C5.83,51.19,3.2,50.55.34,52.9L0,53.2V63.3a18.55,18.55,0,0,1,2.45,2.33c.64.74,1.22,1.46,1.71,2.09C2.7,69.23,1.33,70.81,0,72.42V75.5A72.41,72.41,0,0,1,7.65,67.57ZM51.53,38.19v0Zm10.11-4.71a1.33,1.33,0,0,0,0-.19l.12.16Zm16.87-7.09c.57-.36,1.16-.72,1.76-1.06,0,0,0,0,0,.05Zm3.15-1.8a.09.09,0,0,0,0-.05l.66-.35Zm6.52,2.7c-.07-.25-.11-.5-.18-.75.08.24.15.48.22.72C88.2,27.27,88.19,27.27,88.18,27.29Zm.41,1.52a.06.06,0,0,0,0,0c.18.67.34,1.34.49,2Zm7.46,18.92,0-.07.2,0A1,1,0,0,0,96.05,47.73Zm3.82,10.48h0Zm23.22,60.48c-.77,2.58-3,3.15-5.52,3a30.48,30.48,0,0,1-5.61-1.29c.29-2.56.48-5.16.52-7.77.79-.1,1.71-.2,2.69-.27C119.62,112.08,124.81,112.92,123.09,118.69Zm-.28-14.87c1.5,5-2.18,6.32-6.09,6.42a32.68,32.68,0,0,1-4.28-.26c0-2.3-.14-4.61-.39-6.92,0-.32-.08-.64-.12-1a32.49,32.49,0,0,1,4.85-1.19C119.45,100.61,122,101.07,122.81,103.82Zm-1.47-12c2,4.55-1.14,6.33-4.8,7a35.79,35.79,0,0,1-5,.34c-.36-2.58-.82-5.15-1.35-7.68A33.5,33.5,0,0,1,115,89.59C117.62,89,120.17,89.13,121.34,91.8Zm-2.87-11.65c2.45,4.39-.41,6.44-4,7.38a33.16,33.16,0,0,1-5,.7q-.92-3.83-2-7.6a34,34,0,0,1,4.61-2.09C114.57,77.75,117.11,77.73,118.47,80.15ZM115.2,69.4c2,3.57.37,5.63-2.27,6.83a28,28,0,0,1-6.35,1.47q-1.15-3.77-2.45-7.51a39.8,39.8,0,0,1,3.63-2C110.57,67,113.59,66.56,115.2,69.4ZM111.3,59c2,3.57.38,5.63-2.26,6.82a28.11,28.11,0,0,1-5.92,1.44c-.88-2.53-1.8-5-2.72-7.57,1-.59,2.2-1.27,3.46-1.85C106.66,56.62,109.7,56.16,111.3,59Zm-3.67-10.57c2,3.57.38,5.63-2.26,6.83a27.87,27.87,0,0,1-6.06,1.44c-.91-2.48-1.83-5-2.72-7.48a36.78,36.78,0,0,1,3.6-2C103,46.05,106,45.59,107.63,48.42ZM104,37.86c2,3.57.37,5.62-2.26,6.83a29,29,0,0,1-6.23,1.46q-1.32-3.75-2.55-7.51a38,38,0,0,1,3.6-1.94C99.33,35.48,102.36,35,104,37.86Zm-3.3-10.42c2,3.57.36,5.63-2.27,6.83A28.29,28.29,0,0,1,92,35.75c-.8-2.52-1.52-5.07-2.21-7.62a34.91,34.91,0,0,1,3.44-1.85l.33-.14a.64.64,0,0,0,.78-.18,1.71,1.71,0,0,1,.11-.14C96.88,25,99.29,25,100.67,27.44ZM80.46,15.53l0,0c.1-.34.24-.66.36-1C83.17,9.14,89,7,94.11,3.75c1.34,6,3.93,11.54,1.78,17-.14.31-.27.64-.44.95,0,0,0,0,0,.05a17.68,17.68,0,0,1-2,2.91l-.63.25a26.41,26.41,0,0,0-3.41,1.69c-.54-2.06-1-4.13-1.47-6.22a.79.79,0,0,0-1.14-.47c-1.79,1.17-3.6,2.28-5.44,3.36a26.93,26.93,0,0,0-1.22-3.61c-.08-.21-.18-.41-.27-.62A17.67,17.67,0,0,1,80.46,15.53Zm-7.74.34c2.69-.74,4.4,1,5.55,3.25a1.1,1.1,0,0,1,0,.18.65.65,0,0,0,.42.68c0,.11.09.22.14.33a36.26,36.26,0,0,1,1.12,3.74c-2.29,1.32-4.6,2.61-7,3.83A28.09,28.09,0,0,1,69.5,22.3C68.48,19.59,68.78,17,72.72,15.87Zm-9.7,5c3.14-.87,5,1.6,6.08,4.44a36.27,36.27,0,0,1,1.17,3.92q-3.52,1.78-7.11,3.5a28.33,28.33,0,0,1-3.37-5.43C58.78,24.61,59.07,22,63,20.9ZM53,25.78c3.14-.87,4.95,1.6,6.08,4.44a36.39,36.39,0,0,1,1.17,3.93c-2.4,1.13-4.81,2.25-7.21,3.36a28.13,28.13,0,0,1-3.27-5.3C48.71,29.49,49,26.88,53,25.78ZM42.89,30.66c3.14-.87,5,1.6,6.09,4.44a38.44,38.44,0,0,1,1.13,3.75c-2.43,1.13-4.86,2.27-7.27,3.43a28,28,0,0,1-3.17-5.2C38.65,34.37,38.94,31.76,42.89,30.66Zm-10.11,4.6c3.14-.87,4.95,1.6,6.08,4.44A40.08,40.08,0,0,1,40,43.65q-3.55,1.74-7,3.58a27.8,27.8,0,0,1-3.45-5.54C28.53,39,28.83,36.36,32.78,35.26Zm-9.92,5.29c2.67-.75,4.45,1.06,5.67,3.39a33.78,33.78,0,0,1,1.78,4.74c-2.29,1.27-4.56,2.58-6.79,4a33,33,0,0,1-3.06-4.06C18.6,45.39,18,41.92,22.86,40.55ZM12.6,46.76c2.71-1.06,4.64.62,6,2.91a33.42,33.42,0,0,1,2.11,4.72c-2.17,1.42-4.31,2.91-6.39,4.48a35.53,35.53,0,0,1-3.3-3.78C8.92,52,8,48.57,12.6,46.76ZM2.82,63.07c-2.69-2.84-4.36-6.38.24-8.85,2.52-1.36,4.64.1,6.31,2.21A33.61,33.61,0,0,1,12,60.7c-.25.2-.51.38-.76.59-1.81,1.46-3.51,3-5.17,4.62A34,34,0,0,1,2.82,63.07Z"/><path class="cls-52" d="M21.15,72.55c8.35-6,17.68-10.61,27-15,4.44-2.1,8.91-4.15,13.31-6.34,2.74-1.35,5.47-2.75,8.15-4.24,1.89-1,4.81-3.69,6.9-4.07.21,0,.39-.06.57-.08l1.51.62c.12.14.23.29.35.46,1.21,1.75,1.4,5.69,2,7.76.84,3,1.78,5.87,2.76,8.76,1.57,4.66,3.28,9.27,4.93,13.9C92.05,84,95.43,93.8,97.05,104a68.45,68.45,0,0,1-4,36.52c-.37.9-.78,1.8-1.18,2.68-.16.35-.3.69-.47,1a1.09,1.09,0,0,1-.08.15,72.57,72.57,0,0,1-14,19.46l1.1,1.1a70.35,70.35,0,0,0,15.22-21.76c0-.08.07-.17.12-.26l0-.06a71.77,71.77,0,0,0,6.3-34.8C98.28,83.28,85.72,60.87,81.14,36.67a.75.75,0,0,0-.45-.52.73.73,0,0,0-.69.05C59.65,50.08,34.93,57,16.15,73.3A71.37,71.37,0,0,0,0,93.55v3.73A68.58,68.58,0,0,1,21.15,72.55Z"/><path class="cls-53" d="M329.28,386.43c16.26-18.78,23.22-43.5,37.1-63.85a.73.73,0,0,0,.05-.69.75.75,0,0,0-.52-.45c-24.21-4.58-46.61-17.14-71.38-18.92a71.77,71.77,0,0,0-34.8,6.3l-.06,0-.26.12a70.35,70.35,0,0,0-21.76,15.22l1.1,1.1a72.57,72.57,0,0,1,19.46-14l.15-.08c.34-.17.68-.31,1-.47.88-.4,1.78-.81,2.68-1.18a68.43,68.43,0,0,1,36.52-4c10.18,1.62,20,5,29.69,8.45,4.63,1.65,9.24,3.36,13.9,4.92,2.89,1,5.81,1.93,8.76,2.77,2.07.6,6,.79,7.76,2l.46.35.62,1.51c0,.18,0,.36-.08.57-.38,2.09-3,5-4.07,6.9-1.49,2.68-2.89,5.41-4.24,8.15-2.19,4.4-4.24,8.87-6.34,13.31-4.41,9.29-9,18.62-15,27a68.48,68.48,0,0,1-28.32,22.82h4A71.43,71.43,0,0,0,329.28,386.43Z"/><path class="cls-54" d="M209.86,28.5h0l-.11-.06a.39.39,0,0,0-.1-.08h0a2.74,2.74,0,0,0-3.78.88,2.71,2.71,0,0,0,.79,3.59h0s0,0,0,0a.35.35,0,0,0,.1.08l.12.07h0a2.69,2.69,0,0,0,3-4.47Z"/><path class="cls-55" d="M374.24,193h0a.39.39,0,0,0-.08-.1l-.06-.11h0a2.69,2.69,0,0,0-4.47,3h0l.07.12a.35.35,0,0,0,.08.1s0,0,0,0h0a2.71,2.71,0,0,0,3.59.79,2.74,2.74,0,0,0,.88-3.78Z"/><path class="cls-56" d="M77.59,142.64a58,58,0,0,0,5.07-26.17c-.78-18.41-9.3-35.37-12.23-53.4q4.08-9.82,8.13-19.65l-1.51-.62Q73,52.63,68.91,62.44C54.08,73.12,36.07,79.09,22.5,91.56A58.07,58.07,0,0,0,7.58,113.64c0,.14-.11.27-.16.4a58.25,58.25,0,0,0-3.81,18.54l1.57.09A59.21,59.21,0,0,1,8.12,116.8c.1-.28.18-.58.29-.86s.13-.35.19-.53q.45-1.23,1-2.43l.21-.48c.32-.73.65-1.44,1-2.15.2-.42.42-.83.63-1.25l.66-1.24c.4-.72.81-1.43,1.24-2.12a2.39,2.39,0,0,1,.13-.21,54.39,54.39,0,0,1,12.13-13.7c6.5-5.24,13.94-9.15,21.33-13,3.75-2,7.53-3.85,11.22-5.91,1.16-.65,7.06-5.16,8.76-5.57Q61.93,79.32,57,91.27l1.52.63q4.95-12,9.9-23.89c.91,1.49,1.89,8.85,2.25,10.13,1.15,4.07,2.48,8.08,3.76,12.11,2.52,7.93,5,16,5.91,24.26a54.39,54.39,0,0,1-1.11,18.26q0,.14-.06.24c-.18.8-.39,1.59-.62,2.38-.13.45-.28.9-.41,1.34s-.28.89-.44,1.33c-.26.74-.53,1.48-.82,2.22-.06.17-.13.33-.19.49-.33.81-.67,1.61-1,2.4l-.24.51c-.12.27-.28.54-.4.81a59.31,59.31,0,0,1-9.15,13.3L67,158.84A58.25,58.25,0,0,0,77.42,143C77.48,142.91,77.53,142.77,77.59,142.64Z"/><path class="cls-57" d="M286.1,319.92A58,58,0,0,0,259.94,325l-.39.17a58.25,58.25,0,0,0-15.81,10.41l1,1.18a59.31,59.31,0,0,1,13.3-9.15c.27-.13.54-.28.81-.4l.51-.24c.79-.37,1.59-.72,2.4-1l.49-.19c.74-.29,1.47-.56,2.22-.82.44-.16.88-.29,1.33-.44l1.34-.41c.79-.23,1.58-.44,2.38-.62a1.4,1.4,0,0,1,.24-.06,54.39,54.39,0,0,1,18.26-1.11c8.3.89,16.33,3.39,24.25,5.91,4,1.27,8.05,2.6,12.12,3.76,1.28.36,8.64,1.34,10.13,2.25l-23.89,9.9.63,1.52,23.89-9.89c-.41,1.7-4.92,7.6-5.57,8.76-2.06,3.69-4,7.47-5.91,11.22-3.82,7.39-7.73,14.83-13,21.33a54.39,54.39,0,0,1-13.7,12.13l-.21.13c-.69.43-1.4.84-2.12,1.24l-1.24.66c-.42.21-.83.43-1.25.63-.71.34-1.42.67-2.15,1l-.48.21q-1.2.51-2.43,1l-.53.19c-.28.11-.58.19-.86.29a59.21,59.21,0,0,1-15.87,2.94L270,399a58.25,58.25,0,0,0,18.54-3.81l.4-.16A58.07,58.07,0,0,0,311,380.08c12.47-13.57,18.44-31.58,29.12-46.41l19.64-8.14-.62-1.51-19.65,8.13C321.47,329.21,304.52,320.7,286.1,319.92Z"/><path class="cls-58" d="M30.11,158.27c1.33,6,3.93,11.54,1.78,17l1.41.6a8.49,8.49,0,0,0,.37-1c2.09-6.22-.47-12.52-1.59-19.71a.68.68,0,0,0-.44-.52.73.73,0,0,0-.69,0c-5.88,4.3-12.14,6.94-15.06,12.82a9.05,9.05,0,0,0-.47,1l1.42.57C19.16,163.65,25,161.54,30.11,158.27Z"/><path class="cls-59" d="M227.6,379.4a.71.71,0,0,0-.52-.45c-1.86-.37-3.71-.83-5.53-1.34l-.29,1,1.45.45c-.68-.17-1.35-.35-2-.54l-.58,1.3a3.08,3.08,0,0,0,1,.22c1.27.15,1.91.37,2.05,1.18.47.68.18,1.28-.62,2.28a3.49,3.49,0,0,0-.52.84l1.33.51c.34-.61.69-1.21,1.05-1.81-.21.41-.45.86-.71,1.34l.93.53c.93-1.65,1.91-3.28,3-4.86A.71.71,0,0,0,227.6,379.4Z"/><path class="cls-60" d="M244.31,372.47c-3.27,5.16-5.38,10.95-10.74,13.27l.57,1.42a9.05,9.05,0,0,0,1-.47c5.88-2.92,8.52-9.18,12.82-15.06a.73.73,0,0,0,.05-.69.72.72,0,0,0-.52-.44c-7.2-1.12-13.49-3.68-19.71-1.59a8.49,8.49,0,0,0-1,.37l.6,1.41C232.77,368.54,238.35,371.14,244.31,372.47Z"/><path class="cls-61" d="M23.49,179.87c.14.43.29.92.45,1.45l1-.29c-.51-1.82-1-3.67-1.34-5.53A.76.76,0,0,0,22.5,175c-1.58,1.06-3.21,2-4.86,3l.53.93,1.34-.71c-.6.36-1.2.71-1.81,1.05l.51,1.33a3.49,3.49,0,0,0,.84-.52c1-.8,1.6-1.09,2.28-.62.81.14,1,.78,1.17,2a3.38,3.38,0,0,0,.23,1l1.3-.58C23.84,181.22,23.66,180.55,23.49,179.87Z"/><path class="cls-62" d="M222.57,386.24l-.39.75.42-.73Z"/><path class="cls-63" d="M24.47,183.37c.08.27.17.54.25.81-.07-.28-.15-.54-.22-.81Z"/><path class="cls-64" d="M16.34,180l0,0-.73.42Z"/><path class="cls-65" d="M219.21,378.11v0l-.81-.22Z"/><path class="cls-66" d="M223.31,384.88l.07,0,.27-.49c.26-.48.5-.93.71-1.34C224,383.67,223.65,384.27,223.31,384.88Z"/><path class="cls-67" d="M24,181.89l.06,0-.15-.53c-.16-.53-.31-1-.45-1.45C23.66,180.55,23.84,181.22,24,181.89Z"/><path class="cls-68" d="M18.17,178.93l-.49.27a.14.14,0,0,1,0,.07c.61-.34,1.21-.69,1.81-1.05Z"/><path class="cls-69" d="M221.26,378.64l-.53-.15,0,.06c.67.19,1.34.37,2,.54Z"/><path class="cls-70" d="M364.39,351h0Z"/><path class="cls-71" d="M99.87,58.21v0h0Z"/><path class="cls-72" d="M51.53,38.19h0v0Z"/><path class="cls-73" d="M344.38,302.72v0h0Z"/><path class="cls-74" d="M369.13,340.87l0,.07.19.05Z"/><path class="cls-75" d="M96.05,47.73a1,1,0,0,1,.17-.1l-.2,0Z"/><path class="cls-76" d="M61.64,33.48l.07,0-.12-.16A1.33,1.33,0,0,1,61.64,33.48Z"/><path class="cls-77" d="M354.92,306.56l0-.2a1,1,0,0,1-.1.17Z"/><path class="cls-78" d="M377.25,322.31l-.05,0-1,1.78C376.55,323.5,376.91,322.91,377.25,322.31Z"/><path class="cls-79" d="M88.59,28.81l.54,2c-.15-.66-.31-1.33-.49-2A.06.06,0,0,1,88.59,28.81Z"/><path class="cls-80" d="M78.51,26.39l1.78-1s0,0,0-.05C79.67,25.67,79.08,26,78.51,26.39Z"/><path class="cls-81" d="M373.76,314a.13.13,0,0,1,0-.05c-.67-.18-1.34-.35-2-.49Z"/><path class="cls-82" d="M378.39,320.27l-.4.65H378C378.16,320.71,378.28,320.49,378.39,320.27Z"/><path class="cls-83" d="M88.18,27.29s0,0,0,0c-.07-.24-.14-.48-.22-.72C88.07,26.79,88.11,27,88.18,27.29Z"/><path class="cls-84" d="M81.66,24.59l.65-.4-.66.35A.09.09,0,0,1,81.66,24.59Z"/><path class="cls-85" d="M375.32,314.36s0,0,0,0c.25.06.5.11.74.18Z"/></g></g></svg>