<?xml version="1.0" encoding="iso-8859-1"?>
<!-- Generator: Adobe Illustrator 19.0.0, SVG Export Plug-In . SVG Version: 6.00 Build 0)  -->
<svg xmlns="http://www.w3.org/2000/svg" xmlns:xlink="http://www.w3.org/1999/xlink" version="1.1" id="Capa_1" x="0px" y="0px" viewBox="0 0 512 512" style="enable-background:new 0 0 512 512;" xml:space="preserve" width="512px" height="512px">
<g>
	<g>
		<path d="M415.866,470.387H382.21c-4.142,0-7.498,3.356-7.498,7.498s3.356,7.498,7.498,7.498h33.656    c4.142,0,7.498-3.356,7.498-7.498S420.008,470.387,415.866,470.387z" fill="#977044"/>
	</g>
</g>
<g>
	<g>
		<path d="M147.885,339.011c-13.766,0-24.964,11.198-24.964,24.963c0,13.766,11.198,24.964,24.964,24.964    c13.765,0,24.963-11.198,24.963-24.964C172.848,350.21,161.65,339.011,147.885,339.011z M147.885,373.943    c-5.497,0-9.969-4.473-9.969-9.969c0-5.496,4.472-9.968,9.969-9.968c5.496,0,9.968,4.472,9.968,9.968    C157.853,369.471,153.381,373.943,147.885,373.943z" fill="#977044"/>
	</g>
</g>
<g>
	<g>
		<path d="M439.962,152.353H264.454c23.872-88.03-55.966-172.722-147.755-147.996C37.406,25.889,2.776,118.851,47.618,186.932    c-1.537,6.855-1.077-12.218-1.077,280.803c0,24.407,19.857,44.264,44.264,44.264h152.893c4.142,0,7.498-3.356,7.498-7.498    c0-4.142-3.356-7.498-7.498-7.498H90.806c-16.139,0-29.269-13.13-29.269-29.269V206.777l22.522,31.912v194.158    c0,14.063,11.441,25.506,25.506,25.506c9.756,0,299.751,0,311.638,0c14.063,0,25.506-11.441,25.506-25.506v-217.47    c0-14.064-11.441-25.506-25.506-25.506c-2.179,0-172.282,0-174.36,0c7.153-10.216,10.63-18.353,12.447-22.522h180.671    c16.138,0,29.267,13.13,29.267,29.269v110c0,4.142,3.356,7.498,7.498,7.498c4.142,0,7.498-3.356,7.498-7.498v-110    C484.223,172.21,464.368,152.353,439.962,152.353z M109.565,443.356c-5.796,0-10.511-4.715-10.511-10.511V259.935l43.049,60.995    c1.054,1.492,2.602,2.531,4.338,2.958c0.579,0.142,1.179,0.216,1.787,0.216c2.437,0,4.721-1.185,6.126-3.175l57.546-81.54    l66.404,91.23L123.16,443.356H109.565z M212.488,443.356l96.718-70.281l51.156,70.281H212.488z M421.204,204.865    c5.795,0.001,10.511,4.716,10.511,10.511v217.47c0,4.518-2.872,8.368-6.882,9.851c-6.649-9.135-123.028-169.024-127.807-175.59    l85.657-62.242H421.204z M293.355,204.866l-27.23,19.787l-14.402-19.787H293.355z M258.409,239.533    c2.437,3.348,7.123,4.084,10.47,1.652l49.985-36.321h38.309v0.001c-81.401,59.15-77.355,55.148-78.03,59.417    c-0.693,4.385-8.883-8.468,127.623,179.074h-27.857l-61.988-85.163c-2.436-3.346-7.122-4.084-10.47-1.652l-119.472,86.816h-38.311    L293.19,338.34c3.348-2.433,4.093-7.129,1.654-10.479l-73.811-101.408c10.569-14.978,8.205-11.629,13.713-19.432L258.409,239.533z     M236.165,178.914c-2.087,3.157-76.944,109.117-87.936,124.69c-0.941-1.333-85.793-121.552-86.379-122.398    C15.111,114.46,58.846,21.502,140.501,15.45C227.592,9.034,284.517,106.099,236.165,178.914z" fill="#977044"/>
	</g>
</g>
<g>
	<g>
		<path d="M148.227,50.03c-38.64,0-70.076,31.435-70.076,70.075c0.001,38.64,31.437,70.075,70.076,70.075    c38.639,0,70.075-31.435,70.075-70.075C218.302,81.466,186.867,50.03,148.227,50.03z M148.227,175.185    c-30.371,0-55.08-24.708-55.08-55.079c0.001-30.371,24.71-55.079,55.08-55.079c30.37,0,55.079,24.708,55.079,55.079    S178.598,175.185,148.227,175.185z" fill="#977044"/>
	</g>
</g>
<g>
	<g>
		<path d="M476.726,334.108c-4.142,0-7.498,3.356-7.498,7.498v126.131c0,16.14-13.13,29.269-29.267,29.269H278.688    c-4.141,0-7.498,3.356-7.498,7.498c0,4.142,3.356,7.498,7.498,7.498h161.273c24.406,0,44.262-19.857,44.262-44.264V341.606    C484.223,337.464,480.868,334.108,476.726,334.108z" fill="#977044"/>
	</g>
</g>
<g>
</g>
<g>
</g>
<g>
</g>
<g>
</g>
<g>
</g>
<g>
</g>
<g>
</g>
<g>
</g>
<g>
</g>
<g>
</g>
<g>
</g>
<g>
</g>
<g>
</g>
<g>
</g>
<g>
</g>
</svg>
