<svg xmlns="http://www.w3.org/2000/svg" xmlns:xlink="http://www.w3.org/1999/xlink" viewBox="0 0 225.94 79.77"><defs><style>.cls-1,.cls-10,.cls-2,.cls-3,.cls-4,.cls-5,.cls-6,.cls-7,.cls-8,.cls-9{fill-rule:evenodd;}.cls-1{fill:url(#linear-gradient);}.cls-2{fill:url(#linear-gradient-2);}.cls-3{fill:url(#linear-gradient-3);}.cls-4{fill:url(#linear-gradient-4);}.cls-5{fill:url(#linear-gradient-5);}.cls-6{fill:url(#linear-gradient-6);}.cls-7{fill:url(#linear-gradient-7);}.cls-8{fill:url(#linear-gradient-8);}.cls-9{fill:url(#linear-gradient-9);}.cls-10{fill:url(#linear-gradient-10);}</style><linearGradient id="linear-gradient" x1="51.94" y1="79.76" x2="51.94" gradientUnits="userSpaceOnUse"><stop offset="0" stop-color="#782c16"/><stop offset="0.21" stop-color="#b48521"/><stop offset="0.35" stop-color="#d7b928"/><stop offset="0.44" stop-color="#dfc323"/><stop offset="0.51" stop-color="#d5b729"/><stop offset="0.85" stop-color="#925122"/><stop offset="1" stop-color="#904820"/></linearGradient><linearGradient id="linear-gradient-2" x1="210.04" y1="79.77" x2="210.04" y2="52.65" xlink:href="#linear-gradient"/><linearGradient id="linear-gradient-3" x1="177.67" y1="79.76" x2="177.67" y2="52.64" xlink:href="#linear-gradient"/><linearGradient id="linear-gradient-4" x1="148.01" y1="79.76" x2="148.01" y2="52.65" xlink:href="#linear-gradient"/><linearGradient id="linear-gradient-5" x1="119.92" y1="79.76" x2="119.92" y2="52.65" xlink:href="#linear-gradient"/><linearGradient id="linear-gradient-6" x1="189.75" y1="47.5" x2="189.75" y2="36.68" gradientUnits="userSpaceOnUse"><stop offset="0" stop-color="#976628"/><stop offset="0.3" stop-color="#be9a31"/><stop offset="1" stop-color="#be9a31"/></linearGradient><linearGradient id="linear-gradient-7" x1="221.53" y1="47.5" x2="221.53" y2="36.68" xlink:href="#linear-gradient-6"/><linearGradient id="linear-gradient-8" x1="179.51" y1="47.5" x2="179.51" y2="36.68" xlink:href="#linear-gradient-6"/><linearGradient id="linear-gradient-9" x1="199.82" y1="47.5" x2="199.82" y2="36.68" xlink:href="#linear-gradient-6"/><linearGradient id="linear-gradient-10" x1="210.37" y1="47.5" x2="210.37" y2="36.68" xlink:href="#linear-gradient-6"/></defs><title>Asset 1</title><g id="Layer_2" data-name="Layer 2"><g id="_1" data-name="???? 1"><path class="cls-1" d="M98.34,78.33V75.86c.3-.16.59-.35.79-.48l1.38-1.12a.85.85,0,0,0,.16-.75c-.23-.54-.79-.45-1.09,0a7.08,7.08,0,0,1-1.24,1.1V73a11.49,11.49,0,0,0,.86-1.07,8.43,8.43,0,0,1,.64-.69l2.9,2.4.4.41a10,10,0,0,1-4.8,4.28Zm0-13V53.93a13.37,13.37,0,0,1,5.14,8.38c.1.56.8,3,0,3Zm0-30.27V28.42A4.53,4.53,0,0,1,99.49,32a4.85,4.85,0,0,1-1.15,3Zm0-12.1V15.5A17.23,17.23,0,0,1,98.34,22.91Zm0-7.41v7.41a25.73,25.73,0,0,1-1.56,4.39,8.1,8.1,0,0,1,1.56,1.12V35a10,10,0,0,1-2.63,2.14V35.83c2.71-2.24,3.65-5.47,0-7.81V26a16.88,16.88,0,0,0,0-13.83V8.78a19.68,19.68,0,0,1,2.47,6c.06.26.11.52.16.77Zm0,38.43V65.28H95.71V61.86a1.7,1.7,0,0,0,.9-.09c.4-.27.25-1.44.25-2,0-.72,0-1.51,0-2.21a2,2,0,0,0-.23-.91,2.29,2.29,0,0,0-.92-.94V52.49a11,11,0,0,1,2.63,1.44Zm0,19.07v1.59a11.17,11.17,0,0,1-1.55,1c-.25.11-.62.23-.81.33.16.58,1,.4,1.55.26a3.48,3.48,0,0,0,.81-.35v2.47a15.79,15.79,0,0,1-2.63.92V75a8.07,8.07,0,0,0,2.63-2ZM95.71,34.47c2.24-2.37,1.13-4.68,0-5.55v1.16a3,3,0,0,1,0,3Zm0-25.69v3.34A19,19,0,0,0,91.2,5.55V3.76a19.11,19.11,0,0,1,4.51,5Zm0,17.17V28l-.3-.19c-.18-.1-.53-.29-.49-.58,0-.1.13-.14.29-.37a10.36,10.36,0,0,0,.5-.93Zm0,3v1.16a.66.66,0,0,0-.68-.33c-.44.11,0,.65-2.16,2.28-.57.41-1.13.8-1.67,1.16V31a13.06,13.06,0,0,0,2-1.86c.67-.91,1.14-1.13,2.32-.36a.83.83,0,0,1,.16.12Zm0,4.18A6,6,0,0,1,91.84,36l-.64.21v.69a9.69,9.69,0,0,0,4.49-2.36l0,0V33.1Zm0,2.73v1.32c-1.45.87-3.09,1.61-4.51,2.43V38.07a11.66,11.66,0,0,0,4.51-2.24Zm0,16.66v3.22a4.41,4.41,0,0,0-1.17-.29c0,1,.42.79.65,1.5.32,1-.32,4.69.39,4.91l.13,0v3.41H91.2V61.88c.59,0,1.32,0,2.24,0s.74-.62.73-1.64.17-3-.51-3.75a2.55,2.55,0,0,0-1.91-.81,4.74,4.74,0,0,0-.55,0V51.74h.5a11.22,11.22,0,0,1,4,.76Zm0,22.53v4.23a16.71,16.71,0,0,1-4,.5H91.2V74.84a3.8,3.8,0,0,0,.73.35A4.88,4.88,0,0,0,95.71,75ZM91.2,48.14V46.93c2.11-1.17,1.89-3.81.92-3.74-.79-.06,0,1.08-.48,2.18a1.65,1.65,0,0,1-.44.55V41.56a2.93,2.93,0,0,1,3.1,2.54,4,4,0,0,1-3.1,4Zm0-23.93C95.43,19.44,95,12.4,91.2,7.4V10a14.85,14.85,0,0,1,0,11.12ZM86.06,78.38c0-.08-.12-.1-.28-.2a11.61,11.61,0,0,1-3.62-4V58.74a14.85,14.85,0,0,1,2.26-2.84c.19-.2,1.11-.95,1.12-1-.4-.41-1.33.28-1.61.47a16.49,16.49,0,0,0-1.77,1.38V54.46c.16-.12.35-.27.61-.44a15.76,15.76,0,0,1,8.43-2.28v3.95c-2.37.31-2.26,2.7-2.26,4.67,0,1.53-.22,1.56,2.26,1.52v3.38H89.55c-.72,0-.57.74-.59,1.35-.07,3.18,0,6.8,2.24,8.23v4.91h-9V76.37a7.66,7.66,0,0,0,3.58,2.08c.15,0,.29,0,.32-.07ZM91.2,3.76V5.55a14.41,14.41,0,0,0-9-4.09V.12a17.5,17.5,0,0,1,9,3.64Zm0,3.64a15.12,15.12,0,0,0-9-5.66V5.62l.2-.27a9.18,9.18,0,0,1,2.55-2l.31.16a12.66,12.66,0,0,1,6,6.47V7.4Zm0,13.7v3.11a12.24,12.24,0,0,1-1.26,1.23,12.89,12.89,0,0,1-7.78,2.75v-.75c.22,0,.49,0,.76,0,3.85,0,6.79-2.69,8.28-6.34Zm0,9.92v2.17c-2.65,1.8-4.86,3.13-4.9,5.19a17.59,17.59,0,0,1,4.9-2.22v.69a11.23,11.23,0,0,0-3.73,1.71c-2.56,2-2.49,6-2.49,6a7.33,7.33,0,0,1-1.25-4.08c-.22-2.89,1.5-4.73,3.41-6.27,1.1-.89,2.75-2.14,4.06-3.21Zm0,7.05-.2,0c-2.86.67-6.8,4-4.24,7.8.67,1,3.27,1,4.44,0V41.56a1.73,1.73,0,0,0-1.23.6c-1.12,1.42.15,1.15.46,1.79S90,45.74,89.22,45.6c-2.06-.39-1.63-3-.46-4.13a9.2,9.2,0,0,1,2.44-1.89V38.07Zm0,8.86a4.79,4.79,0,0,1-2.26.55,8.08,8.08,0,0,1-5.75-2.25,9.1,9.1,0,0,1-1-1v1.46c2.75,2.46,4.26,2.88,7.16,2.81a6.51,6.51,0,0,0,1.88-.33V46.93Zm-9-12.57A25.34,25.34,0,0,1,83.61,32c-.5,0-1-.06-1.45-.11v2.5Zm0-13.07c.09,0,.2,0,.3,0,4.17-.59,4-7.12,0-9.08l-.32-.12v.88c3,1.93,3.2,7,0,7.44v.91Zm0-2.58V13.92C83.71,15.31,84.31,17.91,82.16,18.71Zm0,55.47A16.14,16.14,0,0,1,80,66.46a14.85,14.85,0,0,1,2.12-7.72V74.18Zm0-17.47V54.46c-.33.23-.54.31-.84.06V46.75c0-.32-.16-1.53.29-1.58.37.32.19.07.37.32l.19.17V44.2c-2.52-3-1.74-6.57,0-9.84v-2.5C74.81,31,69.84,26.22,70.91,19c.83-5.64,5.74-6.9,8.85-6.78a4.66,4.66,0,0,1,2.4.73v-.88c-.61-.22-.85-.4-.85-.92V8.86a5.66,5.66,0,0,1,.85-3.24V1.74l-.4-.08c-.14,0-.24-.15-.37-.22l.77,0V.12A18.15,18.15,0,0,0,79.39.05H66.66v4.1A4.92,4.92,0,0,1,69.41,7.6c.14.61.07,10.28,0,11.26-.09,6,0,12.14,0,18.17V64.26c0,1,.15,8.49-.17,8.88s-2,.33-2.12-.13-.06-54.85-.06-58c0-1.19.06-6.63,0-7.57a4.2,4.2,0,0,0-.43-1.51V7.77c0,.46,0,1,0,1.47V71.46a8.69,8.69,0,0,1,0,1.35v7h15.5V76.37a14.33,14.33,0,0,1-3.92-9.54c.05-4.5,1.09-7.56,3.92-10.12Zm0-42.79v4.79a3.84,3.84,0,0,1-.76.19c-1.75.23-1.07,1.34.35,1.5l.41,0v.91c-.47,0-.81,0-.85.66v4.78c.07.56.4.69.86.71v.75c-4.46.16-8.93-1.75-9.44-7.07-.48-5.06,3.51-8.87,7.82-8A3.42,3.42,0,0,1,82.16,13.92ZM66.66.06v4.1l-.44-.23c-.16-.7.24-3.29-.4-3.31l-1.37,0A.6.6,0,0,0,64,.92a6.32,6.32,0,0,0-.11,2.14c.15.76,1.94,1.17,2.81,2.82V7.77c0-.1,0-.19,0-.28-.23-1.72-1.63-2.6-3-3.56-.16-.11-.07,0-.16-.16a21,21,0,0,1-.1-3.11c0-.53.46-.64,1-.62s1.5,0,2.29,0Zm0,9.18V71.46a1.7,1.7,0,0,1,0-.22V9.74c0-.16,0-.32,0-.5Zm0,63.57a.82.82,0,0,1-.2.44,5.18,5.18,0,0,1-1.78.11c-.83-.11-4.75,0-5.88,0-.85,0-1.71.3-1.71-.82V8.63a4.48,4.48,0,0,1,3.24-4.74L60.38,0,41,0V4.25a7.42,7.42,0,0,1,.8.5C43.18,6,43.6,7.62,43.52,9.9c-.11,2.93,0,6.18,0,9.18V37.7c0,.91.07,34.32,0,34.94-.14,1.13-1.58.62-1.58.62-.41-.37-.2-3.63-.2-4.44V18.49c0-1.72.11-10.1-.12-11.35A3.93,3.93,0,0,0,41,5.63V6.75a4.9,4.9,0,0,1,.27,1.3l-.11,65.13-.16,0v6.53H66.66ZM41,0V4.25c-.35-.19-.67-.35-.68-.37-.31-.41,0-2.37-.14-2.89a.46.46,0,0,0-.43-.37h-.93c-.25,0-.38.37-.37.79a16.54,16.54,0,0,0,.05,2A7.54,7.54,0,0,1,41,5.63V6.75a5.25,5.25,0,0,0-2.93-2.83c-.13-.07-.1-.41-.1-.67V.76c0-.4,0-.78.15-.76Zm0,73.23a1.76,1.76,0,0,1-.58.11H32.17c-.43,0-.59-.1-.69-.46-.21-.79-.09-6.6-.09-7.82,0-.81,0-1.2.8-1.5a7.66,7.66,0,0,0,1.47-.82c2.82-1.84,4.4-6.25,4.24-9.45a15.44,15.44,0,0,0-6.21-10.85c-.4-.54-.3-.34-.3-1.21V10.4a14.85,14.85,0,0,1,.21-2.84,4.15,4.15,0,0,1,2.18-3.27c1.28-.82.9.65,1-2.87,0-.63.09-1.38-.39-1.39C28.64,0,22.86,0,17.1,0V4.18c1.82.75,2.55,3.33,2.55,5.12-.3,3.92,0,8.29-.08,12.34-.6.21-.74-.09-1.12-.32a1,1,0,0,1-.56-1.06c0-1.68.09-11.8-.1-12.92a4.27,4.27,0,0,0-.69-1.72v1a3.48,3.48,0,0,1,.21.62c.27,1.18.11,7,.11,8.3,0,1.11.16,4.16-.19,5l-.13,0v1c6.8,3.07,9.29,12.75,3.07,18.21.83.4,2.21.17,3.23.36,4.53.83,11.34,3.25,13.12,11.75.63,3-.91,8.21-3.59,10C23.32,68.4,16.11,59.51,20.43,55c1.76-1.82,5-.38,3.92,1a10.23,10.23,0,0,0-2,.3,2,2,0,0,0-1.64,1.85C20.46,64.07,27.63,64,30.85,62a7.83,7.83,0,0,0,3.41-7.34c-1.1-8.18-7.18-10.81-15.9-9.48a8.82,8.82,0,0,0-1.26.27V47.8c0,.11,0,.22,0,.33l0,7.74V75.65c4.62,2.34,8.12,2.53,8.11,2.75a20.43,20.43,0,0,1-8.11-1.56v2.92H41V73.23ZM17.1,36.14V29.83c1.62-2.44.83-5,1.48-5.71a9,9,0,0,1,1.25,8,12.75,12.75,0,0,1-2.73,4Zm0-8.91V23.51A5.12,5.12,0,0,1,17.1,27.23ZM17.1,0V4.18l-.2-.08c-.59-.19-.7,0-.64-1.86,0-.87.16-1.34-.22-1.55l-1.4.05c-.09.08,0,.21-.05.32l0,1.91c0,.13,0,.28,0,.45a7,7,0,0,1,2.54,2.2v1A5,5,0,0,0,14.4,4c-.5-.18-.32,0-.32-3.24,0-.32,0-.64.18-.69l.41,0L17.1,0Zm0,20.5v1a11.09,11.09,0,0,0-2.73-.82,6.29,6.29,0,0,0-3.6.7V20.23a9.87,9.87,0,0,1,4.94-.07l1.39.37Zm0,3a3.68,3.68,0,0,0-2.69-2.05,3.39,3.39,0,0,0-3.64,1V23.6a2.36,2.36,0,0,1,2.62-1.27c1.48.53,1.66,1.17,1.92,2.65a5.8,5.8,0,0,1-.54,2.45,2.07,2.07,0,0,0-.32.5c-.56,1-2,1.88-3.68,2.73v1.51C13.33,31,15.7,30,16.59,28.37a8.84,8.84,0,0,0,.51-1.14V23.51Zm0,6.32v6.31a5.74,5.74,0,0,1-1.05.88c-2.2,1.6-3.77,2.52-5.28,3.71V38.42c2.93-2.18,6.15-4.3,6-6.26-.19-.31-.49.28-1.27.61a42.15,42.15,0,0,1-4.77,2V33.65c.58-.22,1.12-.4,1.57-.55a9,9,0,0,0,4.76-3.27Zm0,15.6V47.8a3.82,3.82,0,0,0-.14-.63C15,47,12.42,49.85,10.77,53V49.77a13.22,13.22,0,0,1,6.33-4.34Zm0,10.44V75.65c-.51-.26-1-.54-1.58-.86-.29-.17-2-1.35-2.25-1.57a16.49,16.49,0,0,1-2.5-2.59V67.35A28.38,28.38,0,0,0,13.31,71c.26.21.11.07.33.34a15.15,15.15,0,0,0,2.56,2.28l.86-3.08,0-14.64Zm0,21a21,21,0,0,1-6.33-4.11v1.81c.61.49,1.23,1,1.87,1.45,1.09,1,1-.18,1.07,2.83,0,.42-.09.73.39.86a2.87,2.87,0,0,0,.78.08H17.1V76.84ZM10.77,27.5V25.21a.75.75,0,0,0,.07.12c.72,1.06,1.4.47,2.35.89C12.88,27.07,11.79,27.43,10.77,27.5Zm0-7.27v1.15a3.16,3.16,0,0,0-1.95,3.24c.09.54.7,1.59,1.37,1.4a3.85,3.85,0,0,1,.58-3.59V23.6a1.32,1.32,0,0,0-.09.48,3,3,0,0,0,.09,1.13V27.5a5.12,5.12,0,0,1-1.35-.09,3.46,3.46,0,0,1-2.56-2.74c-.23-2.38,1.65-3.82,3.91-4.44Zm0,10.43v1.51c-3.66,1.61-7.71,3.31-8.24,6.71-.21,1.35-.19,3.23.74,4.25,1.39,1.54,1.61,1.32,3,2.22C6.21,46.42,3.89,49.21,3.52,53a24,24,0,0,0,7.25,19.77v1.81c-6-5-10-11.16-10-19.33,0-2.93,1.46-6.81,2.84-9.3.12-.28.19-.32.29-.54-2-1-3.84-1.43-3.89-5.17C-.07,35,6.39,32.81,10.77,30.66Zm0,3C7.17,35,1.84,37.42,4.1,42.29a4.18,4.18,0,0,0,3,2.15,21.83,21.83,0,0,1,3.68-3.71V38.42c-1.91,1.43-3.69,2.88-4.32,4.32-.57-.15-1.56-.9-1.66-1.57-.51-3.4,2.76-5.15,6-6.43V33.65Zm0,16.12A14.52,14.52,0,0,0,7.49,57a18.31,18.31,0,0,0,3.28,13.68V67.35c-1.44-2.56-1.85-5-1.55-8.9A11.84,11.84,0,0,1,10.77,53Z"/><path class="cls-2" d="M213.29,58.89c.06,1.32,0,2.69,0,3.91V58.89Zm0,4.93V67.4c.09-.33.33-.4.8-.38,1.14,0,1.53-.21,1.53,1.06L215.49,74a3.46,3.46,0,0,1-1.61,2.81c-1,.47-.36,1.57-.59,2.12v.86h10.14c.78,0,1.31,0,1.68,0,.91,0,.82-.25.82-2.11,0-.71-.15-.61-.44-.78a2.69,2.69,0,0,1-1.67-2.32l0-16.47c0-1.63.74-2,1.75-2.6.45-.24.41-.59.41-1.08,0-2.07.25-1.69-1.84-1.73h-10.8v.77a.78.78,0,0,1,.05.3c0,2.18.23,1.57.95,2.15,1.55,1.24,1.33,3.76,1.33,6.32s0,2.15-2.05,2.21C213.42,64.41,213.32,64.18,213.29,63.82ZM211,53.66c0,1.08-.1,1.21.64,1.62a3.88,3.88,0,0,1,1.66,3c0,.21,0,.43,0,.65V62.8c0,.27,0,.53,0,.78a1.85,1.85,0,0,0,0,.24V67.4a1.38,1.38,0,0,0,0,.38v6c-.06,1.48-.68,3-1.65,3.32-.55.2-.65.49-.68,1.06a1.35,1.35,0,0,0,.2,1,1.11,1.11,0,0,0,.3.07,11.36,11.36,0,0,0,1.15,0c.43,0,.63-.14.72-.34v.86h-2.11c-.61,0-.72,0-.72-.52,0-.29,0-.82,0-1.47,0-1.1.2-.87.92-1.12s1.44-2,1.39-2.79V68.13c0-.41-.34-.54-.76-.54h-4a1.31,1.31,0,0,0-.75.24c0,2,0,4,0,6a4.39,4.39,0,0,0,.76,2.28l.82.66c.87.43.69.82.69,2.06s-.3,1-2.46.93H196.83V77.34a1.28,1.28,0,0,1,.65-.56,2.77,2.77,0,0,0,1.4-1.68c.28-.92.18-8.78.18-10.11s.06-7.13-.21-7.86a2.68,2.68,0,0,0-1.51-1.64,1.13,1.13,0,0,1-.51-.48V52.66h12c.93,0,.7.55.7,2.11,0,1-1.49.92-2,2.33-.4,1.16-.32,4-.3,5.83,0,.62-.08.91.77.91,4.9,0,4.75.41,4.77-1.71,0-2.4.19-5.37-1.51-6.43-.31-.17-.55-.09-.71-.39s-.4-2.64.23-2.64h2.45v.77c-.11-.23-.38-.25-.75-.27H211.4C211.1,53.14,211,53.32,211,53.66Zm-14.12-1V55l-.07-.15,0-1.16a.56.56,0,0,0-.15-.38.68.68,0,0,0-.42-.14l-1,0a.77.77,0,0,0-.36.08.47.47,0,0,0-.2.4v1a1.07,1.07,0,0,0,.07.34c.08.22,1.65.73,1.89,2.24.2,1.2.28,17.38-.07,18.19a3.53,3.53,0,0,1-1.36,1.73c-.41.21-.51.26-.55.62a7.2,7.2,0,0,0,0,.88c0,.37.11.52.45.58h1.25a.84.84,0,0,0,.44-.2c.1-.72-.09-1.23.1-1.65v2.41h-2.11c-.42,0-.58-.55-.56-.85V77.47c0-.49.24-.6.58-.77,1.75-.88,1.5-3,1.54-4.65V59.4c0-1.39,0-3.1-1.66-3.79a.82.82,0,0,1-.5-.83l0-1.27c0-.75.13-.84.62-.85Z"/><path class="cls-3" d="M180.26,55.84a5.31,5.31,0,0,1,1.51,3.63v13a4.3,4.3,0,0,1-1.52,3.35v-.92a4.7,4.7,0,0,0,1-2.67c0-2.73,0-12.39,0-13.15a4.3,4.3,0,0,0-1-2.24v-.95Zm0,20.61v3.19a13.84,13.84,0,0,0,11.85-15,13.59,13.59,0,0,0-11.85-11.85v2.44c1.86.15,3,2.31,3.25,3.44a18.46,18.46,0,0,1,.19,3.57v7.5C183.7,71.4,183.36,75.73,180.26,76.45Zm-.59-21.25c.21.22.41.43.59.64v.95a3.38,3.38,0,0,0-2.35-1.41c-2.27,0-3.09,2-3.26,3.35-.1.87-.06,12.93,0,13.77,0,1.48,1.63,3.78,3.14,3.78a3.3,3.3,0,0,0,2.51-1.43v.92a10.35,10.35,0,0,1-1.07.79,4,4,0,0,0,1.07-.11v3.19a13.73,13.73,0,0,1-1.7.11,19.26,19.26,0,0,1-5.1-.38,14.76,14.76,0,0,1-5.81-3v-.81a10.74,10.74,0,0,0,3.32,2,22.15,22.15,0,0,1-3.32-3V58.48a14,14,0,0,1,4-4,6.89,6.89,0,0,0-4,2v-.6a13.7,13.7,0,0,1,9.07-3.22h1.91a14.27,14.27,0,0,1,1.63.1v2.44A2.35,2.35,0,0,0,179.67,55.2Zm-12,.66v.6a13.37,13.37,0,0,0,0,19.15v.81a12.88,12.88,0,0,1-4.5-10.18,13.57,13.57,0,0,1,4.5-10.38Zm0,2.62a14.78,14.78,0,0,0-2.49,9.46,11.76,11.76,0,0,0,2.49,6.72Z"/><path class="cls-4" d="M159.69,61.79c.36-.56-.07-1.47-.25-2a5.54,5.54,0,0,0-1.95-2.7v-4.4l3.68,0s.5.35.5.7V62c0,.16,0,.35-.22.35H158.1c-.22,0-.43,0-.53-.22a2.81,2.81,0,0,1-.08-.31V59.46a8.45,8.45,0,0,1,.42,1.53c.06.43.05.81.52.81Zm-2.2-4.73A6.3,6.3,0,0,0,155.18,56c-.14.54.11.55.4.81a6.85,6.85,0,0,1,1.91,2.68v2.35c-.39-1.54-.64-4-3.72-5.49-.39.71-.21,5.12-.21,6.32l0,11.32a1.54,1.54,0,0,0,.41,1.33c.84,1.3,1.67,1.17,1.87,1.44a10.41,10.41,0,0,1,.07,2.67c0,.19-.07.35-.24.36h-12.9v-3a2,2,0,0,1,.79-.5,2.11,2.11,0,0,0,1.08-1.35A1.88,1.88,0,0,0,145,73.6V62.27a48.73,48.73,0,0,0-.11-6.44,2.21,2.21,0,0,0-1.6.07c-.51.36-.21.85-.28,1.49l0,14.81a14.63,14.63,0,0,1-.17,2.72V52.66h14.7Zm-14.7-4.4V74.92a2.6,2.6,0,0,1-1.07,1.39c-.42.28-1,.43-1.12,1a1.93,1.93,0,0,0,0,.41c0,.34-.15,1.45.34,1.46l1.44,0s.11,0,.13-.1c.4-1.06-.24-1.81.32-2.43v3h-2.1c-.35,0-.6-.11-.6-.74v-2c0-.19.17-.38.65-.67,1.7-1,1.88-1.94,1.81-4l0-14.86c0-.26-.1-1.07-.44-1.07-2.09,0-3.68,4-3.78,5.41a.54.54,0,0,1-.53.46h-2.08v-.45H136a.66.66,0,0,0,.67-.71l0-7.47a1.9,1.9,0,0,0,0-.25c0-.16-.46-.29-.93-.28v-.5Zm-7,0v.5c-.44,0-.88.13-.92.49-.08.71,0,2,0,2.72l0,4.81a.86.86,0,0,0,.11.45c.13.21.45.26.78.25v.45h-.92c-.26,0-.45-.08-.45-.5l0-8.87c0-.27.24-.34.44-.31Z"/><path class="cls-5" d="M123.1,77.44V75.25l1,3.71c0,.12.08.17.15.18l1.8,0-2.91-10.9V52.66h3.53L132.77,73c.84,2.07.86,2.2,2.63,3.55.74.56.88,0,.89,2.17,0,.84-.31,1-.84,1-3.79,0-7.59,0-11.39,0-.35,0-.44-.36-.53-.71Zm-6.62-22.1a1.43,1.43,0,0,1,.5,1c.17,1.58-.6,5-1.56,8.23V62.07a23.27,23.27,0,0,0,.91-5.69,1.71,1.71,0,0,0-.91-1.14V52.65h7.68V68.27l-2-7.46L120.18,64l2.92,11.22v2.19l-3.26-12.18L116.18,75.5a12.25,12.25,0,0,1-.76,1.25v-6.6a61.36,61.36,0,0,0,3.43-11.7c.11-1,.18-3.07-1.15-3.29A1.85,1.85,0,0,0,116.48,55.34Zm-1.06,9.28c-.33,1.12-.68,2.22-1,3.22V66c.38-1.29.73-2.62,1-3.88v2.55Zm-1,7.51.17-.22a12,12,0,0,0,.86-1.76v6.6a7.64,7.64,0,0,1-1,1.18v-5.8Zm1-19.48v2.59a.58.58,0,0,0-.17-.06,3.55,3.55,0,0,0-.86-.1v-.44H115a.4.4,0,0,0,.35-.33v-.87a.23.23,0,0,0-.1-.17.2.2,0,0,0-.13-.06h-.73v-.54Zm-1,15.19a37.92,37.92,0,0,1-1.53,3.91,8.17,8.17,0,0,1-.92,1.34,2.25,2.25,0,0,0,2.45-1v5.8a7.4,7.4,0,0,1-5.31,1.83,10.84,10.84,0,0,1-3-.29v-.53a1.93,1.93,0,0,0,1.34,0,3.88,3.88,0,0,1,.75-5.89,2.64,2.64,0,0,0-2.09,0v-.62c1.41-.34,3,.35,4.36.47a1.59,1.59,0,0,0,1.48-.7c.73-.86,1.66-3.42,2.49-6.24v1.89Zm0-15.19v.54h-.61a.31.31,0,0,0-.35.31v.89c0,.12,0,.27.16.27l.79,0v.44c-.37,0-.73,0-1,0s-.37-.23-.36-.56V53a.28.28,0,0,1,.29-.31Zm-8.33,19.77V73a2.4,2.4,0,0,0-.7.34,3.15,3.15,0,0,0,.7,5.56v.53a3.21,3.21,0,0,1-2.51-3.15,4.14,4.14,0,0,1,1.36-3.3A2.77,2.77,0,0,1,106.06,72.42Z"/><polygon class="cls-6" points="188.58 36.67 190.91 36.67 193.36 36.67 193.36 39.05 190.91 39.05 190.91 47.49 188.58 47.49 188.58 39.05 186.13 39.05 186.13 36.67 188.58 36.67"/><path class="cls-7" d="M221.5,40.75h1.17a3.2,3.2,0,0,1,2.79,3.64c-.12,1.34-.51,3.12-3.21,3.12h-.75V45.56c.57-.05,1.52-.25,1.57-1.18.07-1.33-.66-1.66-1.57-1.72Zm-3.91-4.07h2.33v4.07h1.58v1.91c-.5,0-1.06,0-1.58,0v2.89h1.17a2.27,2.27,0,0,0,.41,0V47.5h-3.91Z"/><path class="cls-8" d="M179.51,36.68a5.41,5.41,0,1,1,0,10.82V45.4a3.32,3.32,0,1,0,0-6.63Zm0,10.82a5.41,5.41,0,1,1,0-10.82v2.09a3.32,3.32,0,1,0,0,6.63Z"/><path class="cls-9" d="M199.82,36.68a5.14,5.14,0,0,1,5.29,4.08,15.12,15.12,0,0,1,.17,2.21l-3.41.12h-2.05V40.76h3.06a3.35,3.35,0,0,0-3.06-2h0V36.68Zm0,8.72h0a3.37,3.37,0,0,0,2.44-1l2.1.74a5.48,5.48,0,0,1-4.54,2.41h0Zm0-2.31h-3.18a3.33,3.33,0,0,0,3.18,2.31v2.1a5.44,5.44,0,0,1-5.46-5.41,5.59,5.59,0,0,1,5.46-5.41v2.09a3.35,3.35,0,0,0-3.06,2h3.06Z"/><polygon class="cls-10" points="207.16 47.49 210.37 39.8 213.58 47.49 216.1 47.49 211.57 36.67 209.14 36.67 204.63 47.49 207.16 47.49"/></g></g></svg>