<?xml version="1.0" encoding="iso-8859-1"?>
<!-- Generator: Adobe Illustrator 19.0.0, SVG Export Plug-In . SVG Version: 6.00 Build 0)  -->
<svg xmlns="http://www.w3.org/2000/svg" xmlns:xlink="http://www.w3.org/1999/xlink" version="1.1" id="Capa_1" x="0px" y="0px" viewBox="0 0 512.003 512.003" style="enable-background:new 0 0 512.003 512.003;" xml:space="preserve" width="512px" height="512px">
<g>
	<g>
		<g>
			<path d="M316.252,32.224c2.931,2.924,7.68,2.92,10.606-0.012l4.375-4.385l4.375,4.385c1.465,1.468,3.387,2.203,5.31,2.203     c1.916,0,3.833-0.73,5.297-2.19c2.933-2.926,2.938-7.674,0.013-10.607l-4.399-4.41l4.399-4.41     c2.926-2.933,2.92-7.681-0.013-10.607c-2.933-2.925-7.682-2.921-10.606,0.012l-4.375,4.386l-4.375-4.386     c-2.925-2.931-7.674-2.938-10.606-0.012c-2.933,2.926-2.938,7.674-0.013,10.607l4.399,4.41l-4.399,4.41     C313.314,24.55,313.32,29.298,316.252,32.224z" fill="#977044"/>
			<path d="M273.124,53.828c4.143,0,7.5-3.358,7.5-7.5v-0.971c0-4.142-3.357-7.5-7.5-7.5s-7.5,3.358-7.5,7.5v0.971     C265.624,50.471,268.982,53.828,273.124,53.828z" fill="#977044"/>
			<path d="M408.713,101.439c-4.142,0-7.5,3.358-7.5,7.5v0.971c0,4.142,3.357,7.5,7.5,7.5s7.5-3.358,7.5-7.5v-0.971     C416.213,104.797,412.856,101.439,408.713,101.439z" fill="#977044"/>
			<path d="M394.186,82.95c12.145,0,22.026-9.896,22.026-22.061c0-12.165-9.882-22.061-22.027-22.061s-22.027,9.897-22.027,22.061     S382.041,82.95,394.186,82.95z M394.185,53.828c3.875,0,7.027,3.167,7.027,7.061c0,3.894-3.152,7.061-7.027,7.061     s-7.027-3.168-7.027-7.061S390.31,53.828,394.185,53.828z" fill="#977044"/>
			<path d="M472.212,144.636h-21.234c-13.216,0-26.259,4.016-37.197,11.387c-1.678-2.755-3.452-5.468-5.316-8.129     c-16.01-22.854-37.708-40.637-63.007-51.708c0.003-0.179,0.005-0.359,0.005-0.539c0-16.343-13.274-29.639-29.589-29.639     c-12.093,0-22.514,7.304-27.098,17.74c-0.546-0.011-1.093-0.019-1.641-0.023c-20.178-0.186-39.768,3.612-58.267,11.25     c-8.059,3.326-13.266,11.106-13.266,19.82c0,6.268,2.723,12.193,7.47,16.256c30.067,25.732,47.31,63.18,47.31,102.742     s-17.244,77.011-47.31,102.742c-4.747,4.063-7.47,9.988-7.47,16.256c0,8.71,5.185,16.481,13.21,19.797     c18.108,7.484,37.292,11.279,57.021,11.279c40.118,0,77.802-15.69,106.112-44.18c28.395-28.575,43.891-66.53,43.635-106.871     c-0.141-22.191-5.138-43.773-14.604-63.531c8.709-6.236,19.282-9.65,30.002-9.65h21.234c0.711,0,1.289,0.587,1.289,1.309v17.854     c0,14.54-6.156,28.488-16.888,38.266c-3.061,2.79-3.282,7.533-0.492,10.595c2.789,3.062,7.533,3.282,10.596,0.493     c13.844-12.614,21.784-30.604,21.784-49.354v-17.854C488.501,151.952,481.194,144.635,472.212,144.636z M315.873,81.008     c8.044,0,14.589,6.567,14.589,14.639c0,0.995-0.1,1.968-0.289,2.908c-0.13,0.39-0.226,0.784-0.289,1.179     c-1.768,6.089-7.38,10.552-14.011,10.552c-8.044,0-14.588-6.567-14.588-14.639C301.285,87.575,307.829,81.008,315.873,81.008z      M267.836,163.306c5.037-4.181,11.285-6.447,17.946-6.447c15.586,0,28.267,12.717,28.267,28.348     c0,15.631-12.681,28.348-28.267,28.348c-0.589,0-1.18-0.018-1.771-0.056C281.611,195.844,276.107,178.868,267.836,163.306z      M328.018,362.151c-5.654-4.42-9.062-11.28-9.062-18.55c0-12.954,10.508-23.494,23.424-23.494     c12.568,0,22.856,9.98,23.401,22.454C354.243,351.122,341.517,357.71,328.018,362.151z M381.303,329.116     c-0.805,0.81-1.619,1.609-2.441,2.397c-5.071-15.322-19.509-26.405-36.483-26.405c-21.187,0-38.424,17.268-38.424,38.494     c0,8.318,2.724,16.309,7.524,22.838c-8.364,1.606-16.941,2.427-25.647,2.427c-17.753,0-35.01-3.412-51.291-10.141     c-2.393-0.989-3.939-3.319-3.939-5.935c0-1.879,0.811-3.65,2.224-4.859c33.4-28.586,52.556-70.188,52.556-114.139     c0-1.751-0.03-3.497-0.091-5.241c0.164,0.002,0.327,0.003,0.491,0.003c23.858,0,43.267-19.446,43.267-43.348     c0-23.902-19.41-43.348-43.267-43.348c-9.28,0-18.303,3.031-25.694,8.489c-7.559-11.308-16.699-21.652-27.262-30.693     c-1.413-1.209-2.224-2.98-2.224-4.859c0-2.618,1.565-4.955,3.989-5.955c16.464-6.797,33.894-10.173,51.852-10.12     c1.539,14.904,14.151,26.565,29.43,26.565c10.804,0,20.275-5.832,25.44-14.518c47.373,21.666,78.934,69.849,79.267,122.144     C420.811,269.229,406.863,303.394,381.303,329.116z" fill="#977044"/>
			<path d="M477.954,328.318c0-26.333-1.63-52.931-4.844-79.058c-0.507-4.111-4.241-7.034-8.36-6.528     c-4.111,0.506-7.033,4.249-6.528,8.36c3.141,25.521,4.732,51.504,4.732,77.226c0,34.664-2.883,69.574-8.569,103.765l-0.119,0.719     c-0.415,2.509,0.469,5.057,2.349,6.77c10.731,9.778,16.887,23.725,16.887,38.265v17.855c0,0.722-0.578,1.309-1.289,1.309h-21.235     c-13.771,0-26.72-5.376-36.466-15.144l-0.277-0.277c-1.639-1.637-3.943-2.427-6.236-2.139     c-46.346,5.807-93.529,8.751-140.238,8.751h-25.273c-39.03,0-78.502-2.058-117.317-6.117c-4.13-0.425-7.81,2.56-8.239,6.679     c-0.431,4.12,2.56,7.809,6.679,8.24c39.332,4.113,79.328,6.198,118.878,6.198h25.273c46.137,0,92.735-2.835,138.556-8.428     c12.258,11.14,27.99,17.236,44.659,17.236h21.235c8.981,0,16.289-7.316,16.289-16.309v-17.855     c0-17.359-6.806-34.065-18.801-46.458C475.178,397.392,477.954,362.736,477.954,328.318z" fill="#977044"/>
			<path d="M339.297,246.191c0,16.343,13.274,29.639,29.589,29.639s29.588-13.296,29.588-29.639     c0-16.343-13.274-29.639-29.588-29.639C352.571,216.552,339.297,229.848,339.297,246.191z M383.474,246.191     c0,8.072-6.544,14.639-14.588,14.639c-8.044,0-14.589-6.567-14.589-14.639c0-8.072,6.545-14.639,14.589-14.639     S383.474,238.119,383.474,246.191z" fill="#977044"/>
			<path d="M96.003,481.586C86.085,491.526,72.901,497,58.877,497H39.79c-0.711,0-1.289-0.587-1.289-1.309v-19.13     c0-14.067,5.465-27.291,15.388-37.236c1.709-1.713,2.486-4.146,2.088-6.532l-0.119-0.715     c-5.685-34.189-8.567-69.099-8.567-103.76c0-34.663,2.883-69.573,8.571-103.775l0.118-0.72c0.391-2.38-0.388-4.804-2.092-6.512     c-9.923-9.944-15.387-23.168-15.387-37.235v-19.131c0-0.722,0.578-1.309,1.289-1.309h19.087c14.023,0,27.209,5.475,37.127,15.416     c1.637,1.641,3.938,2.431,6.242,2.145c40.937-5.129,82.608-8.033,123.86-8.632c4.142-0.06,7.45-3.466,7.39-7.608     c-0.06-4.105-3.405-7.391-7.497-7.391c-0.036,0-0.074,0-0.111,0.001c-40.615,0.59-81.637,3.385-121.982,8.311     c-12.396-11.146-28.244-17.24-45.028-17.24H39.79c-8.981,0-16.289,7.316-16.289,16.309v19.131     c0,16.751,6.036,32.575,17.076,44.975c-5.499,34.053-8.287,68.781-8.287,103.268c0,34.485,2.787,69.211,8.287,103.269     c-11.04,12.4-17.076,28.223-17.076,44.974v19.13c0,8.993,7.308,16.309,16.289,16.309h19.087c18.036,0,34.992-7.039,47.745-19.82     c2.926-2.932,2.92-7.681-0.013-10.606C103.677,478.648,98.928,478.653,96.003,481.586z" fill="#977044"/>
			<path d="M92.636,223.822c0.67-4.085-2.096-7.94-6.18-8.614c-4.086-0.674-7.943,2.089-8.62,6.174l-0.118,0.715     c-5.82,35.003-8.771,70.742-8.771,106.221s2.951,71.217,8.771,106.215l0.119,0.719c0.608,3.672,3.787,6.276,7.391,6.276     c0.406,0,0.819-0.033,1.233-0.102c4.087-0.677,6.852-4.538,6.175-8.624l-0.12-0.725c-5.686-34.193-8.568-69.103-8.568-103.76     c0-34.657,2.883-69.567,8.571-103.775L92.636,223.822z" fill="#977044"/>
		</g>
	</g>
</g>
<g>
</g>
<g>
</g>
<g>
</g>
<g>
</g>
<g>
</g>
<g>
</g>
<g>
</g>
<g>
</g>
<g>
</g>
<g>
</g>
<g>
</g>
<g>
</g>
<g>
</g>
<g>
</g>
<g>
</g>
</svg>
