<?xml version="1.0" encoding="iso-8859-1"?>
<!-- Generator: Adobe Illustrator 19.0.0, SVG Export Plug-In . SVG Version: 6.00 Build 0)  -->
<svg xmlns="http://www.w3.org/2000/svg" xmlns:xlink="http://www.w3.org/1999/xlink" version="1.1" id="Capa_1" x="0px" y="0px" viewBox="0 0 409.6 409.6" style="enable-background:new 0 0 409.6 409.6;" xml:space="preserve" width="512px" height="512px">
<g>
	<g>
		<path d="M378.06,261.155h-29.81V31.46C348.25,14.115,334.135,0,316.79,0s-31.46,14.115-31.46,31.46v229.695H31.54    c-17.39,0-31.54,14.15-31.54,31.54v78.825c0,2.83,2.29,5.12,5.12,5.12h17.795v27.84c0,2.83,2.29,5.12,5.12,5.12h64    c2.83,0,5.12-2.29,5.12-5.12v-27.84h215.29v27.84c0,2.83,2.29,5.12,5.12,5.12h64c2.83,0,5.12-2.29,5.12-5.12v-27.84h17.795    c2.83,0,5.12-2.29,5.12-5.12v-78.825C409.6,275.305,395.45,261.155,378.06,261.155z M295.57,31.46c0-11.7,9.52-21.22,21.22-21.22    s21.22,9.52,21.22,21.22v229.695h-42.44V31.46z M86.915,399.36h-53.76v-22.72h53.76V399.36z M376.445,399.36h-53.76v-22.72h53.76    V399.36z M399.36,366.4H10.24v-73.705c0-11.745,9.555-21.3,21.3-21.3h346.52c11.745,0,21.3,9.555,21.3,21.3V366.4z" fill="#977044"/>
	</g>
</g>
<g>
	<g>
		<path d="M72.945,294.615c-13.39,0-24.285,10.895-24.285,24.285c0,13.39,10.895,24.28,24.285,24.28    c13.39,0,24.285-10.89,24.285-24.28C97.23,305.51,86.335,294.615,72.945,294.615z M72.945,332.94    c-7.745,0-14.045-6.3-14.045-14.04c0-7.745,6.3-14.045,14.045-14.045s14.045,6.3,14.045,14.045    C86.99,326.64,80.69,332.94,72.945,332.94z" fill="#977044"/>
	</g>
</g>
<g>
	<g>
		<path d="M185.71,313.78h-56.32c-2.83,0-5.12,2.29-5.12,5.12c0,2.83,2.29,5.12,5.12,5.12h56.32c2.83,0,5.12-2.29,5.12-5.12    C190.83,316.07,188.54,313.78,185.71,313.78z" fill="#977044"/>
	</g>
</g>
<g>
	<g>
		<path d="M277.74,313.78h-56.32c-2.83,0-5.12,2.29-5.12,5.12c0,2.83,2.29,5.12,5.12,5.12h56.32c2.83,0,5.12-2.29,5.12-5.12    C282.86,316.07,280.57,313.78,277.74,313.78z" fill="#977044"/>
	</g>
</g>
<g>
	<g>
		<path d="M189,205.275c-15.7-27.84-45.21-45.135-77.015-45.135s-61.31,17.29-77.01,45.125c-1.39,2.465-0.52,5.585,1.945,6.975    s5.585,0.515,6.975-1.945c13.885-24.62,39.975-39.915,68.09-39.915s54.21,15.3,68.095,39.925c0.94,1.67,2.675,2.605,4.465,2.605    c0.85,0,1.715-0.21,2.51-0.66C189.52,210.86,190.39,207.74,189,205.275z" fill="#977044"/>
	</g>
</g>
<g>
	<g>
		<path d="M219.24,187.235c-21.86-38.775-62.96-62.86-107.255-62.86c-44.29,0-85.39,24.085-107.255,62.85    c-1.39,2.465-0.52,5.585,1.945,6.975c2.47,1.395,5.59,0.515,6.975-1.945c20.05-35.555,57.73-57.64,98.335-57.64    s78.285,22.09,98.335,57.65c0.94,1.67,2.675,2.605,4.465,2.605c0.85,0,1.715-0.21,2.51-0.66    C219.76,192.82,220.63,189.7,219.24,187.235z" fill="#977044"/>
	</g>
</g>
<g>
	<g>
		<path d="M155.995,227.61c-7.505-17.795-24.775-29.295-44.01-29.295c-19.23,0-36.5,11.5-44.005,29.295    c-1.095,2.605,0.125,5.61,2.73,6.71c2.6,1.08,5.61-0.125,6.71-2.73c5.895-13.995,19.465-23.035,34.565-23.035    c15.105,0,28.675,9.04,34.57,23.035c0.825,1.955,2.725,3.13,4.72,3.13c0.665,0,1.34-0.13,1.99-0.4    C155.87,233.22,157.09,230.215,155.995,227.61z" fill="#977044"/>
	</g>
</g>
<g>
</g>
<g>
</g>
<g>
</g>
<g>
</g>
<g>
</g>
<g>
</g>
<g>
</g>
<g>
</g>
<g>
</g>
<g>
</g>
<g>
</g>
<g>
</g>
<g>
</g>
<g>
</g>
<g>
</g>
</svg>
