<?xml version="1.0" encoding="iso-8859-1"?>
<!-- Generator: Adobe Illustrator 19.0.0, SVG Export Plug-In . SVG Version: 6.00 Build 0)  -->
<svg xmlns="http://www.w3.org/2000/svg" xmlns:xlink="http://www.w3.org/1999/xlink" version="1.1" id="Layer_1" x="0px" y="0px" viewBox="0 0 512 512" style="enable-background:new 0 0 512 512;" xml:space="preserve" width="512px" height="512px">
<g>
	<g>
		<path d="M256,49.633C142.209,49.633,49.633,142.209,49.633,256c0,77.077,42.449,147.174,110.781,182.936    c9.789,5.124,20.026,9.471,30.413,12.916c2.074,0.692,4.165,1.35,6.184,1.95c2.178,0.656,4.42,1.284,6.859,1.919    c16.947,4.411,34.486,6.648,52.13,6.648s35.183-2.236,52.131-6.648c2.438-0.635,4.68-1.262,6.827-1.91    c2.049-0.608,4.14-1.267,6.203-1.955c10.4-3.449,20.637-7.796,30.424-12.919C419.918,403.174,462.367,333.077,462.367,256    C462.367,142.209,369.792,49.633,256,49.633z M344.317,425.049c-5.782,3.027-11.733,5.755-17.786,8.166v-18.073    c10.276-1.622,19.751-6.426,27.251-13.926c9.38-9.367,14.545-21.831,14.545-35.095V220.066c0-15.845-12.891-28.735-28.735-28.735    c-4.616,0-9.065,1.09-13.061,3.136v-37.091c0-15.845-12.891-28.735-28.735-28.735c-4.702,0-9.139,1.142-13.061,3.154v-5.766    c0-15.845-12.891-28.735-28.735-28.735c-15.844,0-28.735,12.89-28.735,28.735v5.766c-3.922-2.01-8.359-3.154-13.061-3.154    c-15.844,0-28.735,12.89-28.735,28.735v52.241h15.673v-52.241c0-7.203,5.859-13.061,13.061-13.061    c7.202,0,13.061,5.859,13.061,13.061v125.388h15.673V126.029c0-7.203,5.859-13.061,13.061-13.061    c7.203,0,13.061,5.859,13.061,13.061v31.347v125.388h15.673V157.376c0-7.203,5.859-13.061,13.061-13.061    c7.203,0,13.061,5.859,13.061,13.061v62.69v0.004v73.139h15.674V220.07v-0.004c0-3.486,1.359-6.765,3.827-9.234    c2.469-2.468,5.748-3.827,9.234-3.827c7.202,0,13.061,5.859,13.061,13.061v146.056c0,9.074-3.533,17.598-9.951,24.009    c-6.417,6.417-14.943,9.951-24.009,9.951h-7.837v38.589c-0.131,0.039-0.261,0.085-0.391,0.123    c-1.986,0.599-4.043,1.174-6.286,1.759c-15.658,4.075-31.868,6.142-48.18,6.142c-16.312,0-32.522-2.067-48.179-6.142    c-2.243-0.584-4.3-1.16-6.317-1.768c-0.119-0.036-0.24-0.074-0.36-0.111v-22.919h86.204v-15.673h-86.204h-7.837    c-18.726,0-33.959-15.234-33.959-33.959V240.964c0-3.486,1.359-6.765,3.827-9.234c2.469-2.468,5.748-3.827,9.234-3.827    c7.203,0,13.061,5.859,13.061,13.061v70.531h7.837c15.844,0,28.735,12.89,28.735,28.735h15.673    c0-21.813-15.809-40.003-36.571-43.715v-55.55c0-15.845-12.891-28.735-28.735-28.735c-7.672,0-14.887,2.989-20.316,8.419    c-5.428,5.429-8.419,12.644-8.419,20.316v125.158c0,24.701,18.138,45.246,41.796,49.014v18.079    c-6.05-2.41-12.003-5.139-17.787-8.167C104.535,392.001,65.306,327.225,65.306,256c0-105.149,85.545-190.694,190.694-190.694    S446.694,150.851,446.694,256C446.694,327.225,407.465,392.001,344.317,425.049z" fill="#977044"/>
	</g>
</g>
<g>
	<g>
		<path d="M437.02,74.98C388.669,26.628,324.381,0,256,0S123.331,26.628,74.98,74.98S0,187.619,0,256    c0,95.61,52.659,182.567,137.425,226.935c17.109,8.963,35.248,15.968,53.906,20.819C212.343,509.226,234.1,512,256,512    s43.657-2.774,64.666-8.245c18.662-4.851,36.801-11.856,53.907-20.819C459.34,438.567,512,351.61,512,256    C512,187.619,485.372,123.331,437.02,74.98z M367.302,469.052c-16.054,8.41-33.071,14.983-50.583,19.534    c-19.722,5.137-40.151,7.741-60.719,7.741s-40.997-2.604-60.722-7.742c-17.508-4.552-34.526-11.124-50.582-19.535    C65.112,427.395,15.673,345.758,15.673,256c0-64.194,24.998-124.547,70.389-169.937C131.454,40.672,191.806,15.673,256,15.673    s124.546,24.998,169.938,70.39c45.39,45.39,70.389,105.743,70.389,169.937C496.327,345.758,446.887,427.395,367.302,469.052z" fill="#977044"/>
	</g>
</g>
<g>
</g>
<g>
</g>
<g>
</g>
<g>
</g>
<g>
</g>
<g>
</g>
<g>
</g>
<g>
</g>
<g>
</g>
<g>
</g>
<g>
</g>
<g>
</g>
<g>
</g>
<g>
</g>
<g>
</g>
</svg>
