<?xml version="1.0" encoding="iso-8859-1"?>
<!-- Generator: Adobe Illustrator 19.0.0, SVG Export Plug-In . SVG Version: 6.00 Build 0)  -->
<svg xmlns="http://www.w3.org/2000/svg" xmlns:xlink="http://www.w3.org/1999/xlink" version="1.1" id="Layer_1" x="0px" y="0px" viewBox="0 0 512 512" style="enable-background:new 0 0 512 512;" xml:space="preserve" width="512px" height="512px">
<g>
	<g>
		<rect x="336.842" y="118.568" width="16.168" height="16.168" fill="#977044"/>
	</g>
</g>
<g>
	<g>
		<rect x="304.505" y="118.568" width="16.168" height="16.168" fill="#977044"/>
	</g>
</g>
<g>
	<g>
		<rect x="369.179" y="118.568" width="16.168" height="16.168" fill="#977044"/>
	</g>
</g>
<g>
	<g>
		<path d="M478.116,323.905l-20.545-87.885c-4.297-18.382-20.482-31.22-39.359-31.22H244.693c-18.877,0-35.062,12.838-39.359,31.22    l-20.545,87.885c-19.19,3.135-33.884,19.821-33.884,39.884v94.316h21.558v18.863c0,19.316,15.715,35.032,35.032,35.032    s35.032-15.716,35.032-35.032v-18.863h177.853v18.863c0,19.316,15.715,35.032,35.032,35.032s35.032-15.716,35.032-35.032v-18.863    H512v-94.316C512,343.727,497.306,327.04,478.116,323.905z M221.077,239.7c2.578-11.029,12.289-18.732,23.616-18.732h173.519    c11.327,0,21.037,7.703,23.616,18.732l19.56,83.668h-259.87L221.077,239.7z M226.358,476.968c0,10.401-8.463,18.863-18.863,18.863    c-10.401,0-18.863-8.463-18.863-18.863v-18.863h37.726V476.968z M474.274,476.968c0,10.401-8.463,18.863-18.863,18.863    s-18.863-8.463-18.863-18.863v-18.863h37.726V476.968z M495.832,441.937h-5.389h-70.063H242.526h-70.063h-5.39v-78.147    c0-13.373,10.88-24.253,24.253-24.253h280.253c13.372,0,24.253,10.879,24.253,24.253V441.937z" fill="#977044"/>
	</g>
</g>
<g>
	<g>
		<path d="M218.274,355.705c-19.317,0-35.032,15.716-35.032,35.032c0,19.316,15.715,35.032,35.032,35.032    s35.032-15.716,35.032-35.032C253.305,371.421,237.591,355.705,218.274,355.705z M218.274,409.6    c-10.401,0-18.863-8.463-18.863-18.863c0-10.401,8.463-18.863,18.863-18.863c10.401,0,18.863,8.463,18.863,18.863    C237.137,401.137,228.674,409.6,218.274,409.6z" fill="#977044"/>
	</g>
</g>
<g>
	<g>
		<path d="M444.632,355.705c-19.317,0-35.032,15.716-35.032,35.032c0,19.316,15.715,35.032,35.032,35.032    c19.317,0,35.032-15.716,35.032-35.032C479.663,371.421,463.948,355.705,444.632,355.705z M444.632,409.6    c-10.401,0-18.863-8.463-18.863-18.863c0-10.401,8.463-18.863,18.863-18.863c10.401,0,18.863,8.463,18.863,18.863    C463.495,401.137,455.032,409.6,444.632,409.6z" fill="#977044"/>
	</g>
</g>
<g>
	<g>
		<rect x="266.779" y="366.484" width="129.347" height="16.168" fill="#977044"/>
	</g>
</g>
<g>
	<g>
		<rect x="266.779" y="398.821" width="129.347" height="16.168" fill="#977044"/>
	</g>
</g>
<g>
	<g>
		<path d="M158.172,87.817c-1.444-3.694-3.685-6.901-6.721-9.618c-3.036-2.717-6.9-4.852-11.592-6.402    c-4.692-1.55-10.309-2.325-16.848-2.325H90.274v92.801h21.528v-31.017h11.212c6.411,0,11.964-0.774,16.656-2.325    c4.691-1.55,8.567-3.705,11.624-6.465c3.058-2.759,5.328-6.072,6.816-9.936c1.486-3.863,2.229-8.11,2.229-12.739    C160.338,95.504,159.616,91.511,158.172,87.817z M135.113,111.001c-2.463,2.675-6.496,4.013-12.102,4.013h-11.21V85.587h11.21    c2.717,0,5.064,0.34,7.039,1.019c1.975,0.68,3.609,1.647,4.904,2.898c1.295,1.254,2.261,2.75,2.898,4.49    c0.637,1.742,0.955,3.673,0.955,5.796C138.808,104.589,137.575,108.325,135.113,111.001z" fill="#977044"/>
	</g>
</g>
<g>
	<g>
		<path d="M115.874,0C51.981,0,0,51.98,0,115.874c0,51.807,34.244,97.104,83.699,111.345l32.175,55.728l32.175-55.728    c49.455-14.241,83.699-59.539,83.699-111.345C231.747,51.98,179.766,0,115.874,0z M140.704,212.464l-3.294,0.844l-21.536,37.303    l-21.536-37.304l-3.294-0.844c-44.086-11.297-74.875-51.016-74.875-96.589c0-54.978,44.727-99.705,99.705-99.705    s99.705,44.727,99.705,99.705C215.579,161.447,184.79,201.165,140.704,212.464z" fill="#977044"/>
	</g>
</g>
<g>
</g>
<g>
</g>
<g>
</g>
<g>
</g>
<g>
</g>
<g>
</g>
<g>
</g>
<g>
</g>
<g>
</g>
<g>
</g>
<g>
</g>
<g>
</g>
<g>
</g>
<g>
</g>
<g>
</g>
</svg>
