<?xml version="1.0" encoding="iso-8859-1"?>
<!-- Generator: Adobe Illustrator 19.0.0, SVG Export Plug-In . SVG Version: 6.00 Build 0)  -->
<svg xmlns="http://www.w3.org/2000/svg" xmlns:xlink="http://www.w3.org/1999/xlink" version="1.1" id="Capa_1" x="0px" y="0px" viewBox="0 0 512 512" style="enable-background:new 0 0 512 512;" xml:space="preserve" width="512px" height="512px">
<g>
	<g>
		<path d="M256,54.761c-42.84,0-77.693,34.853-77.693,77.693c0,42.84,34.853,77.693,77.693,77.693    c42.84,0,77.693-34.853,77.693-77.693C333.693,89.614,298.84,54.761,256,54.761z M256,194.317    c-34.112,0-61.863-27.752-61.863-61.863c0-34.112,27.751-61.863,61.863-61.863s61.863,27.751,61.863,61.863    S290.112,194.317,256,194.317z" fill="#977044"/>
	</g>
</g>
<g>
	<g>
		<path d="M501.351,485.882l-71.962-223.097c-2.672-8.283-10.315-13.848-19.018-13.848h-27.557c-4.371,0-7.915,3.544-7.915,7.915    c0,4.371,3.544,7.915,7.915,7.915h27.557c1.809,0,3.398,1.157,3.953,2.878l71.962,223.097c0.565,1.75-0.13,3.082-0.595,3.72    c-0.465,0.638-1.519,1.709-3.358,1.709H101.73l16.827-63.044H258.11c4.371,0,7.915-3.544,7.915-7.915v-32.474    c22.322-3.249,38.642-17.198,38.642-34.406c0-8.382-3.91-16.208-10.975-22.395c10.475-11.289,22.518-25.078,34.637-40.673    c44.952-57.845,67.745-110.059,67.745-155.19C396.073,62.837,333.237,0,256,0S115.927,62.837,115.927,140.073    c0,45.132,22.792,97.346,67.745,155.19c12.119,15.595,24.162,29.384,34.637,40.673c-7.064,6.187-10.975,14.014-10.975,22.395    c0,18.274,18.407,32.866,42.861,34.878v24.087H112.477c-3.585,0-6.722,2.41-7.647,5.874l-19.484,73H29.667    c-1.839,0-2.893-1.07-3.358-1.709c-0.465-0.638-1.16-1.97-0.595-3.72l71.962-223.096c0.555-1.722,2.144-2.879,3.953-2.879h27.305    c4.371,0,7.915-3.544,7.915-7.915c0-4.371-3.544-7.915-7.915-7.915H101.63c-8.703,0-16.346,5.565-19.018,13.849L10.649,485.882    c-1.984,6.15-0.94,12.674,2.863,17.898c3.804,5.224,9.692,8.22,16.154,8.22h452.666c6.462,0,12.35-2.996,16.154-8.22    C502.291,498.555,503.335,492.031,501.351,485.882z M131.756,140.073C131.756,71.565,187.492,15.83,256,15.83    s124.244,55.735,124.244,124.244c0,88.02-99.941,188.394-124.244,211.494C231.697,328.467,131.756,228.094,131.756,140.073z     M223.164,358.332c0-3.851,2.158-7.663,6.066-10.911c11.002,11.28,18.873,18.491,20.975,20.39c0.299,0.27,0.478,0.431,0.528,0.475    c3.001,2.676,7.534,2.676,10.535,0c0.05-0.044,0.229-0.205,0.528-0.475c2.102-1.899,9.973-9.11,20.975-20.39    c3.908,3.247,6.066,7.059,6.066,10.911c0,10.278-15.344,19.294-32.836,19.294S223.164,368.61,223.164,358.332z" fill="#977044"/>
	</g>
</g>
<g>
</g>
<g>
</g>
<g>
</g>
<g>
</g>
<g>
</g>
<g>
</g>
<g>
</g>
<g>
</g>
<g>
</g>
<g>
</g>
<g>
</g>
<g>
</g>
<g>
</g>
<g>
</g>
<g>
</g>
</svg>
