<?xml version="1.0" encoding="iso-8859-1"?>
<!-- Generator: Adobe Illustrator 19.0.0, SVG Export Plug-In . SVG Version: 6.00 Build 0)  -->
<svg xmlns="http://www.w3.org/2000/svg" xmlns:xlink="http://www.w3.org/1999/xlink" version="1.1" id="Capa_1" x="0px" y="0px" viewBox="0 0 512.001 512.001" style="enable-background:new 0 0 512.001 512.001;" xml:space="preserve" width="512px" height="512px">
<g>
	<g>
		<path d="M511.539,319.791l-44.583-121.174v-95.939c0-4.143-3.357-7.5-7.5-7.5h-30.563l-19.594-53.263    c-1.431-3.888-5.739-5.884-9.627-4.45L242.676,95.178H160.5c-4.143,0-7.5,3.357-7.5,7.5s3.357,7.5,7.5,7.5h83.485    c0.009,0,0.017,0.002,0.025,0.002c0.015,0,0.03-0.002,0.045-0.002h207.9v280.87H415.75c-4.143,0-7.5,3.357-7.5,7.5    s3.357,7.5,7.5,7.5h43.706c4.143,0,7.5-3.357,7.5-7.5V344.17l40.131-14.749c1.868-0.686,3.386-2.087,4.221-3.893    C512.143,323.722,512.226,321.658,511.539,319.791z M286.148,95.177L397.81,54.13l15.1,41.047H286.148z M466.956,328.189v-86.13    l27.915,75.87L466.956,328.189z" fill="#977044"/>
	</g>
</g>
<g>
	<g>
		<path d="M383.75,391.048H82.563v-280.87H127.5c4.143,0,7.5-3.357,7.5-7.5c0-4.143-3.357-7.5-7.5-7.5H39.456    c-4.143,0-7.5,3.357-7.5,7.5v69.964L4.913,182.58c-1.867,0.687-3.386,2.087-4.221,3.893c-0.835,1.807-0.918,3.87-0.231,5.737    l31.495,85.598v120.74c0,4.143,3.357,7.5,7.5,7.5h39.682l9.373,25.475c1.116,3.033,3.986,4.912,7.04,4.912    c0.859,0,1.734-0.149,2.589-0.463c3.888-1.431,5.879-5.741,4.449-9.629l-7.467-20.296h160.042L114.19,457.872l-0.673-1.827    c-1.431-3.887-5.739-5.879-9.628-4.448c-3.888,1.43-5.879,5.741-4.448,9.628l3.262,8.863c1.115,3.033,3.985,4.912,7.039,4.912    c0.859,0,1.733-0.148,2.587-0.463l186.306-68.489h85.116c4.143,0,7.5-3.357,7.5-7.5    C391.25,394.405,387.893,391.048,383.75,391.048z M31.956,234.366L17.13,194.071l14.826-5.448V234.366z M67.563,391.048H46.956    v-280.87h20.607V391.048z" fill="#977044"/>
	</g>
</g>
<g>
	<g>
		<path d="M404.828,137.485h-44.267c-4.143,0-7.5,3.357-7.5,7.5v176.238c0,0.003,0,0.005,0,0.008c0,0.012,0.002,0.024,0.002,0.037    c0.002,0.29,0.023,0.575,0.057,0.856c0.01,0.078,0.024,0.156,0.036,0.234c0.035,0.229,0.079,0.454,0.135,0.676    c0.018,0.074,0.036,0.147,0.057,0.22c0.078,0.277,0.167,0.549,0.275,0.812c0.005,0.011,0.008,0.023,0.012,0.034    c0.118,0.283,0.256,0.556,0.406,0.821c0.012,0.021,0.021,0.045,0.033,0.066l19.461,33.536c2.058,3.548,5.854,5.728,9.947,5.728    c0.067,0,0.136-0.001,0.204-0.002c4.17-0.074,7.98-2.405,9.944-6.087l17.778-33.342c0.011-0.018,0.021-0.037,0.031-0.055    l0.007-0.014c0.004-0.008,0.007-0.016,0.011-0.024c0.134-0.253,0.25-0.516,0.355-0.785c0.025-0.065,0.049-0.131,0.072-0.197    c0.08-0.223,0.149-0.45,0.207-0.683c0.016-0.065,0.035-0.129,0.05-0.194c0.119-0.53,0.187-1.079,0.187-1.645V144.985    C412.328,140.842,408.971,137.485,404.828,137.485z M383.354,345.556l-9.769-16.834h18.744L383.354,345.556z M397.329,313.723    h-29.267V152.485h29.267V313.723z" fill="#977044"/>
	</g>
</g>
<g>
	<g>
		<path d="M334.871,137.485h-44.267c-4.143,0-7.5,3.357-7.5,7.5v176.238c0,0.003,0,0.005,0,0.008    c0.001,0.012,0.003,0.024,0.003,0.036c0.002,0.29,0.023,0.575,0.057,0.856c0.01,0.078,0.024,0.156,0.036,0.234    c0.035,0.229,0.079,0.454,0.135,0.676c0.018,0.074,0.036,0.147,0.057,0.22c0.078,0.277,0.167,0.549,0.275,0.812    c0.005,0.011,0.008,0.023,0.012,0.034c0.118,0.283,0.256,0.556,0.406,0.821c0.012,0.021,0.021,0.045,0.033,0.066l19.461,33.536    c2.058,3.548,5.854,5.728,9.946,5.728c0.069,0,0.138-0.001,0.207-0.002c4.17-0.074,7.979-2.407,9.941-6.086l17.783-33.35    c0.007-0.013,0.014-0.026,0.021-0.039l0.012-0.023c0.007-0.013,0.011-0.027,0.018-0.04c0.13-0.248,0.244-0.504,0.347-0.767    c0.027-0.068,0.05-0.136,0.075-0.204c0.079-0.221,0.147-0.446,0.205-0.676c0.017-0.066,0.036-0.132,0.051-0.199    c0.118-0.53,0.186-1.078,0.186-1.644V144.985C342.371,140.842,339.014,137.485,334.871,137.485z M313.396,345.556l-9.769-16.834    h18.744L313.396,345.556z M327.371,313.723h-29.267V152.485h29.267V313.723z" fill="#977044"/>
	</g>
</g>
<g>
	<g>
		<path d="M264.914,137.485h-44.268c-4.143,0-7.5,3.357-7.5,7.5v176.238c0,0.003,0,0.005,0,0.008    c0.001,0.012,0.003,0.024,0.003,0.036c0.002,0.29,0.023,0.575,0.057,0.856c0.01,0.078,0.024,0.156,0.036,0.234    c0.035,0.229,0.079,0.454,0.135,0.676c0.018,0.074,0.036,0.147,0.057,0.22c0.078,0.277,0.167,0.549,0.275,0.812    c0.005,0.011,0.008,0.023,0.012,0.034c0.118,0.283,0.256,0.556,0.406,0.821c0.012,0.021,0.021,0.045,0.033,0.066l19.462,33.538    c2.059,3.547,5.855,5.727,9.946,5.727c0.069,0,0.139-0.001,0.208-0.002c4.17-0.075,7.979-2.407,9.94-6.086l17.783-33.35    c0.007-0.013,0.014-0.026,0.021-0.039l0.012-0.023c0.007-0.013,0.011-0.027,0.018-0.04c0.13-0.248,0.244-0.504,0.347-0.767    c0.027-0.068,0.05-0.136,0.075-0.204c0.079-0.221,0.147-0.446,0.205-0.676c0.017-0.066,0.036-0.132,0.051-0.199    c0.118-0.53,0.186-1.078,0.186-1.644V144.985C272.414,140.842,269.057,137.485,264.914,137.485z M243.438,345.556l-9.769-16.834    h18.745L243.438,345.556z M257.414,313.723h-29.268V152.485h29.268V313.723z" fill="#977044"/>
	</g>
</g>
<g>
</g>
<g>
</g>
<g>
</g>
<g>
</g>
<g>
</g>
<g>
</g>
<g>
</g>
<g>
</g>
<g>
</g>
<g>
</g>
<g>
</g>
<g>
</g>
<g>
</g>
<g>
</g>
<g>
</g>
</svg>
