<?xml version="1.0" standalone="no"?>
<!DOCTYPE svg PUBLIC "-//W3C//DTD SVG 20010904//EN"
 "http://www.w3.org/TR/2001/REC-SVG-20010904/DTD/svg10.dtd">
<svg version="1.0" xmlns="http://www.w3.org/2000/svg"
 width="399.000000pt" height="399.000000pt" viewBox="0 0 399.000000 399.000000"
 preserveAspectRatio="xMidYMid meet">
<metadata>
Created by potrace 1.11, written by Peter Selinger 2001-2013
</metadata>
<g transform="translate(0.000000,399.000000) scale(0.100000,-0.100000)"
fill="#000000" stroke="none">
<path d="M569 3598 c0 -2 -2 -34 -4 -72 -2 -59 0 -70 18 -85 65 -52 93 -83
104 -112 9 -23 12 -106 10 -288 -2 -290 8 -263 -89 -243 -123 25 -274 -23
-313 -99 -35 -66 -21 -128 39 -174 32 -24 42 -27 96 -23 83 6 138 58 61 58
-58 0 -80 67 -38 114 41 47 114 39 143 -15 33 -65 4 -174 -60 -222 -18 -14
-107 -62 -197 -107 -258 -127 -330 -197 -335 -324 -3 -65 13 -125 41 -156 10
-11 37 -29 61 -41 24 -11 44 -23 44 -26 0 -3 -11 -29 -25 -57 -103 -215 -118
-384 -54 -601 59 -198 202 -388 412 -548 l67 -52 0 -52 c0 -28 5 -55 11 -59 9
-5 2577 -9 2712 -5 16 1 17 32 17 507 0 309 -4 503 -9 499 -5 -3 -13 -1 -16 5
-9 14 -13 347 -5 360 3 5 27 -8 53 -29 75 -63 131 -85 220 -89 152 -8 253 67
241 177 -9 77 -109 128 -163 84 -30 -25 -35 -60 -10 -68 21 -7 24 -26 9 -56
-22 -41 -89 -10 -92 42 -2 47 2 59 34 95 37 41 67 61 193 129 141 75 194 118
222 185 30 68 9 194 -36 220 -55 33 -55 33 -28 107 38 102 48 156 48 252 -1
92 -3 112 -27 205 -54 210 -203 396 -394 492 -132 66 -183 72 -607 72 -215 0
-375 -3 -378 -9 -4 -5 -7 -38 -7 -74 -1 -58 1 -68 22 -82 57 -40 90 -77 99
-111 15 -55 13 -2640 -1 -2649 -13 -7 -357 -8 -365 0 -6 6 -5 2614 1 2642 3
11 5 23 5 27 2 17 63 76 89 87 27 11 28 14 30 91 l1 80 -449 0 -450 0 0 -78 0
-77 41 -25 c22 -14 52 -44 65 -66 l25 -42 -2 -1316 c-1 -769 -5 -1318 -10
-1322 -16 -9 -359 -8 -369 2 -8 8 -13 128 -11 296 l1 66 54 30 c131 75 210
229 201 396 -5 100 -10 120 -57 215 -32 65 -60 103 -120 164 l-78 79 0 678 c0
447 4 690 11 712 19 61 33 79 79 109 l45 29 -1 68 c-1 37 -2 70 -3 75 -1 6
-819 11 -822 5z m2071 -33 c6 -4 11 -28 10 -54 -1 -25 -1 -51 -1 -57 1 -5 22
-25 47 -42 30 -22 52 -48 65 -77 19 -43 20 -67 19 -483 -1 -240 -1 -826 -1
-1301 1 -476 -2 -868 -7 -873 -15 -15 -50 -17 -67 -4 -15 11 -16 113 -16 1316
0 718 -2 1320 -6 1338 -5 32 -44 79 -104 128 -21 17 -25 28 -23 59 2 20 8 43
14 50 10 12 50 13 70 0z m-1988 -57 c3 -54 6 -64 26 -74 40 -20 71 -56 88
-101 15 -38 17 -86 18 -321 0 -270 0 -277 -19 -274 -43 7 -44 15 -45 293 -1
166 -5 281 -12 303 -7 21 -29 54 -51 74 -22 20 -48 45 -59 55 -11 10 -17 25
-14 34 3 8 6 28 6 44 0 25 4 29 30 29 29 0 29 -1 32 -62z m955 12 c1 -25 2
-52 2 -61 1 -8 19 -25 40 -37 29 -16 47 -38 66 -76 l26 -54 1 -1303 c1 -1241
0 -1303 -17 -1315 -12 -9 -23 -10 -36 -4 -17 10 -18 69 -17 1328 1 1246 0
1319 -17 1355 -16 35 -88 107 -107 107 -10 0 -11 94 -1 104 4 4 19 6 33 4 22
-3 25 -8 27 -48z m1798 -1 c180 -51 359 -230 434 -433 70 -190 62 -399 -22
-549 -20 -36 -20 -39 -5 -48 199 -111 117 -323 -157 -409 -123 -38 -203 -111
-212 -193 -6 -53 10 -107 38 -133 25 -23 113 -26 152 -5 28 15 48 59 42 91 -4
23 12 37 27 22 16 -16 12 -67 -8 -97 -53 -81 -206 -83 -321 -3 -170 116 -191
284 -63 494 31 52 36 64 22 65 -9 0 -25 2 -34 4 -9 2 -34 5 -55 8 -239 34
-415 222 -408 437 7 203 115 320 312 337 133 11 216 -56 230 -184 5 -42 2 -58
-16 -87 -31 -50 -87 -66 -124 -35 -26 21 -18 31 40 48 76 21 90 91 33 171 -30
42 -70 60 -134 60 -143 0 -255 -115 -264 -271 -12 -202 115 -327 339 -335 235
-8 422 111 494 315 22 64 26 88 25 169 0 95 -14 149 -61 247 -77 161 -209 269
-389 320 l-55 15 50 -4 c28 -3 68 -10 90 -17z m84 -112 c136 -105 203 -255
197 -441 -4 -121 -8 -142 -47 -226 -38 -82 -68 -121 -130 -170 -54 -42 -91
-56 -182 -65 -53 -6 -58 -5 -65 16 -10 26 -8 201 2 218 4 6 19 11 34 11 34 0
87 32 103 62 53 98 4 250 -95 298 -50 24 -50 23 -47 132 2 86 19 126 78 177
57 50 72 49 152 -12z m-2854 -652 c60 -18 164 -84 199 -126 153 -184 152 -432
-3 -596 -26 -27 -19 -31 50 -33 30 -1 88 -11 129 -22 237 -62 395 -215 445
-432 30 -127 -13 -288 -101 -385 -39 -43 -155 -104 -225 -119 -132 -26 -262
22 -323 121 -52 84 -43 181 22 240 30 27 96 34 127 13 33 -22 34 -56 0 -56
-36 0 -104 -30 -115 -51 -16 -28 -11 -90 9 -136 14 -29 33 -49 68 -70 43 -25
57 -28 138 -28 111 1 175 26 236 92 76 83 99 173 74 292 -48 228 -194 341
-445 345 -113 1 -200 -7 -246 -24 -172 -62 -305 -209 -360 -395 -18 -64 -24
-213 -12 -301 32 -219 170 -404 384 -512 74 -37 228 -92 259 -92 13 0 26 -4
29 -8 8 -13 -88 -3 -172 18 -330 83 -583 372 -649 740 -3 14 -7 75 -9 135 -4
136 10 203 71 327 l45 92 -43 25 c-89 53 -124 115 -114 206 13 131 71 179 379
318 116 53 162 89 192 149 65 130 8 253 -123 263 -90 8 -144 -42 -145 -132 -1
-29 -4 -53 -7 -53 -17 0 -42 44 -42 74 0 62 57 112 153 132 30 6 57 10 60 9 3
-1 32 -10 65 -20z m46 -1052 c1 -5 2 -213 3 -463 2 -414 0 -460 -17 -515 -10
-32 -19 -61 -22 -63 -7 -7 -131 122 -164 171 -83 121 -111 212 -111 357 0 142
26 231 105 355 33 52 109 131 148 152 25 14 56 17 58 6z"/>
<path d="M3738 2441 c-14 -16 -81 -74 -151 -130 -156 -125 -181 -149 -209
-203 -31 -59 -32 -182 -2 -248 l21 -45 7 40 c29 157 86 219 251 271 136 43
199 92 222 174 19 70 -24 148 -89 164 -21 5 -31 0 -50 -23z m95 -58 c26 -52 1
-123 -58 -169 -19 -14 -83 -44 -141 -65 -59 -21 -122 -47 -140 -58 -31 -19
-34 -19 -34 -3 0 32 59 90 173 170 62 44 126 96 143 115 16 20 32 36 36 36 4
1 14 -11 21 -26z"/>
<path d="M736 2609 c-3 -13 -8 -49 -11 -79 -16 -143 -71 -192 -327 -291 -107
-41 -183 -91 -220 -144 -64 -91 -29 -219 71 -261 l33 -14 72 73 c39 39 128
111 197 159 134 92 185 143 226 222 30 60 34 75 35 151 0 63 -30 167 -56 194
-13 12 -15 11 -20 -10z m-66 -309 c0 -43 -60 -104 -210 -216 -108 -81 -163
-131 -191 -174 l-16 -24 -31 30 c-26 26 -30 37 -27 72 4 50 33 101 79 135 38
30 218 116 243 117 4 1 26 9 48 20 22 11 45 19 51 20 6 0 17 7 24 15 14 17 30
20 30 5z"/>
</g>
</svg>
